<?xml version="1.0" standalone="no"?>
<!DOCTYPE svg PUBLIC "-//W3C//DTD SVG 1.1//EN" "http://www.w3.org/Graphics/SVG/1.1/DTD/svg11.dtd" >
<svg xmlns="http://www.w3.org/2000/svg" xmlns:xlink="http://www.w3.org/1999/xlink" version="1.1">
<metadata>
Created by FontForge 20170731 at Tue Dec 18 18:23:41 2018
 By Aleksey,,,
Copyright (c) 2018 by Vladimir Nikolic. All rights reserved.
</metadata>
<defs>
<font id="Technology-Bold" horiz-adv-x="447" >
  <font-face 
    font-family="Technology"
    font-weight="700"
    font-stretch="normal"
    units-per-em="1000"
    panose-1="0 0 0 0 0 0 0 0 0 0"
    ascent="750"
    descent="-250"
    x-height="684"
    cap-height="687"
    bbox="-113.667 -106 464 796"
    underline-thickness="50"
    underline-position="-150"
    unicode-range="U+000D-007A"
  />
<missing-glyph 
 />
    <glyph glyph-name=".notdef" 
 />
    <glyph glyph-name=".null" horiz-adv-x="0" 
 />
    <glyph glyph-name="nonmarkingreturn" unicode="&#xd;" 
 />
    <glyph glyph-name="NULL" horiz-adv-x="0" 
 />
    <glyph glyph-name="NULL" horiz-adv-x="0" 
 />
    <glyph glyph-name="space" unicode=" " horiz-adv-x="356" 
 />
    <glyph glyph-name="exclam" unicode="!" horiz-adv-x="153" 
d="M119 373q0 -3 -2 -5l-17 -18q-5 -5 -10 0l-55 54q-2 2 -2 5v219q0 3 2 5l55 55q5 5 10 0l17 -18q2 -2 2 -5v-292zM119 7q0 -7 -6 -7h-73q-7 0 -7 7v72q0 7 7 7h73q6 0 6 -7v-72zM119 125q-1 -1 -1 -2l-1 -2l-17 -19q-5 -5 -10 0l-55 55q-2 2 -2 5v119q0 3 2 5l55 55
q5 5 10 0l17 -18q2 -2 2 -5v-193z" />
    <glyph glyph-name="quotedbl" unicode="&#x22;" horiz-adv-x="259" 
d="M113 551q0 -3 -2 -5l-36 -37q-5 -5 -10 0l-37 37q-2 2 -2 5v123q0 6 7 6h73q7 0 7 -6v-123zM225 550q0 -3 -2 -5l-36 -37q-5 -5 -10 0l-38 37q-1 1 -1 5v123q0 6 6 6h74q7 0 7 -6v-123z" />
    <glyph glyph-name="dollar" unicode="$" 
d="M412 62q0 -3 -2 -5l-19 -18q-5 -5 -9 0l-55 55q-2 2 -2 5v182q0 3 2 5l55 55q4 4 9 0l19 -18q2 -2 2 -5v-256zM261 -73q0 -2 -2 -4l-18 -19q-5 -5 -9 0l-55 55q-2 2 -2 5v19q0 7 7 7h72q7 0 7 -7v-56zM355 2q-2 -2 -5 -2h-311q-5 0 -6.5 4t2.5 8l72 73q2 2 5 2h202
q3 0 5 -2l55 -55q4 -5 0 -9zM365 350q5 -5 0 -10l-37 -36q-2 -2 -5 -2h-201q-3 0 -5 2l-37 36q-5 5 0 10l37 36q2 2 5 2h204zM261 104q0 -7 -7 -7h-72q-7 0 -7 7v181q0 7 7 7h72q7 0 7 -7v-181zM261 707q0 -7 -7 -7h-72q-7 0 -7 7v22q0 3 2 5l55 55q4 4 9 0l18 -17
q2 -2 2 -5v-60zM131 603q-3 0 -5 2l-55 55q-5 5 0 10l18 18q2 2 5 2h311q5 0 7 -4t-2 -8l-73 -73q-2 -2 -5 -2h-201zM120 409q0 -3 -2 -5l-55 -54q-5 -5 -10 0l-18 18q-2 2 -2 5v255q0 3 2 5l18 19q5 5 10 0l55 -55q2 -2 2 -5v-183zM261 406q0 -7 -7 -7h-72q-7 0 -7 7v180
q0 7 7 7h72q7 0 7 -7v-180z" />
    <glyph glyph-name="parenleft" unicode="(" horiz-adv-x="150" 
d="M189 708h-59q-3 0 -5 2l-55 55q-5 5 0 10l19 17q2 2 5 2h165q5 0 7 -4t-2 -8zM61 349q-5 -5 -10 0l-17 18q-2 2 -2 5v360q0 3 2 5l17 19q5 5 10 0l55 -55q2 -2 2 -5v-287q0 -3 -2 -5zM264 -94q4 -4 2 -8t-7 -4h-165q-3 0 -5 2l-19 18q-5 5 0 10l55 54q2 2 5 2h56
q3 0 5 -2zM61 -68q-5 -5 -10 0l-17 19q-2 2 -2 5v362q0 3 2 5l17 17q5 5 10 0l55 -55q2 -2 2 -5v-288q0 -3 -2 -5z" />
    <glyph glyph-name="parenright" unicode=")" horiz-adv-x="160" 
d="M-35 -18h59q2 0 4 -2l55 -55q5 -4 0 -9l-18 -18q-2 -2 -5 -2h-166q-5 0 -7 4t2 8zM92 341q5 5 10 0l18 -17q2 -2 2 -5v-361q0 -3 -2 -5l-18 -19q-5 -5 -10 0l-55 55q-2 2 -2 5v287q0 3 2 5zM-111 784q-4 4 -2 8t7 4h166q3 0 5 -2l18 -18q5 -4 0 -9l-55 -55q-2 -2 -4 -2
h-56q-3 0 -5 2zM92 758q5 5 10 0l18 -19q2 -2 2 -5v-361q0 -3 -2 -5l-18 -18q-5 -5 -10 0l-55 55q-2 2 -2 5v288q0 3 2 5z" />
    <glyph glyph-name="comma" unicode="," horiz-adv-x="158" 
d="M120 -46q0 -3 -2 -5l-36 -37q-5 -5 -10 0l-37 37q-2 2 -2 5v122q0 7 7 7h73q7 0 7 -7v-122z" />
    <glyph glyph-name="hyphen" unicode="-" horiz-adv-x="267" 
d="M247 344q5 -5 0 -10l-36 -36q-2 -2 -5 -2h-145q-3 0 -5 2l-36 36q-5 5 0 10l36 36q2 2 5 2h145q3 0 5 -2z" />
    <glyph glyph-name="period" unicode="." horiz-adv-x="158" 
d="M110 85q6 0 6 -7v-71q0 -7 -6 -7h-73q-7 0 -7 7v71q0 7 7 7h73z" />
    <glyph glyph-name="zero" unicode="0" 
d="M391 39q-5 -5 -9 0l-55 54q-2 2 -2 5v183q0 3 2 5l55 55q4 4 9 0l19 -18q2 -2 2 -5v-256q0 -3 -2 -5zM391 349q-5 -5 -9 0l-55 55q-2 2 -2 5v183q0 3 2 5l55 54q4 4 9 0l19 -18q2 -2 2 -5v-255q0 -3 -2 -5zM319 605q-2 -2 -5 -2h-183q-3 0 -5 2l-55 55q-5 5 0 10l18 18
q2 2 5 2h256q3 0 5 -2l18 -18q5 -5 0 -10zM63 349q-5 -5 -10 0l-18 19q-2 2 -2 5v255q0 3 2 5l18 18q5 5 10 0l55 -54q2 -2 2 -5v-183q0 -3 -2 -5zM63 39q-5 -5 -10 0l-18 18q-2 2 -2 5v256q0 3 2 5l18 18q5 5 10 0l55 -55q2 -2 2 -5v-183q0 -3 -2 -5zM355 2q-2 -2 -5 -2
h-256q-3 0 -5 2l-18 19q-5 4 0 9l55 55q2 2 5 2h183q3 0 5 -2l54 -55q4 -5 0 -9z" />
    <glyph glyph-name="one" unicode="1" horiz-adv-x="145" 
d="M94 349q-5 -5 -10 0l-55 55q-2 2 -2 5v218q0 3 2 5l55 55q5 5 10 0l18 -18q2 -2 2 -5v-292q0 -3 -2 -5zM94 2q-5 -5 -10 0l-55 55q-2 2 -2 5v218q0 3 2 5l55 55q5 5 10 0l18 -18q2 -2 2 -5v-292q0 -3 -2 -5z" />
    <glyph glyph-name="two" unicode="2" 
d="M411 372q0 -3 -2 -5l-19 -18q-5 -5 -9 0l-55 54q-2 2 -2 5v183q0 3 2 5l55 55q4 4 9 0l19 -19q2 -2 2 -5v-255zM318 604q-2 -2 -5 -2h-201q-3 0 -5 2l-73 73q-4 4 -2.5 8t6.5 4h311q3 0 5 -2l19 -18q5 -5 0 -10zM119 98q0 -3 -2 -5l-55 -55q-5 -5 -10 0l-18 18q-2 2 -2 5
v256q0 3 2 5l18 18q5 5 10 0l55 -55q2 -2 2 -5v-182zM93 0q-3 0 -5 2l-18 18q-5 4 0 9l55 55q2 2 5 2h202q4 0 4 -2l73 -72q4 -4 2 -8t-7 -4h-311zM327 303q-2 -2 -5 -2h-201q-3 0 -5 2l-37 36q-5 5 0 10l37 37q2 2 5 2h201q3 0 5 -2l37 -37q5 -5 0 -10z" />
    <glyph glyph-name="three" unicode="3" horiz-adv-x="412" 
d="M24 0q-5 0 -6.5 4t2.5 8l75 74h185q3 0 5 -2l73 -72q4 -4 2 -8t-7 -4h-329zM378 25q0 -5 -3.5 -7t-7.5 2l-74 73q-2 2 -2 5v182q0 3 2 5l55 55q5 5 10 0l18 -18q2 -2 2 -5v-292zM331 349q5 -5 0 -10l-36 -36q-2 -2 -5 -2h-202q-3 0 -5 2l-36 36q-5 5 0 10l36 37q2 2 5 2
h202q3 0 5 -2zM378 372q0 -3 -2 -5l-18 -18q-5 -5 -10 0l-55 55q-2 2 -2 5v182q0 3 2 5l74 73q4 4 7.5 2t3.5 -7v-292zM285 605q-2 -2 -5 -2h-185l-75 74q-4 4 -2.5 8t6.5 4h329q5 0 7 -4t-2 -8z" />
    <glyph glyph-name="four" unicode="4" horiz-adv-x="436" 
d="M403 7q0 -5 -4 -7t-8 2l-73 73q-2 2 -2 5v201q0 3 2 5l55 55q5 5 9 0l19 -18q2 -2 2 -5v-311zM403 373q0 -3 -2 -5l-19 -19q-4 -5 -9 0l-55 55q-2 2 -2 5v201q0 3 2 5l73 73q4 4 8 2t4 -7v-310zM111 409q0 -3 -2 -5l-55 -55q-5 -5 -10 0l-18 19q-2 2 -2 5v310q0 5 4 7
t7 -2l74 -73q2 -2 2 -5v-201zM319 304q-2 -2 -5 -2h-202q-3 0 -5 2l-36 36q-5 5 0 10l36 36q2 2 5 2h202q3 0 5 -2l36 -36q5 -5 0 -10z" />
    <glyph glyph-name="five" unicode="5" 
d="M335 603h-204q-3 0 -5 2l-55 55q-5 5 0 10l18 17q2 2 5 2h311q5 0 7 -4t-2 -8zM63 349q-5 -5 -10 0l-18 19q-2 2 -2 5v255q0 3 2 5l18 18q5 5 10 0l54 -55q2 -2 2 -5v-182q0 -3 -2 -5zM328 303q-2 -2 -5 -2h-202q-3 0 -5 2l-36 37q-5 5 0 10l36 36q2 2 5 2h202q3 0 5 -2
l36 -36q5 -5 0 -10zM391 38q-5 -5 -9 0l-55 55q-2 2 -2 5v182q0 3 2 5l55 55q4 4 9 0l19 -17q2 -2 2 -5v-256q0 -3 -2 -5zM355 2q-2 -2 -5 -2h-311q-5 0 -6.5 4t2.5 8l72 72q2 2 5 2l20 1h181q3 0 5 -2l55 -55q4 -5 0 -9z" />
    <glyph glyph-name="six" unicode="6" 
d="M354 2q-2 -2 -5 -2h-255q-3 0 -5 2l-18 18q-5 4 0 9l55 55q2 2 5 2h182q3 0 5 -2l55 -55q4 -5 0 -9zM411 61q0 -3 -2 -5l-18 -18q-5 -5 -9 0l-55 55q-2 2 -2 5v182q0 3 2 5l55 55q4 4 9 0l18 -18q2 -2 2 -5v-256zM337 604q0 -2 -4 -2h-202q-3 0 -5 2l-55 55q-5 5 0 10
l18 18q2 2 5 2h311q5 0 7 -4t-2 -8zM364 349q5 -5 0 -10l-36 -36q-2 -2 -5 -2h-202q-3 0 -5 2l-36 36q-5 5 0 10l36 37q2 2 5 2h202q3 0 5 -2zM119 98q0 -3 -2 -5l-55 -55q-5 -5 -10 0l-17 18q-2 2 -2 5v256q0 3 2 5l17 18q5 5 10 0l55 -55q2 -2 2 -5v-182zM119 408
q0 -3 -2 -5l-55 -54q-5 -5 -10 0l-17 18q-2 2 -2 5v255q0 3 2 5l17 19q5 5 10 0l55 -55q2 -2 2 -5v-183z" />
    <glyph glyph-name="seven" unicode="7" horiz-adv-x="412" 
d="M375 7q0 -5 -3.5 -7t-7.5 2l-74 73q-2 0 -2 4v201q0 3 2 5l55 55q5 5 10 0l18 -18q2 -2 2 -5v-310zM375 372q0 -3 -2 -5l-18 -18q-5 -5 -10 0l-55 55q-2 2 -2 5v182q0 3 2 5l74 73q4 4 7.5 2t3.5 -7v-292zM282 605q-2 -2 -5 -2h-183q-3 0 -5 2l-72 72q-4 4 -2 8t7 4h328
q5 0 7 -4t-2 -8z" />
    <glyph glyph-name="eight" unicode="8" 
d="M355 2q-2 -2 -5 -2h-256q-3 0 -5 2l-18 18q-5 4 0 9l55 55q2 2 5 2h182q3 0 5 -2l55 -55q4 -5 0 -9zM411 62q0 -3 -2 -5l-18 -19q-5 -5 -9 0l-55 55q-2 2 -2 5v182q0 3 2 5l55 55q4 4 9 0l18 -18q2 -2 2 -5v-255zM411 372q0 -3 -2 -5l-18 -18q-5 -5 -9 0l-55 55
q-2 2 -2 5v182q0 3 2 5l55 55q4 4 9 0l18 -19q2 -2 2 -5v-255zM318 605q-2 -2 -5 -2h-182q-3 0 -5 2l-55 54q-5 5 0 10l18 18q2 2 5 2h256q3 0 5 -2l18 -18q5 -5 0 -10zM119 409q0 -3 -2 -5l-55 -55q-5 -5 -10 0l-17 18q-2 2 -2 5v255q0 3 2 5l17 19q5 5 10 0l55 -55
q2 -2 2 -5v-182zM364 349q5 -5 0 -10l-36 -36q-2 -2 -5 -2h-202q-3 0 -5 2l-36 36q-5 5 0 10l36 37q2 2 5 2h202q3 0 5 -2zM119 98q0 -3 -2 -5l-55 -55q-5 -5 -10 0l-17 19q-2 2 -2 5v255q0 3 2 5l17 18q5 5 10 0l55 -55q2 -2 2 -5v-182z" />
    <glyph glyph-name="nine" unicode="9" 
d="M411 373q0 -3 -2 -5l-19 -19q-5 -5 -9 0l-55 55q-2 2 -2 5v182q0 3 2 5l55 55q4 4 9 0l19 -18q2 -2 2 -5v-255zM318 605q-2 -2 -5 -2h-183q-3 0 -5 2l-55 55q-5 5 0 10l18 18q2 2 5 2h256q3 0 5 -2l19 -18q5 -5 0 -10zM119 409q0 -3 -2 -5l-55 -55q-5 -5 -10 0l-18 19
q-2 2 -2 5v255q0 3 2 5l18 18q5 5 10 0l55 -55q2 -2 2 -5v-182zM364 350q5 -5 0 -10l-37 -36q-2 -2 -5 -2h-201q-3 0 -5 2l-37 36q-5 5 0 10l37 36q2 2 5 2h204zM354 2q-2 -2 -5 -2h-311q-5 0 -6.5 4t2.5 8l72 72q2 2 5 2l21 1h181q3 0 5 -2l55 -55q4 -5 0 -9zM411 62
q0 -3 -2 -5l-19 -19q-5 -5 -9 0l-55 55q-2 2 -2 5v183q0 3 2 5l55 55q4 4 9 0l19 -18q2 -2 2 -5v-256z" />
    <glyph glyph-name="colon" unicode=":" horiz-adv-x="160" 
d="M123 189q0 -7 -7 -7h-72q-7 0 -7 7v73q0 7 7 7h72q7 0 7 -7v-73zM123 468q0 -7 -7 -7h-72q-7 0 -7 7v72q0 7 7 7h72q7 0 7 -7v-72z" />
    <glyph glyph-name="semicolon" unicode=";" horiz-adv-x="160" 
d="M123 468q0 -7 -7 -7h-72q-7 0 -7 7v72q0 7 7 7h72q7 0 7 -7v-72zM123 141q0 -3 -2 -5l-36 -37q-5 -5 -10 0l-37 37q-2 2 -2 5v123q0 7 7 7h73q7 0 7 -7v-123z" />
    <glyph glyph-name="question" unicode="?" horiz-adv-x="414" 
d="M283 605q-2 -2 -5 -2h-180q-3 0 -5 2l-72 72q-4 4 -2.5 8t6.5 4h290q3 0 5 -2l18 -17q5 -5 0 -10zM376 372q0 -3 -2 -5l-17 -18q-5 -5 -10 0l-55 55q-2 2 -2 5v182q0 3 2 5l55 55q5 5 10 0l17 -19q2 -2 2 -5v-255zM329 349q5 -5 0 -10l-36 -36q-2 -2 -5 -2h-80q-3 0 -5 2
l-36 36q-5 5 0 10l36 37q2 2 5 2h80q3 0 5 -2zM206 161q0 -3 -2 -5l-55 -54q-5 -5 -10 0l-17 18q-2 2 -2 5v193q0 3 2 5l17 17q5 5 10 0l55 -55q2 -2 2 -5v-119zM206 7q0 -7 -7 -7h-73q-6 0 -6 7v71q0 7 6 7h73q7 0 7 -7v-71z" />
    <glyph glyph-name="A" unicode="A" 
d="M326 75q-2 0 -2 4v201q0 3 2 5l55 55q4 4 9 0l18 -18q2 -2 2 -5v-310q0 -5 -4 -7t-8 2zM410 372q0 -3 -2 -5l-18 -18q-5 -5 -9 0l-55 54q-2 2 -2 5v183q0 3 2 5l72 73q4 4 8 2t4 -7v-292zM317 604q-2 -2 -5 -2h-182q-3 0 -5 2l-74 73q-4 4 -2 8t7 4h330q5 0 6.5 -4
t-2.5 -8zM118 408q0 -3 -2 -5l-55 -54q-5 -5 -10 0l-17 18q-2 2 -2 5v292q0 5 3.5 7t7.5 -2l73 -73q2 -2 2 -5v-183zM327 303q-2 -2 -5 -2h-202q-3 0 -5 2l-36 36q-5 5 0 10l36 37q2 2 5 2h202q3 0 5 -2l36 -37q5 -5 0 -10zM43 2q-4 -4 -7.5 -2t-3.5 7v310q0 3 2 5l17 18
q5 5 10 0l55 -55q2 -2 2 -5v-201q0 -4 -2 -4z" />
    <glyph glyph-name="B" unicode="B" 
d="M355 2q-2 -2 -5 -2h-292q-5 0 -7 4t2 8l73 72q2 2 5 2h183q3 0 5 -2l54 -55q4 -5 0 -9zM391 38q-5 -5 -9 0l-55 55q-2 2 -2 5v182q0 3 2 5l55 55q4 4 9 0l19 -18q2 -2 2 -5v-256q0 -3 -2 -5zM391 349q-5 -5 -9 0l-55 54q-2 2 -2 5v183q0 3 2 5l55 55q4 4 9 0l19 -19
q2 -2 2 -5v-255q0 -3 -2 -5zM319 604q-2 -2 -5 -2h-183q-3 0 -5 2l-19 19q-14 12 -27.5 26.5t-26.5 27.5q-3 4 -1.5 8t6.5 4h292q3 0 5 -2l18 -18q5 -5 0 -10zM63 349q-5 -5 -10 0l-18 18q-2 2 -2 5v292q0 5 3.5 7t7.5 -2l74 -73q2 -2 2 -5v-183q0 -3 -2 -5zM328 303
q-2 -2 -5 -2h-201q-3 0 -5 2l-37 36q-5 5 0 10l37 37q2 2 5 2h201q3 0 5 -2l37 -37q5 -5 0 -10zM44 20q-4 -4 -7.5 -2t-3.5 7v292q0 3 2 5l18 18q5 5 10 0l55 -55q2 -2 2 -5v-182q0 -3 -2 -5z" />
    <glyph glyph-name="C" unicode="C" horiz-adv-x="405" 
d="M315 603h-185q-3 0 -5 2l-55 55q-5 5 0 10l18 17q2 2 5 2h292q5 0 7 -4t-2 -8zM61 349q-5 -5 -10 0l-18 18q-1 1 -1 5v255q0 4 1 5l18 19q5 5 10 0l55 -55q2 -2 2 -5v-182q0 -3 -2 -5zM390 12q4 -4 2 -8t-7 -4h-292q-3 0 -5 2l-18 18q-5 4 0 9l55 55q2 2 5 2h182
q3 0 5 -2zM61 38q-5 -5 -10 0l-18 19q-1 1 -1 5v256q0 4 1 5l18 17q5 5 10 0l55 -55q2 -2 2 -5v-182q0 -3 -2 -5z" />
    <glyph glyph-name="D" unicode="D" 
d="M43 21q-4 -4 -7.5 -2.5t-3.5 6.5v293q0 3 2 5l18 17q5 5 10 0l55 -55q2 -2 2 -5v-182q0 -3 -2 -5zM354 2q-2 -2 -5 -2h-292q-5 0 -7 4t2 8l73 72q2 2 5 2h183q3 0 5 -2l54 -54q4 -5 0 -9zM390 38q-5 -5 -9 0l-55 55q-2 2 -2 5v182q0 3 2 5l55 55q4 4 9 0l19 -17
q2 -2 2 -5v-256q0 -3 -2 -5zM390 349q-5 -5 -9 0l-55 55q-2 2 -2 5v182q0 3 2 5l55 55q4 4 9 0l19 -19q2 -2 2 -5v-254q0 -3 -2 -5zM318 605q-2 -2 -5 -2h-183q-3 0 -5 2l-73 72q-4 4 -2 8t7 4h292q3 0 5 -2l18 -17q5 -5 0 -10zM62 349q-5 -5 -10 0l-18 19q-2 2 -2 5v292
q0 5 3.5 7t7.5 -2l74 -74q2 -2 2 -5v-182q0 -3 -2 -5z" />
    <glyph glyph-name="E" unicode="E" horiz-adv-x="412" 
d="M318 605q-2 -2 -5 -2h-182q-3 0 -5 2l-73 73q-4 4 -2 8t7 4h328q5 0 7 -4t-2 -8zM119 409q0 -3 -2 -5l-54 -55q-5 -5 -10 0l-19 19q-2 2 -2 5v292q0 5 4 7t8 -2l73 -73q2 -2 2 -5v-183zM364 350q5 -5 0 -10l-36 -36q-2 -2 -5 -2h-202q-3 0 -5 2l-36 36q-5 5 0 10l36 36
q2 2 5 2h202q3 0 5 -2zM119 96l-75 -75q-4 -4 -8 -2.5t-4 6.5v293q0 3 2 5l19 18q5 5 10 0l54 -55q2 -2 2 -5v-185zM58 0q-5 0 -7 4t2 8l73 73q2 2 5 2h182q3 0 5 -2l73 -73q4 -4 2 -8t-7 -4h-328z" />
    <glyph glyph-name="F" unicode="F" horiz-adv-x="404" 
d="M117 79q0 -4 -2 -4l-73 -73q-4 -4 -7.5 -2t-3.5 7v310q0 4 1 5l19 18q5 5 10 0l54 -55q2 -2 2 -5v-201zM326 303q-2 -2 -5 -2h-202q-3 0 -5 2l-36 36q-5 5 0 10l36 37q2 2 5 2h202q3 0 5 -2l36 -37q5 -5 0 -10zM316 604q-2 -2 -5 -2h-182q-3 0 -5 2l-73 73q-4 4 -2 8t7 4
h328q5 0 7 -4t-2 -8zM117 408q0 -3 -2 -5l-54 -54q-5 -5 -10 0l-19 18q-1 1 -1 5v292q0 5 3.5 7t7.5 -2l73 -73q2 -2 2 -5v-183z" />
    <glyph glyph-name="G" unicode="G" 
d="M355 2q-2 -2 -5 -2h-256q-3 0 -5 2l-18 19q-5 4 0 9l55 54q2 2 5 2h182q3 0 5 -2l55 -54q4 -5 0 -9zM391 38q-5 -5 -9 0l-55 55q-2 2 -2 5v182q0 3 2 5l55 55q4 4 9 0l19 -17q2 -2 2 -5v-256q0 -3 -2 -5zM337 603h-206q-3 0 -5 2l-55 55q-5 5 0 10l18 17q2 2 5 2h313
q5 0 7 -4t-2 -8zM63 38q-5 -5 -10 0l-18 19q-2 2 -2 5v256q0 3 2 5l18 17q5 5 10 0l54 -55q2 -2 2 -5v-182q0 -3 -2 -5zM63 349q-5 -5 -10 0l-18 19q-2 2 -2 5v254q0 3 2 5l18 19q5 5 10 0l54 -55q2 -2 2 -5v-182q0 -3 -2 -5zM328 303q-2 -2 -5 -2h-116q-3 0 -5 2l-36 37
q-5 5 0 10l36 36q2 2 5 2h116q3 0 5 -2l36 -36q5 -5 0 -10z" />
    <glyph glyph-name="H" unicode="H" 
d="M326 77v204q0 3 2 5l55 55q4 4 9 0l18 -18q2 -2 2 -5v-311q0 -5 -4 -7t-8 2zM412 373q0 -3 -2 -5l-18 -19q-5 -5 -9 0l-55 55q-2 2 -2 5v204l74 75q4 4 8 2t4 -7v-310zM120 409q0 -3 -2 -5l-55 -55q-5 -5 -10 0l-17 19q-2 2 -2 5v310q0 5 3.5 7t7.5 -2l75 -75v-204z
M329 304q-2 -2 -5 -2h-202q-3 0 -5 2l-36 36q-5 5 0 10l36 36q2 2 5 2h202q3 0 5 -2l36 -36q5 -5 0 -10zM45 2q-4 -4 -7.5 -2t-3.5 7v311q0 3 2 5l17 18q5 5 10 0l55 -55q2 -2 2 -5v-201q0 -3 -2 -5z" />
    <glyph glyph-name="I" unicode="I" horiz-adv-x="145" 
d="M94 349q-5 -5 -10 0l-55 55q-2 2 -2 5v218q0 3 2 5l55 55q5 5 10 0l18 -18q2 -2 2 -5v-292q0 -3 -2 -5zM94 2q-5 -5 -10 0l-55 55q-2 2 -2 5v218q0 3 2 5l55 55q5 5 10 0l18 -18q2 -2 2 -5v-292q0 -3 -2 -5z" />
    <glyph glyph-name="J" unicode="J" 
d="M391 349q-5 -5 -9 0l-55 55q-2 2 -2 5v201q0 3 2 5l72 72q4 4 8 2t4 -7v-312zM327 93q-2 2 -2 5v182q0 3 2 5l55 55q4 4 9 0l18 -17q2 -2 2 -5v-293q0 -5 -4 -6.5t-8 2.5zM57 0q-5 0 -7 4t2 8l74 73q2 2 5 2h182q3 0 5 -2l73 -73q4 -4 2.5 -8t-6.5 -4h-330zM44 21
q-4 -4 -7.5 -2.5t-3.5 6.5v250q0 5 3.5 6.5t7.5 -2.5l73 -72q2 -2 2 -5v-104q0 -3 -2 -5z" />
    <glyph glyph-name="K" unicode="K" 
d="M411 7q0 -5 -4 -7t-8 2l-72 73q-2 0 -2 4v201q0 3 2 5l55 55q4 4 9 0l18 -18q2 -2 2 -5v-310zM411 630q0 -3 -2 -5l-223 -223q-2 -2 -5 -2h-44q-6 0 -6 7v61q0 3 2 5l215 214q2 2 5 2h51q7 0 7 -7v-52zM119 408q0 -3 -2 -5l-55 -54q-5 -5 -10 0l-17 18q-2 2 -2 5v310
q0 5 3.5 7t7.5 -2l75 -75v-204zM328 303q-2 -2 -5 -2h-202q-3 0 -5 2l-36 36q-5 5 0 10l36 37q2 2 5 2h202q3 0 5 -2l36 -37q5 -5 0 -10zM119 79q0 -4 -2 -4l-73 -73q-4 -4 -7.5 -2t-3.5 7v310q0 3 2 5l17 18q5 5 10 0l55 -55q2 -2 2 -5v-201z" />
    <glyph glyph-name="L" unicode="L" horiz-adv-x="408" 
d="M63 349q-5 -5 -10 0l-19 19q-2 2 -2 5v310q0 5 4 7t8 -2l75 -75v-204q0 -3 -2 -5zM58 0q-5 0 -7 4t2 8l73 73q2 2 5 2h182q3 0 5 -2l73 -73q4 -4 2 -8t-7 -4h-328zM44 21q-4 -4 -8 -2.5t-4 6.5v293q0 3 2 5l19 18q5 5 10 0l54 -55q2 -2 2 -5v-182q0 -3 -2 -5z" />
    <glyph glyph-name="M" unicode="M" horiz-adv-x="498" 
d="M378 75q-2 2 -2 5v201q0 3 2 5l55 55q5 5 10 0l18 -18q2 -2 2 -5v-311q0 -5 -4 -7t-8 2zM463 373q0 -3 -2 -5l-18 -19q-5 -5 -10 0l-55 55q-2 2 -2 5v182q0 3 2 5l73 74q4 4 8 2t4 -7v-292zM249 331q-5 -5 -10 0l-37 37q-2 2 -2 5v211q0 7 7 7h74q7 0 7 -7v-211
q0 -3 -2 -5zM370 605q-2 -2 -5 -2h-237q-3 0 -5 2l-74 73q-3 4 -1.5 8t6.5 4h384q5 0 7 -4t-2 -8zM116 409q0 -3 -2 -5l-55 -55q-5 -5 -10 0l-18 19q-2 2 -2 5v292q0 5 4 7t8 -2l73 -74q2 -2 2 -5v-182zM41 2q-4 -4 -8 -2t-4 7v311q0 3 2 5l18 18q5 5 10 0l55 -55q2 -2 2 -5
v-201q0 -3 -2 -5z" />
    <glyph glyph-name="N" unicode="N" 
d="M392 2q-5 -5 -9 0l-55 55q-2 2 -2 5v218q0 3 2 5l55 55q4 4 9 0l18 -18q2 -2 2 -5v-292q0 -3 -2 -5zM392 349q-5 -5 -9 0l-55 55q-2 2 -2 5v218q0 3 2 5l55 55q4 4 9 0l18 -18q2 -2 2 -5v-292q0 -3 -2 -5zM314 409q0 -7 -7 -7h-30l-143 142q-2 2 -2 5v78q0 7 6 7h26
q3 0 5 -2l143 -143q2 -2 2 -5v-75zM63 349q-5 -5 -10 0l-17 18q-2 2 -2 5v292q0 3 2 5l17 18q5 5 10 0l55 -55q2 -2 2 -5v-218q0 -3 -2 -5zM63 2q-5 -5 -10 0l-17 18q-2 2 -2 5v292q0 3 2 5l17 18q5 5 10 0l55 -55q2 -2 2 -5v-218q0 -3 -2 -5z" />
    <glyph glyph-name="O" unicode="O" 
d="M391 39q-5 -5 -9 0l-55 54q-2 2 -2 5v183q0 3 2 5l55 55q4 4 9 0l19 -18q2 -2 2 -5v-256q0 -3 -2 -5zM391 349q-5 -5 -9 0l-55 55q-2 2 -2 5v183q0 3 2 5l55 54q4 4 9 0l19 -18q2 -2 2 -5v-255q0 -3 -2 -5zM319 605q-2 -2 -5 -2h-183q-3 0 -5 2l-55 55q-5 5 0 10l18 18
q2 2 5 2h256q3 0 5 -2l18 -18q5 -5 0 -10zM63 349q-5 -5 -10 0l-18 19q-2 2 -2 5v255q0 3 2 5l18 18q5 5 10 0l55 -54q2 -2 2 -5v-183q0 -3 -2 -5zM63 39q-5 -5 -10 0l-18 18q-2 2 -2 5v256q0 3 2 5l18 18q5 5 10 0l55 -55q2 -2 2 -5v-183q0 -3 -2 -5zM355 2q-2 -2 -5 -2
h-256q-3 0 -5 2l-18 19q-5 4 0 9l55 55q2 2 5 2h183q3 0 5 -2l54 -55q4 -5 0 -9z" />
    <glyph glyph-name="P" unicode="P" horiz-adv-x="437" 
d="M390 349q-5 -5 -9 0l-55 55q-2 2 -2 5v182q0 3 2 5l55 55q4 4 9 0l19 -19q2 -2 2 -5v-255q0 -3 -2 -5zM318 605q-2 -2 -5 -2h-183q-3 0 -5 2l-12 12q-14 13 -31.5 29.5t-29.5 30.5q-3 4 -1.5 8t6.5 4h292q3 0 5 -2l19 -18q5 -5 0 -10zM62 349q-5 -5 -10 0l-18 18
q-2 2 -2 5v292q0 5 3.5 7t7.5 -2l74 -73q2 -2 2 -5v-182q0 -3 -2 -5zM364 349q5 -5 0 -10l-37 -36q-2 -2 -5 -2h-201q-3 0 -5 2l-37 36q-5 5 0 10l37 37q2 2 5 2h201q3 0 5 -2zM43 2q-4 -4 -7.5 -2t-3.5 7v310q0 3 2 5l18 18q5 5 10 0l55 -55q2 -2 2 -5v-201q0 -4 -2 -4z
" />
    <glyph glyph-name="Q" unicode="Q" 
d="M326 12q4 -4 2 -8t-7 -4h-226q-3 0 -5 2l-17 19q-5 4 0 9l55 55q2 2 5 2h115q3 0 5 -2zM413 7q0 -7 -7 -7h-51q-3 0 -5 2l-109 109q-2 2 -2 5v60q0 7 7 7h43q3 0 5 -2l119 -119v-55zM327 163v118q0 3 2 5l54 55q4 4 9 0l19 -18q2 -2 2 -5v-226q0 -5 -4 -7t-8 2zM392 349
q-5 -5 -9 0l-54 55q-2 2 -2 5v183q0 3 2 5l54 55q4 4 9 0l19 -19q2 -2 2 -5v-255q0 -3 -2 -5zM320 605q-2 -2 -5 -2h-182q-3 0 -5 2l-55 55q-5 5 0 10l17 18q2 2 5 2h256q3 0 5 -2l19 -18q5 -5 0 -10zM64 349q-5 -5 -10 0l-17 19q-2 2 -2 5v255q0 3 2 5l17 19q5 5 10 0
l55 -55q2 -2 2 -5v-183q0 -3 -2 -5zM64 39q-5 -5 -10 0l-17 18q-2 2 -2 5v256q0 3 2 5l17 18q5 5 10 0l55 -55q2 -2 2 -5v-182q0 -3 -2 -5z" />
    <glyph glyph-name="R" unicode="R" 
d="M412 7q0 -7 -7 -7h-52q-3 0 -5 2l-214 216q-2 2 -2 5v60q0 7 6 7h44q3 0 5 -2l223 -224q2 -2 2 -5v-52zM45 2q-4 -4 -7.5 -2t-3.5 7v311q0 3 2 5l17 18q5 5 10 0l55 -55q2 -2 2 -5v-201q0 -3 -2 -5zM319 605q-2 -2 -5 -2h-182q-3 0 -5 2l-74 73q-4 4 -2 8t7 4h292
q3 0 5 -2l19 -18q5 -5 0 -10zM392 349q-5 -5 -9 0l-55 55q-2 2 -2 5v182q0 3 2 5l55 55q4 4 9 0l18 -18q2 -2 2 -5v-258zM365 350q5 -5 0 -10l-36 -36q-2 -2 -5 -2h-202q-3 0 -5 2l-36 36q-5 5 0 10l36 36q2 2 5 2h202q3 0 5 -2zM63 349q-5 -5 -10 0l-17 19q-2 2 -2 5v292
q0 5 3.5 7t7.5 -2l75 -76v-185q0 -3 -2 -5z" />
    <glyph glyph-name="S" unicode="S" 
d="M335 603h-204q-3 0 -5 2l-55 55q-5 5 0 10l18 17q2 2 5 2h311q5 0 7 -4t-2 -8zM63 349q-5 -5 -10 0l-18 19q-2 2 -2 5v255q0 3 2 5l18 18q5 5 10 0l54 -55q2 -2 2 -5v-182q0 -3 -2 -5zM328 303q-2 -2 -5 -2h-202q-3 0 -5 2l-36 37q-5 5 0 10l36 36q2 2 5 2h202q3 0 5 -2
l36 -36q5 -5 0 -10zM391 38q-5 -5 -9 0l-55 55q-2 2 -2 5v182q0 3 2 5l55 55q4 4 9 0l19 -17q2 -2 2 -5v-256q0 -3 -2 -5zM355 2q-2 -2 -5 -2h-311q-5 0 -6.5 4t2.5 8l72 72q2 2 5 2l20 1h181q3 0 5 -2l55 -55q4 -5 0 -9z" />
    <glyph glyph-name="T" unicode="T" horiz-adv-x="435" 
d="M238 2q-5 -5 -9 0l-55 55q-2 2 -2 5v218q0 3 2 5l55 55q4 4 9 0l19 -17q2 -2 2 -5v-293q-1 -1 -1 -2l-1 -2zM238 349q-5 -5 -9 0l-55 55q-2 2 -2 5v177q0 7 7 7h73q7 0 7 -7v-213q0 -3 -2 -5zM417 670q5 -5 0 -10l-55 -55q-2 -2 -5 -2h-282q-3 0 -5 2l-55 55q-5 5 0 10
l18 17q2 2 4 2h359z" />
    <glyph glyph-name="U" unicode="U" 
d="M56 0q-5 0 -7 4t2 8l73 72q2 2 5 2h183q3 0 5 -2l72 -72q4 -4 2.5 -8t-6.5 -4h-329zM410 25q0 -5 -4 -6.5t-8 2.5l-73 72q-2 2 -2 5v182q0 3 2 5l55 55q4 4 9 0l19 -17q2 -2 2 -5v-293zM389 349q-5 -5 -9 0l-55 55q-2 2 -2 5v201q0 3 2 5l73 72q4 4 8 2t4 -7v-309
q0 -3 -2 -5zM61 349q-5 -5 -10 0l-18 19q-2 2 -2 5v309q0 5 3.5 7t7.5 -2l74 -72q2 -2 2 -5v-201q0 -3 -2 -5zM118 98q0 -3 -2 -5l-74 -72q-4 -4 -7.5 -2.5t-3.5 6.5v293q0 3 2 5l18 17q5 5 10 0l55 -55q2 -2 2 -5v-182z" />
    <glyph glyph-name="V" unicode="V" horiz-adv-x="439" 
d="M405 317q0 -4 -1 -5q-37 -77 -73 -153.5t-71 -154.5q-2 -4 -6 -4h-22q-7 0 -7 7v124q0 2 5.5 14.5t13.5 31t18.5 40t20.5 41.5l27 58q0 4 4 4l73 26q7 2 9 -5zM389 349q-5 -5 -9 0l-55 55q-2 2 -2 5v204l74 75q4 4 8 2t4 -7v-313zM60 349q-5 -5 -10 0l-17 19q-2 2 -2 5
v310q0 5 3.5 7t7.5 -2l75 -75v-204q0 -3 -2 -5zM215 7q0 -7 -7 -7h-22q-4 0 -6 4l-144 308v5l8 24q2 7 9 5l75 -27l29 -61q9 -19 19.5 -40.5t19 -40.5t14 -32t5.5 -14v-124z" />
    <glyph glyph-name="W" unicode="W" horiz-adv-x="498" 
d="M444 349q-5 -5 -10 0l-55 55q-2 2 -2 5v201q0 3 2 5l73 73q4 4 8 2t4 -7v-310q0 -3 -2 -5zM464 25q0 -5 -4 -6.5t-8 2.5l-73 73q-2 2 -2 5v182q0 3 2 5l55 55q5 5 10 0l18 -18q2 -2 2 -5v-293zM55 0q-5 0 -6.5 4t1.5 8l74 73q2 2 5 2h237q3 0 5 -2l73 -73q4 -4 2 -8
t-7 -4h-384zM213 99q-7 0 -7 7v212q0 3 2 5l37 36q4 4 9 0l37 -36q2 -2 2 -5v-212q0 -7 -7 -7h-73zM60 349q-5 -5 -10 0l-18 19q-2 2 -2 5v310q0 5 4 7t8 -2l73 -73q2 -2 2 -5v-201q0 -3 -2 -5zM117 99q0 -3 -2 -5l-73 -73q-4 -4 -8 -2.5t-4 6.5v293q0 3 2 5l18 18q5 5 10 0
l55 -55q2 -2 2 -5v-182z" />
    <glyph glyph-name="X" unicode="X" horiz-adv-x="416" 
d="M392 29l-11 -24q-3 -5 -6 -5h-59q-4 0 -6 4t-9.5 22.5t-18.5 44t-23 54.5t-22.5 53.5t-17 40.5l-6.5 16v98q0 7 7 7h38q4 0 6 -4zM203 235l-6.5 -16t-17 -40.5t-22.5 -53.5t-23 -54.5t-18.5 -44t-9.5 -22.5t-6 -4h-59q-5 0 -7 5l-10 24l128 307q2 4 6 4h38q7 0 7 -7v-98z
M203 357q0 -7 -7 -7h-38q-4 0 -6 4l-128 306l10 24q2 5 7 5h59q4 0 6 -4t9.5 -22.5t18.5 -44t23 -54.5t22.5 -53t17 -40.5l6.5 -16.5v-97zM392 660l-128 -306q-2 -4 -6 -4h-38q-7 0 -7 7v97l6.5 16.5t17 40.5t22.5 53t23 54.5t18.5 44t9.5 22.5t6 4h59q5 0 5 -4z" />
    <glyph glyph-name="Y" unicode="Y" 
d="M390 349q-5 -5 -9 0l-55 55q-2 2 -2 5v200q0 3 2 5l73 73q4 4 8 2t4 -7v-310q0 -3 -2 -5zM390 38q-5 -5 -9 0l-55 55q-2 2 -2 5v182q0 3 2 5l55 55q4 4 9 0l19 -18q2 -2 2 -5v-255q0 -3 -2 -5zM354 2q-2 -2 -5 -2h-311q-5 0 -6.5 4t2.5 8l75 74h204q3 0 5 -2l55 -55
q4 -5 0 -9zM327 303q-2 -2 -5 -2h-202q-3 0 -5 2l-36 36q-5 5 0 10l36 37q2 2 5 2h202q3 0 5 -2l36 -37q5 -5 0 -10zM61 349q-5 -5 -10 0l-17 18q-2 2 -2 5v310q0 5 3.5 7t7.5 -2l75 -75v-203q0 -3 -2 -5z" />
    <glyph glyph-name="Z" unicode="Z" horiz-adv-x="422" 
d="M392 29q4 -5 0 -9l-18 -18q-2 -2 -5 -2h-313q-3 0 -5 2l-29 29q-3 3 -1 8l19 43q2 4 6 4h286q3 0 5 -2zM230 296q0 -1 -0.5 -3t-0.5 -3l-86 -189q-2 -4 -6 -4h-80q-10 0 -6 10l97 213l34 20h25q4 0 6 -4zM338 526q-15 -36 -32.5 -74t-31.5 -64v1q-3 -4 -16 -13t-24 -17
l-12 -10h-34q-5 0 -7 5l-8 21l98 213q2 4 6 4h80q10 0 6 -10zM374 607q-2 -4 -6 -4h-287q-2 0 -4 2l-55 55q-5 5 0 10l18 17q2 2 5 2h312q3 0 5 -2l30 -30q3 -3 1 -8z" />
    <glyph glyph-name="a" unicode="a" 
d="M324 74q-2 2 -2 5v199q0 3 2 5l55 55q4 4 9 0l18 -19q2 -2 2 -5v-307q0 -5 -4 -7t-8 2zM408 369q0 -3 -2 -5l-18 -18q-5 -5 -9 0l-55 54q-2 2 -2 5v182q0 2 2 4l72 72q4 4 8 2.5t4 -6.5v-290zM315 599q-2 -2 -5 -2h-181q-1 1 -2 1q-2 0 -2 1l-73 73q-4 4 -2 8t7 4h326
q5 0 7 -4t-2 -8zM118 405q0 -3 -2 -5l-55 -54q-5 -5 -9 0l-18 18q-2 2 -2 5v290q0 5 4 6.5t8 -2.5l72 -72q2 -2 2 -4v-182zM325 301q-2 -2 -5 -2h-200q-3 0 -5 2l-36 36q-5 4 0 9l36 37q2 2 5 2h200q3 0 5 -2l36 -37q5 -5 0 -9zM44 2q-4 -4 -8 -2t-4 7v307q0 3 2 5l18 19
q4 3 9 0l55 -55q2 -2 2 -5v-199q0 -3 -2 -5z" />
    <glyph glyph-name="b" unicode="b" 
d="M353 2q-2 -2 -5 -2h-290q-5 0 -6.5 4t2.5 8l72 72q1 1 2 1t2 1h182q3 0 5 -2l54 -55q5 -5 0 -10zM389 38q-5 -5 -9 0l-55 54q-2 2 -2 5v181q0 3 2 5l55 55q4 4 9 0l19 -19q2 -2 2 -5v-254q0 -3 -2 -5zM389 346q-5 -5 -9 0l-55 54q-2 2 -2 5v182q0 2 2 4l55 55q4 5 9 0
l19 -19q2 -2 2 -4v-254q0 -3 -2 -5zM317 599q-2 -2 -5 -2h-182q-1 1 -2 1q-2 0 -2 1l-19 19q-13 12 -27 26.5t-26 27.5q-3 4 -2 8t6 4h290q3 0 5 -2l18 -19q5 -4 0 -9zM63 346q-5 -5 -9 0l-19 18q-2 2 -2 5v290q0 5 4 6.5t8 -2.5l73 -72q2 -2 2 -4v-182q0 -3 -2 -5zM326 301
q-2 -2 -5 -2h-199q-3 0 -5 2l-37 36q-5 4 0 9l37 37q2 2 5 2h199q3 0 5 -2l37 -37q5 -5 0 -9zM45 19q-4 -3 -8 -1.5t-4 6.5v290q0 3 2 5l19 19q4 3 9 0l55 -55q2 -2 2 -5v-181q0 -3 -2 -5z" />
    <glyph glyph-name="c" unicode="c" horiz-adv-x="405" 
d="M313 598h-184q-4 0 -4 2l-55 55q-5 4 0 9l19 18q0 2 4 2h290q5 0 7 -4t-2 -8zM61 346q-5 -5 -9 0l-18 18q-2 2 -2 5v254q0 2 2 4l18 19q4 5 9 0l55 -55q2 -2 2 -4v-181q0 -3 -2 -5zM388 12q4 -4 2 -8t-7 -4h-290q-4 0 -4 2l-19 17q-5 5 0 10l55 55q0 2 4 2h181q3 0 5 -2z
M61 38q-5 -5 -9 0l-18 18q-2 2 -2 5v254q0 3 2 5l18 18q4 4 9 0l55 -55q2 -2 2 -5v-181q0 -3 -2 -5z" />
    <glyph glyph-name="d" unicode="d" 
d="M44 20q-4 -3 -8 -1.5t-4 6.5v290q0 3 2 5l19 18q4 3 9 0l55 -55q2 -2 2 -5v-181q0 -3 -2 -5zM352 2q-2 -2 -5 -2h-289q-5 0 -7 4t2 8l72 72q1 1 2 1t2 1h182q3 0 5 -2l54 -54q5 -5 0 -10zM388 38q-5 -5 -9 0l-55 54q-2 2 -2 5v181q0 3 2 5l55 55q4 4 9 0l19 -18
q2 -2 2 -5v-254q0 -3 -2 -5zM388 346q-5 -5 -9 0l-55 55q-2 2 -2 5v181q0 2 2 4l55 55q4 5 9 0l19 -19q2 -2 2 -4v-253q0 -3 -2 -5zM316 600q-2 -2 -5 -2h-182q-1 1 -2 1q-2 0 -2 1l-72 72q-4 4 -2 8t7 4h289q3 0 5 -2l18 -18q4 -5 0 -9zM62 346q-5 -5 -9 0l-19 19
q-2 2 -2 5v290q0 5 4 6.5t8 -2.5l73 -73q2 -2 2 -4v-181q0 -3 -2 -5z" />
    <glyph glyph-name="e" unicode="e" horiz-adv-x="412" 
d="M316 600q-2 -2 -5 -2h-181q-3 0 -5 2l-71 73q-4 4 -2.5 8t6.5 4h326q5 0 7 -4t-2 -8zM119 406q0 -3 -2 -5l-54 -55q-5 -5 -9 0l-19 19q-2 2 -2 5v290q0 5 4 6.5t8 -2.5l72 -72q2 -2 2 -4v-182zM362 347q5 -5 0 -9l-36 -36q-2 -2 -5 -2h-200q-3 0 -5 2l-36 36q-5 4 0 9
l36 36q2 2 5 2h200q3 0 5 -2zM119 95l-74 -75q-4 -3 -8 -1.5t-4 6.5v290q0 3 2 5l19 19q4 4 9 0l54 -55q2 -2 2 -5v-184zM58 0q-5 0 -6.5 4t2.5 8l71 73q2 2 5 2h181q3 0 5 -2l73 -73q4 -4 2 -8t-7 -4h-326z" />
    <glyph glyph-name="f" unicode="f" horiz-adv-x="404" 
d="M117 79q0 -3 -2 -5l-72 -72q-4 -4 -8 -2t-4 7v307q0 3 2 5l19 19q4 4 9 0l54 -55q2 -2 2 -5v-199zM324 301q-2 -2 -5 -2h-200q-3 0 -5 2l-36 36q-5 4 0 9l36 37q2 2 5 2h200q3 0 5 -2l36 -37q5 -5 0 -9zM314 599q-2 -2 -5 -2h-181q-4 0 -4 2l-72 73q-4 4 -2.5 8t6.5 4
h326q5 0 7 -4t-2 -8zM117 405q0 -3 -2 -5l-54 -54q-5 -5 -9 0l-19 18q-2 2 -2 5v290q0 5 4 6.5t8 -2.5l72 -72q2 -2 2 -4v-182z" />
    <glyph glyph-name="g" unicode="g" 
d="M353 2q-2 -2 -5 -2h-253q-3 0 -5 2l-19 18q-5 5 0 10l55 54q2 2 5 2h180q3 0 5 -2l55 -54q5 -5 0 -10zM389 38q-5 -5 -9 0l-55 54q-2 2 -2 5v181q0 3 2 5l55 55q4 4 9 0l19 -18q2 -2 2 -5v-254q0 -3 -2 -5zM335 598h-204q-3 0 -5 2l-55 55q-5 4 0 9l19 18q2 2 5 2h310
q5 0 7 -4t-2 -8zM63 38q-5 -5 -9 0l-19 18q-2 2 -2 5v254q0 3 2 5l19 18q4 3 9 0l54 -55q2 -2 2 -5v-181q0 -3 -2 -5zM63 346q-5 -5 -9 0l-19 19q-2 2 -2 5v253q0 2 2 4l19 19q4 4 9 0l54 -55q2 -2 2 -4v-181q0 -3 -2 -5zM326 301q-2 -2 -5 -2h-115q-4 0 -4 2l-36 37
q-5 4 0 9l36 36q0 2 4 2h115q3 0 5 -2l36 -36q5 -5 0 -9z" />
    <glyph glyph-name="h" unicode="h" 
d="M324 77v202q0 3 2 5l54 55q5 3 10 0l18 -19q2 -2 2 -5v-308q0 -5 -4 -7t-8 2zM410 370q0 -3 -2 -5l-18 -19q-5 -5 -10 0l-54 55q-2 2 -2 5v202l74 75q4 4 8 2t4 -7v-308zM120 406q0 -3 -2 -5l-55 -55q-5 -5 -9 0l-18 19q-2 2 -2 5v308q0 5 4 7t8 -2l74 -75v-202zM327 302
q-2 -2 -5 -2h-200q-3 0 -5 2l-36 36q-5 4 0 9l36 36q2 2 5 2h200q3 0 5 -2l36 -36q5 -5 0 -9zM46 2q-4 -4 -8 -2t-4 7v308q0 3 2 5l18 19q4 3 9 0l55 -55q2 -2 2 -5v-199q0 -3 -2 -5z" />
    <glyph glyph-name="i" unicode="i" horiz-adv-x="145" 
d="M93 346q-5 -5 -9 0l-55 55q-2 2 -2 5v217q0 2 2 4l55 55q4 4 9 0l19 -19q2 -2 2 -4v-290q0 -3 -2 -5zM93 2q-5 -5 -9 0l-55 54q-2 2 -2 5v217q0 3 2 5l55 55q4 3 9 0l19 -19q2 -2 2 -5v-290q0 -3 -2 -5z" />
    <glyph glyph-name="j" unicode="j" 
d="M389 346q-5 -5 -9 0l-55 55q-2 2 -2 5v199q0 3 2 5l72 72q4 4 8 2t4 -7v-310zM325 92q-2 2 -2 5v181q0 3 2 5l55 55q4 4 9 0l18 -18q2 -2 2 -5v-290q0 -5 -4 -6.5t-8 1.5zM58 0q-5 0 -7 4t2 8l73 73q1 1 2 1t2 1h181q3 0 5 -2l73 -73q4 -4 2 -8t-7 -4h-326zM45 20
q-4 -3 -8 -1.5t-4 6.5v247q0 5 4 7t8 -2l72 -72q2 -2 2 -5v-103q0 -3 -2 -5z" />
    <glyph glyph-name="k" unicode="k" 
d="M409 7q0 -5 -4 -7t-8 2l-72 72q-2 2 -2 5v199q0 3 2 5l55 55q4 4 9 0l18 -19q2 -2 2 -5v-307zM409 625q-1 -1 -1 -2l-1 -2l-222 -222q-2 -2 -5 -2h-43q-7 0 -7 7v60q0 3 2 5l214 213q2 2 5 2h51q7 0 7 -7v-52zM119 405q0 -3 -2 -5l-55 -54q-5 -5 -9 0l-18 18q-2 2 -2 5
v308q0 5 4 7t8 -2l74 -75v-202zM326 301q-2 -2 -5 -2h-200q-3 0 -5 2l-36 36q-5 4 0 9l36 37q2 2 5 2h200q3 0 5 -2l36 -37q5 -5 0 -9zM119 79q0 -3 -2 -5l-72 -72q-4 -4 -8 -2t-4 7v307q0 3 2 5l18 19q4 3 9 0l55 -55q2 -2 2 -5v-199z" />
    <glyph glyph-name="l" unicode="l" horiz-adv-x="408" 
d="M63 346q-5 -5 -9 0l-19 19q-2 2 -2 5v308q0 5 4 7t8 -2l74 -75v-202q0 -3 -2 -5zM58 0q-5 0 -6.5 4t2.5 8l71 73q2 2 5 2h181q3 0 5 -2l73 -73q4 -4 2 -8t-7 -4h-326zM45 20q-4 -3 -8 -1.5t-4 6.5v290q0 3 2 5l19 19q4 4 9 0l54 -55q2 -2 2 -5v-181q0 -3 -2 -5z" />
    <glyph glyph-name="m" unicode="m" horiz-adv-x="498" 
d="M376 75q-2 2 -2 5v199q0 3 2 5l54 55q5 3 10 0l19 -19q2 -2 2 -5v-308q0 -5 -4 -7t-8 2zM461 370q0 -3 -2 -5l-19 -19q-5 -5 -10 0l-54 55q-2 2 -2 5v181q0 2 2 4l73 73q4 4 8 2.5t4 -6.5v-290zM248 329q-5 -5 -10 0l-36 36q-2 2 -2 5v210q0 7 7 7h73q6 0 6 -7v-210
q0 -1 -0.5 -2.5t-0.5 -2.5zM368 600q-2 -2 -5 -2h-235q-3 0 -5 2l-73 73q-4 4 -2 8t7 4h380q5 0 7 -4t-2 -8zM116 406q0 -3 -2 -5l-54 -55q-5 -5 -10 0l-18 19q-2 2 -2 5v290q0 5 3.5 6.5t7.5 -2.5l73 -73q2 -2 2 -4v-181zM41 2q-4 -4 -7.5 -2t-3.5 7v308q0 3 2 5l18 19
q5 3 10 0l54 -55q2 -2 2 -5v-199q0 -3 -2 -5z" />
    <glyph glyph-name="n" unicode="n" 
d="M390 2q-5 -5 -10 0l-54 54q-2 2 -2 5v217q0 3 2 5l54 55q5 3 10 0l18 -19q2 -2 2 -5v-290q0 -3 -2 -5zM390 346q-5 -5 -10 0l-54 55q-2 2 -2 5v217q0 2 2 4l54 55q5 5 10 0l18 -19q2 -2 2 -4v-290q0 -3 -2 -5zM312 406q0 -7 -6 -7h-31l-142 141q-2 2 -2 5v78q0 6 7 6h26
q2 0 4 -2l142 -142q2 -2 2 -4v-75zM63 346q-5 -5 -9 0l-18 18q-2 2 -2 5v290q0 2 2 4l18 19q4 4 9 0l55 -55q2 -2 2 -4v-217q0 -3 -2 -5zM63 2q-5 -5 -9 0l-18 17q-2 2 -2 5v290q0 3 2 5l18 19q4 3 9 0l55 -55q2 -2 2 -5v-217q0 -3 -2 -5z" />
    <glyph glyph-name="o" unicode="o" 
d="M389 39q-5 -5 -9 0l-55 53q-2 2 -2 5v182q0 3 2 5l55 55q4 4 9 0l19 -19q2 -2 2 -5v-254q0 -3 -2 -5zM389 346q-5 -5 -9 0l-55 55q-2 2 -2 5v182q0 2 2 4l55 54q4 5 9 0l19 -18q2 -2 2 -4v-254q0 -3 -2 -5zM317 600q-2 -2 -5 -2h-182q-1 1 -2 1q-2 0 -2 1l-55 55
q-5 4 0 9l19 19q1 1 2 1t2 1h254q3 0 5 -2l18 -19q4 -5 0 -9zM63 346q-5 -5 -9 0l-19 19q-2 2 -2 5v254q0 2 2 4l19 18q4 4 9 0l55 -54q2 -2 2 -4v-182q0 -3 -2 -5zM63 39q-5 -5 -9 0l-19 17q-2 2 -2 5v254q0 3 2 5l19 19q4 3 9 0l55 -55q2 -2 2 -5v-182q0 -3 -2 -5zM353 2
q-2 -2 -5 -2h-254q-1 1 -2 1q-2 0 -2 1l-19 18q-5 5 0 10l55 55q1 1 2 1t2 1h182q3 0 5 -2l54 -55q5 -5 0 -10z" />
    <glyph glyph-name="p" unicode="p" horiz-adv-x="437" 
d="M388 346q-5 -5 -9 0l-55 55q-2 2 -2 5v181q0 2 2 4l55 55q4 5 9 0l19 -19q2 -2 2 -4v-254q0 -3 -2 -5zM316 600q-2 -2 -5 -2h-182q-1 1 -2 1q-2 0 -2 1l-12 12q-14 13 -31.5 29.5t-28.5 30.5q-3 4 -1.5 8t6.5 4h289q3 0 5 -2l19 -19q5 -4 0 -9zM62 346q-5 -5 -9 0l-19 18
q-2 2 -2 5v290q0 5 4 6.5t8 -2.5l73 -72q2 -2 2 -4v-181q0 -3 -2 -5zM362 346q5 -5 0 -9l-37 -36q-2 -2 -5 -2h-199q-3 0 -5 2l-37 36q-5 4 0 9l37 37q2 2 5 2h199q3 0 5 -2zM44 2q-4 -4 -8 -2t-4 7v307q0 3 2 5l19 19q4 3 9 0l55 -55q2 -2 2 -5v-199q0 -3 -2 -5z" />
    <glyph glyph-name="q" unicode="q" 
d="M324 12q4 -4 2 -8t-7 -4h-224q-1 1 -2 1q-2 0 -2 1l-18 18q-5 5 0 10l55 55q2 2 4 2h115q3 0 5 -2zM411 7q0 -7 -7 -7h-51q-3 0 -5 2l-108 108q-2 2 -2 5v60q0 7 7 7h43q3 0 5 -2l118 -119v-54zM325 161v118q0 3 2 5l54 55q4 4 9 0l19 -19q2 -2 2 -5v-224q0 -5 -4 -6.5
t-8 2.5zM390 346q-5 -5 -9 0l-54 55q-2 2 -2 5v182q0 2 2 4l54 55q4 5 9 0l19 -19q2 -2 2 -4v-254q0 -3 -2 -5zM318 600q-2 -2 -5 -2h-181q-2 0 -4 2l-55 55q-5 4 0 9l18 19q1 1 2 1t2 1h254q3 0 5 -2l19 -19q4 -5 0 -9zM64 346q-5 -5 -9 0l-18 19q-2 2 -2 5v254q0 2 2 4
l18 19q4 4 9 0l55 -55q2 -2 2 -4v-182q0 -3 -2 -5zM64 39q-5 -5 -9 0l-18 17q-2 2 -2 5v254q0 3 2 5l18 19q4 3 9 0l55 -55q2 -2 2 -5v-181q0 -3 -2 -5z" />
    <glyph glyph-name="r" unicode="r" 
d="M410 7q0 -7 -7 -7h-52q-3 0 -5 2l-213 214q-2 2 -2 5v60q0 7 7 7h43q3 0 5 -2l222 -223q2 -2 2 -5v-51zM46 2q-4 -4 -8 -2t-4 7v308q0 3 2 5l18 19q4 3 9 0l55 -55q2 -2 2 -5v-199q0 -3 -2 -5zM317 600q-2 -2 -5 -2h-181q-2 0 -4 2l-73 73q-4 4 -2 8t7 4h289q3 0 5 -2
l19 -19q4 -5 0 -9zM390 346q-5 -5 -10 0l-54 55q-2 2 -2 5v181q0 2 2 4l54 55q5 5 10 0l18 -18q2 -2 2 -4v-257zM363 347q5 -5 0 -9l-36 -36q-2 -2 -5 -2h-200q-3 0 -5 2l-36 36q-5 4 0 9l36 36q2 2 5 2h200q3 0 5 -2zM63 346q-5 -5 -9 0l-18 19q-2 2 -2 5v290q0 5 4 6.5
t8 -2.5l74 -75v-183q0 -3 -2 -5z" />
    <glyph glyph-name="s" unicode="s" 
d="M333 598h-203q-1 1 -2 1q-2 0 -2 1l-55 55q-5 4 0 9l19 18q1 1 2 1t2 1h309q5 0 7 -4t-2 -8zM63 346q-5 -5 -9 0l-19 19q-2 2 -2 5v254q0 2 2 4l19 18q4 4 9 0l54 -55q2 -2 2 -4v-181q0 -3 -2 -5zM326 301q-2 -2 -5 -2h-200q-3 0 -5 2l-36 37q-5 4 0 9l36 36q2 2 5 2h200
q3 0 5 -2l36 -36q5 -5 0 -9zM389 38q-5 -5 -9 0l-55 54q-2 2 -2 5v181q0 3 2 5l55 55q4 4 9 0l19 -18q2 -2 2 -5v-254q0 -3 -2 -5zM353 2q-2 -2 -5 -2h-308q-5 0 -7 4t2 8l72 72q2 2 5 2l19 1h180q3 0 5 -2l55 -55q5 -5 0 -10z" />
    <glyph glyph-name="t" unicode="t" horiz-adv-x="435" 
d="M237 2q-5 -5 -9 0l-55 54q-2 2 -2 5v217q0 3 2 5l55 55q4 3 9 0l19 -18q2 -2 2 -5v-290q0 -3 -2 -5zM237 346q-5 -5 -9 0l-55 55q-2 2 -2 5v176q0 7 7 7h73q7 0 7 -7v-212q0 -3 -2 -5zM414 664q4 -5 0 -9l-54 -55q-2 -2 -5 -2h-280q-3 0 -5 2l-54 55q-5 4 0 9l17 18
q2 2 5 2h356z" />
    <glyph glyph-name="u" unicode="u" 
d="M57 0q-5 0 -7 4t2 8l72 72q2 2 5 2h181q3 0 5 -2l72 -72q4 -4 2 -8t-7 -4h-325zM408 25q0 -5 -4 -6.5t-8 1.5l-73 72q-2 2 -2 5v181q0 3 2 5l55 55q4 4 9 0l19 -18q2 -2 2 -5v-290zM387 346q-5 -5 -9 0l-55 55q-2 2 -2 5v199q0 3 2 5l73 72q4 4 8 2t4 -7v-307q0 -3 -2 -5
zM61 346q-5 -5 -9 0l-19 19q-2 2 -2 5v307q0 5 4 7t8 -2l73 -72q2 -2 2 -5v-199q0 -3 -2 -5zM118 97q0 -3 -2 -5l-73 -72q-4 -3 -8 -1.5t-4 6.5v290q0 3 2 5l19 18q4 3 9 0l55 -55q2 -2 2 -5v-181z" />
    <glyph glyph-name="v" unicode="v" horiz-adv-x="439" 
d="M403 314q0 -4 -1 -5q-37 -76 -72.5 -152t-70.5 -153q-2 -4 -6 -4h-22q-7 0 -7 7v123q0 2 5 14.5t13.5 30.5t18.5 39.5t20 41.5l27 57q0 4 4 4l73 26q7 2 9 -4zM387 346q-5 -5 -9 0l-55 55q-2 2 -2 5v202l74 75q4 4 8 2t4 -7v-311zM60 346q-5 -5 -9 0l-18 19q-2 2 -2 5
v308q0 5 4 7t8 -2l74 -75v-202q0 -3 -2 -5zM214 7q0 -7 -7 -7h-22q-4 0 -6 4l-142 305q0 1 -0.5 2.5t-0.5 2.5l9 25q2 6 9 4l74 -27l29 -60q9 -19 19 -40.5t18.5 -40t14 -31.5t5.5 -14v-123z" />
    <glyph glyph-name="w" unicode="w" horiz-adv-x="498" 
d="M441 346q-5 -5 -10 0l-54 55q-2 2 -2 5v199q0 3 2 5l73 73q4 4 8 2t4 -7v-308q0 -3 -2 -5zM462 25q0 -5 -4 -6.5t-8 1.5l-73 73q-2 2 -2 5v181q0 3 2 5l54 55q5 3 10 0l19 -19q2 -2 2 -5v-290zM56 0q-5 0 -7 4t2 8l73 73q2 2 5 2h235q3 0 5 -2l72 -73q4 -4 2 -8t-7 -4
h-380zM213 98q-7 0 -7 7v210q0 3 2 5l36 36q4 4 9 0l36 -36q2 -2 2 -5v-210q0 -7 -6 -7h-72zM61 346q-5 -5 -10 0l-18 19q-2 2 -2 5v308q0 5 3.5 7t7.5 -2l73 -73q2 -2 2 -5v-199q0 -3 -2 -5zM117 98q0 -3 -2 -5l-73 -73q-4 -3 -7.5 -1.5t-3.5 6.5v290q0 3 2 5l18 19
q5 3 10 0l54 -55q2 -2 2 -5v-181z" />
    <glyph glyph-name="x" unicode="x" horiz-adv-x="416" 
d="M390 29l-11 -24q-3 -5 -6 -5h-59q-4 0 -6 4t-9.5 22t-18.5 43.5t-23 54t-22 53t-16.5 40.5l-6.5 16v98q0 7 7 7h38q4 0 6 -4zM202 233l-6.5 -16t-16.5 -40.5t-22 -53t-23 -54t-18.5 -43.5t-9.5 -22t-6 -4h-58q-5 0 -7 5l-11 24l128 305q2 4 6 4h37q7 0 7 -7v-98zM202 354
q0 -7 -7 -7h-37q-4 0 -6 4l-128 304l11 24q2 5 7 5h58q4 0 6 -4t9.5 -22.5t18.5 -44t23 -54t22 -53t16.5 -40.5l6.5 -16v-96zM390 655l-127 -304q-2 -4 -6 -4h-38q-7 0 -7 7v96l6.5 16t16.5 40.5t22 53t23 54t18.5 44t9.5 22.5t6 4h59q3 0 5 -4z" />
    <glyph glyph-name="y" unicode="y" 
d="M388 346q-5 -5 -9 0l-55 55q-2 2 -2 5v198q0 3 2 5l73 73q4 4 8 2t4 -7v-308q0 -3 -2 -5zM388 38q-5 -5 -9 0l-55 54q-2 2 -2 5v181q0 3 2 5l55 55q4 4 9 0l19 -19q2 -2 2 -5v-253q0 -3 -2 -5zM352 2q-2 -2 -5 -2h-308q-5 0 -7 4t2 8l75 74h202q3 0 5 -2l55 -55
q5 -5 0 -10zM325 301q-2 -2 -5 -2h-200q-3 0 -5 2l-36 36q-5 4 0 9l36 37q2 2 5 2h200q3 0 5 -2l36 -37q5 -5 0 -9zM61 346q-5 -5 -9 0l-18 18q-2 2 -2 5v308q0 5 4 7t8 -2l74 -75v-201q0 -3 -2 -5z" />
    <glyph glyph-name="z" unicode="z" horiz-adv-x="422" 
d="M390 29q5 -5 0 -10l-18 -17q-2 -2 -5 -2h-311q-3 0 -5 2l-29 29q-3 3 -1 8l20 43q2 4 6 4h284q3 0 5 -2zM229 294v-6l-86 -188q-2 -4 -6 -4h-80q-8 0 -6 10l97 211l34 21h24q4 0 6 -4zM337 522q-16 -35 -33.5 -73.5t-31.5 -63.5v1q-3 -4 -15.5 -13t-23.5 -17l-12 -10h-33
q-5 0 -7 5l-9 21l97 212q2 4 6 4h80q10 0 6 -10zM372 602q-2 -4 -6 -4h-284q-3 0 -5 2l-55 55q-5 4 0 9l19 18q2 2 5 2h309q3 0 5 -2l30 -30q3 -3 1 -8z" />
  </font>
</defs>
</svg>
