<?xml version="1.0" standalone="no"?>
<!DOCTYPE svg PUBLIC "-//W3C//DTD SVG 1.1//EN" "http://www.w3.org/Graphics/SVG/1.1/DTD/svg11.dtd" >
<svg xmlns="http://www.w3.org/2000/svg" xmlns:xlink="http://www.w3.org/1999/xlink" version="1.1">
<metadata>
Created by FontForge 20170731 at Tue Nov  2 15:29:41 2021
 By Aleksey,,,
Copyright (c) 2017 Toyota Motor Sales, U.S.A., Inc. All rights reserved.
</metadata>
<defs>
<font id="ToyotaType-Regular" horiz-adv-x="0" >
  <font-face 
    font-family="Toyota Type"
    font-weight="400"
    font-stretch="normal"
    units-per-em="2048"
    panose-1="2 11 6 2 2 2 2 2 2 4"
    ascent="1638"
    descent="-410"
    x-height="1032"
    cap-height="1454"
    bbox="-987 -475 8856 2271"
    underline-thickness="159"
    underline-position="-345"
    unicode-range="U+000D-FEFF"
  />
<missing-glyph horiz-adv-x="1228" 
d="M61 -430v1970h1106v-1970h-1106zM205 -287h819v1684h-819v-1684z" />
    <glyph glyph-name="f_f" unicode="ff" horiz-adv-x="1413" 
d="M229 0v866h-178v166h178v162q0 179 81 266.5t222 87.5q111 0 207 -47l-39 -168q-68 39 -137 39q-68 0 -103.5 -44t-35.5 -144v-152h246v-166h-246v-866h-195zM936 0v866h-178v166h178v162q0 179 81 266.5t222 87.5q111 0 207 -47l-39 -168q-68 39 -137 39q-68 0 -104 -44
t-36 -144v-152h246v-166h-246v-866h-194z" />
    <glyph glyph-name="f_i" unicode="fi" horiz-adv-x="1251" 
d="M229 0v866h-178v166h178v162q0 179 81 266.5t222 87.5q111 0 207 -47l-39 -168q-68 39 -137 39q-68 0 -103.5 -44t-35.5 -144v-152h246v-166h-246v-866h-195zM987 1233q-55 0 -93 37.5t-38 93.5t38 93.5t93 37.5t92 -37.5t37 -93.5t-37 -93.5t-92 -37.5zM887 0v1032h194
v-1032h-194z" />
    <glyph glyph-name="f_l" unicode="fl" horiz-adv-x="1341" 
d="M229 0v866h-178v166h178v162q0 179 81 266.5t222 87.5q111 0 207 -47l-39 -168q-68 39 -137 39q-68 0 -103.5 -44t-35.5 -144v-152h246v-166h-246v-866h-195zM1137 -20q-116 0 -179 67.5t-63 204.5v1288h195v-1257q0 -129 98 -129q52 0 100 24l27 -160q-78 -38 -178 -38z
" />
    <glyph glyph-name="f_f_i" unicode="ffi" horiz-adv-x="1957" 
d="M229 0v866h-178v166h178v162q0 179 81 266.5t222 87.5q111 0 207 -47l-39 -168q-68 39 -137 39q-68 0 -103.5 -44t-35.5 -144v-152h246v-166h-246v-866h-195zM936 0v866h-178v166h178v162q0 179 81 266.5t222 87.5q111 0 207 -47l-39 -168q-68 39 -137 39q-68 0 -104 -44
t-36 -144v-152h246v-166h-246v-866h-194zM1694 1233q-56 0 -93.5 37.5t-37.5 93.5t37.5 93.5t93.5 37.5q55 0 92 -37.5t37 -93.5t-37 -93.5t-92 -37.5zM1593 0v1032h195v-1032h-195z" />
    <glyph glyph-name="f_f_l" unicode="ffl" horiz-adv-x="2048" 
d="M229 0v866h-178v166h178v162q0 179 81 266.5t222 87.5q111 0 207 -47l-39 -168q-68 39 -137 39q-68 0 -103.5 -44t-35.5 -144v-152h246v-166h-246v-866h-195zM936 0v866h-178v166h178v162q0 179 81 266.5t222 87.5q111 0 207 -47l-39 -168q-68 39 -137 39q-68 0 -104 -44
t-36 -144v-152h246v-166h-246v-866h-194zM1843 -20q-116 0 -178.5 67t-62.5 205v1288h194v-1257q0 -129 98 -129q53 0 101 24l26 -160q-78 -38 -178 -38z" />
    <glyph glyph-name=".notdef" horiz-adv-x="1228" 
d="M61 -430v1970h1106v-1970h-1106zM205 -287h819v1684h-819v-1684z" />
    <glyph glyph-name="uni0000" 
 />
    <glyph glyph-name="nonmarkingreturn" horiz-adv-x="682" 
 />
    <glyph glyph-name="NULL" horiz-adv-x="1228" 
 />
    <glyph glyph-name="NULL" horiz-adv-x="1228" 
 />
    <glyph glyph-name="CR" unicode="&#xd;" horiz-adv-x="499" 
 />
    <glyph glyph-name="space" unicode=" " horiz-adv-x="499" 
 />
    <glyph glyph-name="exclam" unicode="!" horiz-adv-x="655" 
d="M244 473l-35 981h231l-34 -981h-162zM328 -27q-55 0 -93 38.5t-38 92.5q0 56 38 94t93 38t93 -38t38 -94q0 -54 -38 -92.5t-93 -38.5z" />
    <glyph glyph-name="quotedbl" unicode="&#x22;" horiz-adv-x="782" 
d="M137 971l-28 483h196l-31 -483h-137zM506 971l-29 483h197l-31 -483h-137z" />
    <glyph glyph-name="numbersign" unicode="#" horiz-adv-x="1396" 
d="M1335 936h-311l-72 -416h279v-149h-305l-66 -371h-153l65 371h-274l-66 -371h-151l65 371h-285v149h312l71 416h-280v149h307l66 369h153l-65 -369h274l66 369h151l-65 -369h284v-149zM799 520l73 416h-274l-74 -416h275z" />
    <glyph glyph-name="dollar" unicode="$" horiz-adv-x="1204" 
d="M1085 424q0 -175 -106 -282.5t-299 -129.5v-168h-143v166q-121 7 -231.5 44.5t-194.5 97.5l57 180q69 -55 166 -93.5t203 -48.5v465q-61 17 -108.5 34t-106 50t-97 72t-65.5 100.5t-27 135.5q0 165 109 267.5t295 123.5v155h143v-153q195 -12 352 -97l-53 -176
q-159 81 -299 97v-445q74 -21 124.5 -39.5t108 -51.5t92 -71.5t57.5 -98t23 -134.5zM330 1065q0 -77 52.5 -122.5t154.5 -80.5v402q-96 -12 -151.5 -63.5t-55.5 -135.5zM680 190q211 24 211 211q0 83 -50.5 130t-160.5 83v-424z" />
    <glyph glyph-name="percent" unicode="%" horiz-adv-x="1595" 
d="M385 692q-148 0 -233.5 103.5t-85.5 283.5t85.5 283.5t233.5 103.5t234 -103.5t86 -283.5t-86 -283.5t-234 -103.5zM274 0l883 1454h166l-885 -1454h-164zM385 831q158 0 158 248q0 250 -158 250t-158 -250q0 -248 158 -248zM1210 -12q-149 0 -235 103.5t-86 283.5
t86 283.5t235 103.5q148 0 234 -103.5t86 -283.5t-86 -283.5t-234 -103.5zM1210 125q158 0 158 250q0 248 -158 248q-159 0 -159 -248q0 -250 159 -250z" />
    <glyph glyph-name="ampersand" unicode="&#x26;" horiz-adv-x="1443" 
d="M1423 0h-254l-153 162q-211 -185 -479 -185q-207 0 -340.5 106.5t-133.5 278.5q0 139 79.5 236t267.5 203q-91 95 -137 174.5t-46 175.5q0 62 25 120t70.5 104.5t118.5 74t161 27.5q160 0 267.5 -96t107.5 -222q0 -108 -66 -203t-225 -190l322 -336q112 160 180 391
l178 -88q-79 -252 -225 -438zM604 1315q-87 0 -135.5 -49t-48.5 -121q0 -65 31 -115.5t116 -140.5q130 74 174.5 133.5t44.5 128.5q0 65 -50.5 114.5t-131.5 49.5zM549 158q187 0 340 137l-363 383q-147 -87 -199.5 -152t-52.5 -151q0 -101 77 -159t198 -58z" />
    <glyph glyph-name="quotesingle" unicode="'" horiz-adv-x="413" 
d="M137 971l-28 483h196l-31 -483h-137z" />
    <glyph glyph-name="parenleft" unicode="(" horiz-adv-x="753" 
d="M668 -262q-103 0 -186 32.5t-141.5 93.5t-100.5 141t-66.5 183t-35.5 212t-11 235q0 152 16 280.5t55 246t99.5 199.5t155 130.5t215.5 48.5v-156q-72 0 -129 -27.5t-96 -80t-66 -119t-42 -154t-21.5 -176t-6.5 -192.5t6.5 -191.5t21.5 -174t42 -152.5t66 -117.5
t96 -78.5t129 -27v-156z" />
    <glyph glyph-name="parenright" unicode=")" horiz-adv-x="753" 
d="M86 -262v156q72 0 129 27t95.5 78.5t66 117.5t42 152.5t21 174t6.5 191.5t-6.5 192.5t-21 176t-42 154t-66 119t-95.5 80t-129 27.5v156q121 0 215 -48.5t154.5 -130.5t100 -199.5t55.5 -246.5t16 -280q0 -152 -16 -279.5t-54.5 -244t-99 -197.5t-155 -128.5
t-216.5 -47.5z" />
    <glyph glyph-name="asterisk" unicode="*" horiz-adv-x="862" 
d="M291 760l-139 100l178 205l-264 61l53 164l250 -106l-25 270h174l-24 -270l249 106l54 -164l-265 -61l179 -205l-140 -100l-139 231z" />
    <glyph glyph-name="plus" unicode="+" horiz-adv-x="1200" 
d="M1061 799v-162h-381v-381h-162v381h-379v162h379v379h162v-379h381z" />
    <glyph glyph-name="comma" unicode="," horiz-adv-x="604" 
d="M68 -291l176 508h209l-205 -508h-180z" />
    <glyph glyph-name="hyphen" unicode="-" horiz-adv-x="905" 
d="M98 475v166h709v-166h-709z" />
    <glyph glyph-name="period" unicode="." horiz-adv-x="604" 
d="M303 -27q-55 0 -93 38.5t-38 92.5q0 56 38 94t93 38q54 0 92.5 -38.5t38.5 -93.5q0 -54 -38.5 -92.5t-92.5 -38.5z" />
    <glyph glyph-name="slash" unicode="/" horiz-adv-x="903" 
d="M20 -344l687 1884h176l-686 -1884h-177z" />
    <glyph glyph-name="zero" unicode="0" horiz-adv-x="1200" 
d="M600 -20q-111 0 -195.5 36.5t-139 100.5t-89.5 159.5t-49 204t-14 242.5q0 135 14.5 245t49.5 206t90 161t139.5 102.5t193.5 37.5q110 0 194.5 -37.5t139 -103t89.5 -162t49.5 -206t14.5 -243.5q0 -135 -14.5 -244t-49.5 -203.5t-90 -158.5t-139 -100.5t-194 -36.5z
M600 164q61 0 107.5 19.5t77 58.5t51 87t31 115t14.5 132t4 149q0 103 -6 179.5t-24 152.5t-48.5 124.5t-82.5 78.5t-124 30t-124 -30t-82 -78t-48 -124.5t-23.5 -153t-5.5 -179.5q0 -72 2.5 -129.5t10.5 -117.5t21 -105t34.5 -86t51 -67t70.5 -41t93 -15z" />
    <glyph glyph-name="one" unicode="1" horiz-adv-x="919" 
d="M553 1466h80v-1466h-203v1192l-313 -203v197z" />
    <glyph glyph-name="two" unicode="2" horiz-adv-x="1200" 
d="M127 0v123l471 530q121 135 174 226.5t53 183.5q0 100 -63 162.5t-184 62.5q-195 0 -357 -182l-90 162q85 97 204 152t257 55q200 0 319 -113t119 -281q0 -69 -20.5 -135t-65 -135.5t-89 -125t-116.5 -136.5l-321 -367h659v-182h-950z" />
    <glyph glyph-name="three" unicode="3" horiz-adv-x="1200" 
d="M573 -23q-160 0 -279 54.5t-194 144.5l101 166q159 -180 370 -180q136 0 218.5 71.5t82.5 188.5q0 128 -107 193t-300 65v168q89 1 158 22t108.5 57t59.5 78.5t20 90.5q0 89 -62 142.5t-171 53.5q-175 0 -347 -164l-90 160q199 187 455 187q183 0 299.5 -98.5
t116.5 -252.5q0 -122 -71 -210.5t-204 -131.5q165 -39 250.5 -135t85.5 -237q0 -188 -139 -310.5t-361 -122.5z" />
    <glyph glyph-name="four" unicode="4" horiz-adv-x="1200" 
d="M709 0v307h-646v135l672 1012h176v-975h199v-172h-199v-307h-202zM274 479h435v658z" />
    <glyph glyph-name="five" unicode="5" horiz-adv-x="1200" 
d="M559 -23q-155 0 -270 51.5t-187 139.5l101 166q138 -172 344 -172q145 0 232 78.5t87 208.5q0 126 -82 198t-225 72q-138 0 -240 -72l-118 47l80 760h739v-182h-586l-43 -416q81 43 201 43q216 0 345.5 -122.5t129.5 -327.5q0 -212 -140 -342t-368 -130z" />
    <glyph glyph-name="six" unicode="6" horiz-adv-x="1200" 
d="M662 926q193 0 317.5 -129.5t124.5 -333.5t-139 -343.5t-347 -139.5q-109 0 -202.5 40t-165.5 116.5t-113 198.5t-41 277q0 145 30.5 270.5t98.5 234t169 186t249.5 121.5t333.5 44l41 -172q-634 0 -719 -524q64 69 157.5 111.5t205.5 42.5zM614 156q128 0 210.5 87
t82.5 218q0 133 -79.5 217t-209.5 84q-108 0 -197 -54.5t-134 -132.5q4 -209 95 -314t232 -105z" />
    <glyph glyph-name="seven" unicode="7" horiz-adv-x="1200" 
d="M274 0l580 1272h-743v182h968v-125l-587 -1329h-218z" />
    <glyph glyph-name="eight" unicode="8" horiz-adv-x="1200" 
d="M600 -20q-213 0 -354.5 124t-141.5 306q0 129 74 230t215 151q-105 44 -163 126t-58 187q0 158 120 264.5t308 106.5t307 -106.5t119 -264.5q0 -105 -57 -187t-162 -126q141 -50 215 -151t74 -230q0 -182 -141.5 -306t-354.5 -124zM602 879q103 0 167.5 61.5t64.5 153.5
q0 89 -66 150t-166 61t-164.5 -61t-64.5 -150q0 -92 64 -153.5t165 -61.5zM602 152q123 0 207 77t84 191q0 115 -84 193.5t-207 78.5q-122 0 -206.5 -79t-84.5 -193t84.5 -191t206.5 -77z" />
    <glyph glyph-name="nine" unicode="9" horiz-adv-x="1200" 
d="M584 1475q105 0 197 -40t164.5 -116t114.5 -198.5t42 -276.5q0 -145 -29.5 -271t-95.5 -235t-163.5 -186.5t-240 -121.5t-319.5 -44l-41 172q611 0 688 524q-63 -71 -154.5 -114.5t-203.5 -43.5q-196 0 -321.5 131.5t-125.5 335.5t139.5 344t348.5 140zM580 692
q105 0 196 53t135 140q-9 204 -97 308.5t-222 104.5q-133 0 -216 -86t-83 -217q0 -134 79.5 -218.5t207.5 -84.5z" />
    <glyph glyph-name="colon" unicode=":" horiz-adv-x="604" 
d="M303 713q-55 0 -93 37.5t-38 93.5t38 93.5t93 37.5q54 0 92.5 -38t38.5 -93t-38.5 -93t-92.5 -38zM303 -27q-55 0 -93 38.5t-38 92.5q0 56 38 94t93 38q54 0 92.5 -38.5t38.5 -93.5q0 -54 -38.5 -92.5t-92.5 -38.5z" />
    <glyph glyph-name="semicolon" unicode=";" horiz-adv-x="604" 
d="M303 713q-55 0 -93 38.5t-38 92.5q0 56 38 93.5t93 37.5q54 0 92.5 -38t38.5 -93q0 -54 -38.5 -92.5t-92.5 -38.5zM57 -291l176 508h209l-204 -508h-181z" />
    <glyph glyph-name="less" unicode="&#x3c;" horiz-adv-x="1200" 
d="M1061 1135v-162l-789 -256l789 -256v-162l-922 317v201z" />
    <glyph glyph-name="equal" unicode="=" horiz-adv-x="1200" 
d="M139 846v162h922v-162h-922zM139 428v160h922v-160h-922z" />
    <glyph glyph-name="greater" unicode="&#x3e;" horiz-adv-x="1200" 
d="M139 1135l922 -318v-201l-922 -317v162l789 256l-789 256v162z" />
    <glyph glyph-name="question" unicode="?" horiz-adv-x="1032" 
d="M422 479q0 78 30 140.5t134 181.5q88 101 122.5 159.5t34.5 133.5q0 93 -59 148.5t-170 55.5q-107 0 -174 -57t-94 -149l-154 92q36 128 149 210.5t285 82.5q188 0 301 -104.5t113 -264.5q0 -116 -46.5 -201t-135.5 -176q-89 -94 -124.5 -149.5t-37.5 -102.5h-174z
M516 -27q-54 0 -92.5 38.5t-38.5 92.5q0 55 38.5 93.5t92.5 38.5q56 0 94.5 -38.5t38.5 -93.5q0 -54 -39 -92.5t-94 -38.5z" />
    <glyph glyph-name="at" unicode="@" horiz-adv-x="1996" 
d="M1743 164h-471v172q-96 -186 -320 -186q-189 0 -315.5 135.5t-126.5 332.5t126 333t316 136q222 0 320 -192v172h172v-754h201q86 153 86 351q0 192 -97 351t-264.5 249t-368.5 90q-153 0 -290 -57.5t-235 -155.5t-155 -233t-57 -285q0 -151 57 -286.5t154.5 -234
t234.5 -156t291 -57.5q118 0 230.5 29.5t195.5 79.5l25 -152q-73 -45 -196.5 -75.5t-254.5 -30.5q-185 0 -350.5 69.5t-283.5 187.5t-187 281t-69 345t69 344.5t187 279.5t283.5 185.5t350.5 68.5q182 0 345.5 -64.5t282 -175t188 -265.5t69.5 -328q0 -142 -40.5 -275.5
t-102.5 -228.5zM977 313q123 0 209 90t86 220q0 129 -86 217t-209 88t-207 -88.5t-84 -216.5q0 -129 84 -219.5t207 -90.5z" />
    <glyph glyph-name="A" unicode="A" horiz-adv-x="1396" 
d="M1141 0l-162 442h-567l-162 -442h-213l549 1454h225l551 -1454h-221zM473 614h442l-221 607z" />
    <glyph glyph-name="B" unicode="B" horiz-adv-x="1282" 
d="M891 762q129 -28 206 -123t77 -233q0 -183 -120.5 -294.5t-328.5 -111.5h-530v1454h452q205 0 322.5 -101t117.5 -270q0 -218 -196 -321zM406 1276v-461h235q112 0 180 69t68 171t-69.5 161.5t-194.5 59.5h-219zM694 178q128 0 199.5 65.5t71.5 178.5q0 106 -67 164.5
t-183 58.5h-309v-467h288z" />
    <glyph glyph-name="C" unicode="C" horiz-adv-x="1456" 
d="M868 -20q-216 0 -387.5 95.5t-267.5 266.5t-96 387q0 217 98 387.5t270.5 264.5t388.5 94q270 0 484 -152l-70 -193q-187 146 -407 146q-160 0 -285 -70.5t-193.5 -194.5t-68.5 -280q0 -240 153 -396.5t394 -156.5q232 0 438 152l61 -189q-220 -161 -512 -161z" />
    <glyph glyph-name="D" unicode="D" horiz-adv-x="1548" 
d="M690 1454q336 0 539 -197t203 -520q0 -332 -203 -534.5t-539 -202.5h-495v1454h495zM668 186q253 0 399.5 147.5t146.5 401.5q0 246 -146 389.5t-398 143.5h-264v-1082h262z" />
    <glyph glyph-name="E" unicode="E" horiz-adv-x="1187" 
d="M195 0v1454h831v-186h-620v-449h600v-182h-600v-451h634v-186h-845z" />
    <glyph glyph-name="F" unicode="F" horiz-adv-x="1103" 
d="M195 0v1454h825v-186h-614v-453h585v-186h-585v-629h-211z" />
    <glyph glyph-name="G" unicode="G" horiz-adv-x="1658" 
d="M852 721h659v-721h-192v231q-64 -103 -193.5 -177t-308.5 -74q-201 0 -360.5 95t-249.5 265.5t-90 384.5q0 163 58 304t158.5 238t239.5 152.5t297 55.5q288 0 545 -175l-76 -194q-110 83 -222 126.5t-245 43.5q-234 0 -386 -151.5t-152 -399.5q0 -245 141.5 -396
t366.5 -151q103 0 191 32.5t145.5 86.5t91.5 119t39 133h-457v172z" />
    <glyph glyph-name="H" unicode="H" horiz-adv-x="1558" 
d="M1153 1454h209v-1454h-209v635h-747v-635h-211v1454h211v-633h747v633z" />
    <glyph glyph-name="I" unicode="I" horiz-adv-x="600" 
d="M195 0v1454h211v-1454h-211z" />
    <glyph glyph-name="J" unicode="J" horiz-adv-x="843" 
d="M233 -20q-128 0 -231 43l37 184q83 -39 168 -39q117 0 183.5 85t66.5 255v946h211v-971q0 -243 -115.5 -373t-319.5 -130z" />
    <glyph glyph-name="K" unicode="K" horiz-adv-x="1323" 
d="M1313 0h-271l-636 737v-737h-211v1454h211v-713l600 713h251l-602 -702z" />
    <glyph glyph-name="L" unicode="L" horiz-adv-x="1067" 
d="M406 190h620v-190h-831v1454h211v-1264z" />
    <glyph glyph-name="M" unicode="M" horiz-adv-x="1804" 
d="M195 0v1454h260l442 -721l459 721h252v-1454h-207v1169l-426 -677h-158l-416 677v-1169h-206z" />
    <glyph glyph-name="N" unicode="N" horiz-adv-x="1593" 
d="M1196 1454h203v-1454h-199l-803 1126v-1126h-202v1454h200l801 -1130v1130z" />
    <glyph glyph-name="O" unicode="O" horiz-adv-x="1753" 
d="M874 -20q-214 0 -386.5 94.5t-271.5 266t-99 386.5q0 216 98.5 387t272 266t389.5 95q215 0 387.5 -95t271 -265.5t98.5 -385.5q0 -161 -58 -300.5t-158.5 -238t-241.5 -154.5t-302 -56zM877 178q155 0 279 71t193.5 196.5t69.5 281.5q0 238 -153 393.5t-389 155.5
t-390.5 -155.5t-154.5 -393.5q0 -156 70 -281.5t195 -196.5t280 -71z" />
    <glyph glyph-name="P" unicode="P" horiz-adv-x="1216" 
d="M641 1454q236 0 365 -125t129 -330q0 -93 -32.5 -177t-93 -150t-156 -105t-212.5 -39h-235v-528h-211v1454h446zM606 705q136 0 224 78.5t88 215.5q0 145 -84.5 211t-227.5 66h-200v-571h200z" />
    <glyph glyph-name="Q" unicode="Q" horiz-adv-x="1757" 
d="M1634 729q0 -159 -54.5 -294.5t-154.5 -235.5l209 -222h-250l-102 109q-182 -106 -408 -106q-214 0 -386.5 94.5t-271.5 266t-99 386.5q0 216 98.5 387t272 266t389.5 95q215 0 387.5 -95t271 -265.5t98.5 -385.5zM877 178q139 0 260 62l-244 256h250l137 -146
q139 152 139 377q0 238 -153 393.5t-389 155.5t-390.5 -155.5t-154.5 -393.5q0 -156 70 -281.5t195 -196.5t280 -71z" />
    <glyph glyph-name="R" unicode="R" horiz-adv-x="1310" 
d="M1257 0h-247l-371 590h-18h-215v-590h-211v1454h458q218 0 344.5 -115.5t126.5 -304.5q0 -138 -74 -246.5t-208 -160.5zM406 1276v-516h217q122 0 203 66t81 196t-78.5 192t-201.5 62h-221z" />
    <glyph glyph-name="S" unicode="S" horiz-adv-x="1200" 
d="M584 -20q-129 0 -251 38t-216 107l57 197q86 -69 198 -111.5t226 -42.5q127 0 197.5 57.5t70.5 163.5q0 26 -4.5 48t-17 41.5t-24 34.5t-36 30.5t-43 26t-55 26t-60.5 25t-71 26.5q-76 28 -129 52t-108.5 60.5t-89 78t-55 100t-21.5 129.5q0 189 131.5 299.5t347.5 110.5
q108 0 215 -28t184 -71l-55 -186q-75 43 -168 69.5t-180 26.5q-122 0 -194.5 -55t-72.5 -148q0 -41 15.5 -75t38.5 -58t67 -48.5t82 -40.5t103 -40q171 -64 235 -102q130 -77 162 -204q12 -48 12 -107q0 -202 -134 -316t-357 -114z" />
    <glyph glyph-name="T" unicode="T" horiz-adv-x="1095" 
d="M1049 1454v-186h-394v-1268h-209v1268h-399v186h1002z" />
    <glyph glyph-name="U" unicode="U" horiz-adv-x="1515" 
d="M758 -20q-267 0 -420.5 151t-153.5 406v917h209v-887q0 -191 99.5 -290t265.5 -99t265 98.5t99 290.5v887h209v-917q0 -255 -153 -406t-420 -151z" />
    <glyph glyph-name="V" unicode="V" horiz-adv-x="1304" 
d="M1081 1454h222l-539 -1454h-223l-539 1454h225l428 -1202z" />
    <glyph glyph-name="W" unicode="W" horiz-adv-x="2037" 
d="M1792 1454h211l-422 -1454h-217l-344 1155l-346 -1155h-217l-420 1454h225l322 -1165l342 1165h209l340 -1157z" />
    <glyph glyph-name="X" unicode="X" horiz-adv-x="1355" 
d="M1292 0h-243l-369 573l-369 -573h-231l485 737l-471 717h244l350 -551l363 551h223l-473 -713z" />
    <glyph glyph-name="Y" unicode="Y" horiz-adv-x="1214" 
d="M1217 1454l-506 -876v-578h-207v575l-506 879h231l389 -682l388 682h211z" />
    <glyph glyph-name="Z" unicode="Z" horiz-adv-x="1259" 
d="M408 186h739v-186h-1026v113l735 1155h-709v186h992v-113z" />
    <glyph glyph-name="bracketleft" unicode="[" horiz-adv-x="753" 
d="M668 1386h-295v-1499h295v-153h-473v1806h473v-154z" />
    <glyph glyph-name="backslash" unicode="\" horiz-adv-x="903" 
d="M707 -344l-687 1884h177l686 -1884h-176z" />
    <glyph glyph-name="bracketright" unicode="]" horiz-adv-x="753" 
d="M559 1540v-1806h-473v153h295v1499h-295v154h473z" />
    <glyph glyph-name="asciicircum" unicode="^" horiz-adv-x="876" 
d="M856 532h-162l-256 787l-258 -787h-160l318 922h201z" />
    <glyph glyph-name="underscore" unicode="_" horiz-adv-x="921" 
d="M-10 -281v93h942v-93h-942z" />
    <glyph glyph-name="grave" unicode="`" horiz-adv-x="819" 
d="M838 1178l-256 321h192l236 -321h-172z" />
    <glyph glyph-name="a" unicode="a" horiz-adv-x="1179" 
d="M594 1053q202 0 314 -102t112 -306v-645h-195v160q-52 -82 -147 -131t-221 -49q-160 0 -252 82t-92 223q0 177 165 253.5t547 79.5v23q0 115 -67.5 180.5t-196.5 65.5q-168 0 -330 -117l-49 162q76 52 183 86.5t229 34.5zM516 129q55 0 108 16t99 47t74 85.5t28 123.5v88
q-193 -2 -304.5 -23t-158.5 -62t-47 -109q0 -77 52.5 -121.5t148.5 -44.5z" />
    <glyph glyph-name="b" unicode="b" horiz-adv-x="1329" 
d="M743 1053q216 0 355 -151.5t139 -385.5q0 -233 -140.5 -384.5t-363.5 -151.5q-111 0 -210.5 52.5t-155.5 151.5v-184h-195v1540h195v-690q60 98 160.5 150.5t215.5 52.5zM705 160q148 0 240.5 99t92.5 257q0 156 -90.5 256t-240.5 100q-149 0 -250 -100t-101 -256
q0 -153 100.5 -254.5t248.5 -101.5z" />
    <glyph glyph-name="c" unicode="c" horiz-adv-x="1052" 
d="M612 -20q-228 0 -374 147.5t-146 384.5q0 240 149.5 390.5t383.5 150.5q192 0 350 -105l-62 -170q-128 94 -278 94q-152 0 -246 -98t-94 -258t92.5 -259t241.5 -99q161 0 311 102l47 -166q-155 -114 -375 -114z" />
    <glyph glyph-name="d" unicode="d" horiz-adv-x="1325" 
d="M965 1540h194v-1542h-194v190q-116 -208 -375 -208q-218 0 -358 150.5t-140 383.5q0 236 140.5 387.5t357.5 151.5q123 0 222 -52.5t153 -152.5v692zM625 160q151 0 250.5 101.5t99.5 254.5q0 154 -99.5 255t-248.5 101q-148 0 -241 -98.5t-93 -259.5q0 -158 91.5 -256
t240.5 -98z" />
    <glyph glyph-name="e" unicode="e" horiz-adv-x="1175" 
d="M1096 512v-27h-807q9 -158 105 -246.5t255 -88.5q105 0 198 35t159 91l51 -159q-74 -61 -184 -99t-240 -38q-162 0 -286.5 71t-189.5 191.5t-65 271.5q0 154 67 277.5t184.5 192.5t262.5 69q218 0 354 -150.5t136 -390.5zM297 625h598q-15 120 -94 194t-195 74
q-114 0 -199 -74t-110 -194z" />
    <glyph glyph-name="f" unicode="f" horiz-adv-x="706" 
d="M229 0v866h-178v166h178v162q0 179 81 266.5t222 87.5q111 0 207 -47l-39 -168q-68 39 -137 39q-68 0 -103.5 -44t-35.5 -144v-152h246v-166h-246v-866h-195z" />
    <glyph glyph-name="g" unicode="g" horiz-adv-x="1325" 
d="M965 1032h194v-997q0 -158 -70.5 -269t-191.5 -164t-283 -53q-263 0 -444 136l55 184q159 -141 389 -141q164 0 257.5 78.5t93.5 230.5v166q-119 -203 -373 -203q-218 0 -359 146.5t-141 375.5t139.5 380t360.5 151q243 0 373 -203v182zM633 174q150 0 244 100.5
t94 253.5q0 143 -97 248t-243 105q-151 0 -245.5 -102t-94.5 -255q0 -154 95.5 -252t246.5 -98z" />
    <glyph glyph-name="h" unicode="h" horiz-adv-x="1265" 
d="M733 1055q179 0 275 -104.5t96 -307.5v-643h-195v578q0 301 -243 301q-131 0 -215 -85t-84 -221v-573h-195v1540h195v-684q51 95 146 147t220 52z" />
    <glyph glyph-name="i" unicode="i" horiz-adv-x="536" 
d="M272 1233q-56 0 -93.5 37.5t-37.5 93.5t37.5 93.5t93.5 37.5q55 0 92 -37.5t37 -93.5t-37 -93.5t-92 -37.5zM172 0v1032h195v-1032h-195z" />
    <glyph glyph-name="j" unicode="j" horiz-adv-x="538" 
d="M270 1233q-56 0 -93.5 37.5t-37.5 93.5t37.5 93.5t93.5 37.5q55 0 92 -37.5t37 -93.5t-37 -93.5t-92 -37.5zM94 -446q-83 0 -151 22l28 170q38 -14 78 -14q67 0 95 40.5t28 147.5v1112h195v-1132q0 -180 -68.5 -263t-204.5 -83z" />
    <glyph glyph-name="k" unicode="k" horiz-adv-x="1095" 
d="M172 0v1540h195v-995l448 487h246l-463 -487l481 -545h-254l-458 532v-532h-195z" />
    <glyph glyph-name="l" unicode="l" horiz-adv-x="614" 
d="M410 -20q-116 0 -179 67.5t-63 204.5v1288h194v-1257q0 -129 99 -129q52 0 100 24l27 -160q-78 -38 -178 -38z" />
    <glyph glyph-name="m" unicode="m" horiz-adv-x="1869" 
d="M1358 1055q170 0 261 -104t91 -308v-643h-194v578q0 301 -224 301q-112 0 -183 -83t-71 -212v-584h-194v578q0 301 -221 301q-115 0 -185.5 -84.5t-70.5 -221.5v-573h-195v1032h195v-168q48 91 131.5 141t191.5 50q252 0 322 -224q50 109 138 166.5t208 57.5z" />
    <glyph glyph-name="n" unicode="n" horiz-adv-x="1265" 
d="M735 1053q178 0 273.5 -105t95.5 -307v-641h-195v575q0 302 -243 302q-134 0 -216.5 -85t-82.5 -223v-569h-195v1032h195v-180q53 96 148.5 148.5t219.5 52.5z" />
    <glyph glyph-name="o" unicode="o" horiz-adv-x="1282" 
d="M641 -20q-242 0 -395.5 150.5t-153.5 385.5q0 234 153.5 385.5t395.5 151.5q243 0 397 -151.5t154 -385.5q0 -235 -153.5 -385.5t-397.5 -150.5zM641 162q156 0 253 98.5t97 255.5q0 158 -97 256t-251 98q-157 0 -253.5 -98t-96.5 -256q0 -159 96.5 -256.5t251.5 -97.5z
" />
    <glyph glyph-name="p" unicode="p" horiz-adv-x="1329" 
d="M743 1053q216 0 355 -151.5t139 -385.5q0 -233 -140.5 -384.5t-363.5 -151.5q-111 0 -210.5 52.5t-155.5 151.5v-614h-195v1462h195v-182q60 98 160.5 150.5t215.5 52.5zM705 160q148 0 240.5 99t92.5 257q0 156 -90.5 256t-240.5 100q-149 0 -250 -100t-101 -256
q0 -153 100.5 -254.5t248.5 -101.5z" />
    <glyph glyph-name="q" unicode="q" horiz-adv-x="1325" 
d="M965 1032h194v-1462h-194v618q-116 -208 -375 -208q-218 0 -358 150.5t-140 383.5q0 236 140.5 387.5t357.5 151.5q123 0 222 -52.5t153 -152.5v184zM625 160q151 0 250.5 101.5t99.5 254.5q0 154 -99.5 255t-248.5 101q-148 0 -241 -98.5t-93 -259.5q0 -158 91.5 -256
t240.5 -98z" />
    <glyph glyph-name="r" unicode="r" horiz-adv-x="768" 
d="M625 1055q67 0 129 -25l-39 -188q-53 22 -107 22q-121 0 -182 -91t-61 -251v-522h-193v1032h193v-176q81 199 260 199z" />
    <glyph glyph-name="s" unicode="s" horiz-adv-x="989" 
d="M481 -20q-107 0 -208.5 29.5t-161.5 78.5l47 162q63 -52 152.5 -84.5t181.5 -32.5t144 37t52 104q0 28 -11 49.5t-27.5 37t-51 31t-64 25.5t-85.5 27q-57 17 -95 31.5t-82.5 40t-70.5 54.5t-44 73.5t-18 99.5q0 144 104 227t277 83q181 0 324 -86l-39 -160
q-137 92 -289 92q-83 0 -133.5 -34.5t-50.5 -96.5q0 -34 15.5 -59t49.5 -43.5t65.5 -29.5t86.5 -26q62 -17 108 -34t90 -42.5t71.5 -56.5t44 -75.5t16.5 -98.5q0 -147 -106 -235t-292 -88z" />
    <glyph glyph-name="t" unicode="t" horiz-adv-x="772" 
d="M504 -20q-134 0 -210.5 77.5t-76.5 229.5v579h-149v166h149v297l195 27v-324h290v-166h-290v-555q0 -76 35 -114.5t100 -38.5q88 0 182 59l33 -162q-44 -33 -112 -54t-146 -21z" />
    <glyph glyph-name="u" unicode="u" horiz-adv-x="1263" 
d="M899 1032h195v-1032h-195v180q-53 -96 -149.5 -148t-223.5 -52q-174 0 -270 104t-96 305v643h194v-577q0 -301 244 -301q134 0 217.5 85.5t83.5 221.5v571z" />
    <glyph glyph-name="v" unicode="v" horiz-adv-x="1032" 
d="M821 1032h205l-410 -1032h-198l-412 1032h215l299 -807z" />
    <glyph glyph-name="w" unicode="w" horiz-adv-x="1634" 
d="M1403 1032h205l-336 -1032h-201l-250 770l-248 -770h-200l-346 1032h215l245 -799l252 799h168l254 -790z" />
    <glyph glyph-name="x" unicode="x" horiz-adv-x="1095" 
d="M31 0l403 530l-383 502h240l262 -360l264 360h227l-378 -497l399 -535h-234l-280 389l-285 -389h-235z" />
    <glyph glyph-name="y" unicode="y" horiz-adv-x="1034" 
d="M823 1032h205l-469 -1171q-61 -153 -152 -226t-227 -73q-78 0 -143 22l26 172q40 -14 84 -14q82 0 138 39t98 139l55 127l-432 985h213l320 -760z" />
    <glyph glyph-name="z" unicode="z" horiz-adv-x="1013" 
d="M86 0v86l547 780h-524v166h804v-90l-536 -776h547v-166h-838z" />
    <glyph glyph-name="braceleft" unicode="{" horiz-adv-x="722" 
d="M492 -266q-267 0 -267 211q0 82 41 245.5t41 225.5q0 69 -48 107t-140 38h-60v152h60q188 0 188 145q0 62 -41 225.5t-41 245.5q0 211 267 211h147v-154h-111q-133 0 -133 -102q0 -75 41 -235.5t41 -214.5q0 -85 -44.5 -131.5t-143.5 -65.5q99 -19 143.5 -65.5
t44.5 -131.5q0 -54 -41 -214.5t-41 -235.5q0 -103 133 -103h111v-153h-147z" />
    <glyph glyph-name="bar" unicode="|" horiz-adv-x="499" 
d="M164 -430v1970h172v-1970h-172z" />
    <glyph glyph-name="braceright" unicode="}" horiz-adv-x="722" 
d="M66 -266v153h112q131 0 131 103q0 75 -41 235.5t-41 214.5q0 84 45 131t144 66q-99 19 -144 66t-45 131q0 54 41 214.5t41 235.5q0 54 -33 78t-98 24h-112v154h147q266 0 266 -211q0 -82 -41 -245.5t-41 -225.5q0 -70 48 -107.5t141 -37.5h59v-152h-59q-93 0 -141 -37.5
t-48 -107.5q0 -62 41 -225.5t41 -245.5q0 -211 -266 -211h-147z" />
    <glyph glyph-name="asciitilde" unicode="~" horiz-adv-x="1200" 
d="M182 565q8 120 67.5 180t137.5 60q59 0 246 -49q21 -5 54.5 -14t51 -13.5t41 -8t43.5 -3.5q34 0 58.5 22.5t33.5 65.5h134q-9 -112 -67.5 -176t-131.5 -64q-71 0 -250 49q-131 39 -188 39q-73 0 -97 -88h-133z" />
    <glyph glyph-name="uni00A0" unicode="&#xa0;" horiz-adv-x="499" 
 />
    <glyph glyph-name="exclamdown" unicode="&#xa1;" horiz-adv-x="655" 
d="M328 1051q55 0 93 -38.5t38 -92.5q0 -56 -38 -94t-93 -38t-93 38t-38 94q0 54 38 92.5t93 38.5zM412 551l34 -981h-231l35 981h162z" />
    <glyph glyph-name="cent" unicode="&#xa2;" horiz-adv-x="1067" 
d="M1006 340q-138 -100 -322 -111v-229h-135v233q-200 31 -328.5 178.5t-128.5 352.5q0 211 127.5 357.5t329.5 172.5v162h135v-158q160 -13 297 -98l-59 -172q-115 79 -238 92v-710q149 9 274 96zM295 764q0 -124 69.5 -218t184.5 -126v692q-118 -26 -186 -120.5
t-68 -227.5z" />
    <glyph glyph-name="sterling" unicode="&#xa3;" horiz-adv-x="1144" 
d="M375 182h729v-182h-1008v182q89 15 136 74.5t47 153.5v225h-183v166h183v188q0 244 116.5 371t325.5 127q211 0 360 -146l-75 -180q-123 137 -279 137q-240 0 -240 -309v-188h387v-166h-387v-221q0 -165 -112 -232z" />
    <glyph glyph-name="currency" unicode="&#xa4;" horiz-adv-x="1200" 
d="M1042 717q0 -131 -69 -238l125 -123l-137 -137l-123 125q-109 -70 -238 -70t-238 70l-122 -125l-138 137l125 123q-69 107 -69 238q0 130 69 237l-125 123l138 137l122 -124q107 69 238 69t238 -69l123 124l137 -137l-125 -123q69 -107 69 -237zM348 717q0 -104 74 -178
t178 -74t178 74t74 178t-74 178t-178 74t-178 -74t-74 -178z" />
    <glyph glyph-name="yen" unicode="&#xa5;" horiz-adv-x="1183" 
d="M1153 1454l-414 -792h336v-119h-381v-150h381v-117h-381v-276h-205v276h-380v117h380v150h-380v119h335l-413 792h231l340 -670l340 670h211z" />
    <glyph glyph-name="brokenbar" unicode="&#xa6;" horiz-adv-x="499" 
d="M164 768v772h172v-772h-172zM164 -430v772h172v-772h-172z" />
    <glyph glyph-name="section" unicode="&#xa7;" horiz-adv-x="989" 
d="M725 541q147 -79 147 -246q0 -138 -106.5 -226.5t-273.5 -88.5q-253 0 -388 108l48 162q65 -53 152 -85t181 -32q89 0 142 39t53 102q0 64 -50.5 100t-187.5 75q-173 51 -246 117.5t-73 187.5q0 87 45 153.5t125 104.5q-83 41 -120.5 100.5t-37.5 149.5q0 135 103.5 217
t269.5 82q186 0 336 -86l-43 -160q-143 92 -295 92q-83 0 -130.5 -36.5t-47.5 -94.5q0 -64 48 -97.5t187 -70.5q172 -46 246 -115.5t74 -189.5q0 -84 -42 -152t-116 -110zM514 938h-10q-91 0 -140 -44.5t-49 -113.5q0 -62 44.5 -99t160.5 -69q78 0 125 46t47 118
q0 60 -40.5 96.5t-137.5 65.5z" />
    <glyph glyph-name="dieresis" unicode="&#xa8;" horiz-adv-x="819" 
d="M631 1249q-49 0 -83 34.5t-34 84.5t34 83.5t83 33.5q51 0 85 -33.5t34 -83.5t-34 -84.5t-85 -34.5zM1073 1249q-49 0 -84 34.5t-35 84.5q0 49 34.5 83t84.5 34q49 0 83 -33.5t34 -83.5t-34 -84.5t-83 -34.5z" />
    <glyph glyph-name="copyright" unicode="&#xa9;" horiz-adv-x="1658" 
d="M829 -20q-152 0 -290 59t-238.5 159.5t-159.5 238.5t-59 290t59 290.5t159.5 238.5t238.5 159.5t290 59.5q203 0 375 -100.5t272.5 -272.5t100.5 -375q0 -152 -59.5 -290t-159.5 -238.5t-238.5 -159.5t-290.5 -59zM829 96q128 0 245 50t201.5 134.5t134.5 201.5t50 245
t-50 245t-134.5 201.5t-201.5 134.5t-245 50q-171 0 -316 -84.5t-229.5 -230t-84.5 -316.5t84.5 -316.5t229.5 -230t316 -84.5zM852 266q-203 0 -337 133t-134 330q0 195 134.5 327t332.5 132q180 0 317 -109l-51 -141q-116 104 -264 104q-134 0 -223.5 -90t-89.5 -223
q0 -134 90.5 -225.5t224.5 -91.5q149 0 276 100l48 -141q-143 -105 -324 -105z" />
    <glyph glyph-name="ordfeminine" unicode="&#xaa;" horiz-adv-x="724" 
d="M274 834q-90 0 -146 49.5t-56 138.5q0 104 99.5 151.5t320.5 47.5v14q0 61 -37.5 96t-108.5 35q-109 0 -199 -66l-32 109q107 72 256 72q119 0 187.5 -61t68.5 -183v-389h-135v92q-34 -47 -89.5 -76.5t-128.5 -29.5zM317 936q68 0 121.5 38.5t53.5 110.5v52
q-155 0 -217 -27t-62 -82q0 -43 27 -67.5t77 -24.5z" />
    <glyph glyph-name="guillemotleft" unicode="&#xab;" horiz-adv-x="1157" 
d="M397 123l-336 409l336 410h221l-350 -410l350 -409h-221zM872 123l-335 409l335 410h222l-351 -410l351 -409h-222z" />
    <glyph glyph-name="logicalnot" unicode="&#xac;" horiz-adv-x="1200" 
d="M1061 1040v-645h-160v486h-762v159h922z" />
    <glyph glyph-name="uni00AD" unicode="&#xad;" horiz-adv-x="905" 
d="M98 475v166h709v-166h-709z" />
    <glyph glyph-name="registered" unicode="&#xae;" horiz-adv-x="940" 
d="M469 1454q180 0 295 -115.5t115 -294.5q0 -180 -115 -294.5t-295 -114.5q-179 0 -294.5 114.5t-115.5 294.5q0 178 115.5 294t294.5 116zM469 717q147 0 237.5 90.5t90.5 236.5q0 147 -90.5 237.5t-237.5 90.5q-146 0 -237 -91t-91 -237t91 -236.5t237 -90.5zM631 1139
q0 -90 -80 -131l133 -201h-109l-114 182h-49v-182h-93v475h154q72 0 115 -39t43 -104zM412 1200v-133h51q37 0 56.5 18t19.5 50q0 31 -19.5 48t-54.5 17h-53z" />
    <glyph glyph-name="macron" unicode="&#xaf;" horiz-adv-x="819" 
d="M514 1270v135h674v-135h-674z" />
    <glyph glyph-name="degree" unicode="&#xb0;" horiz-adv-x="765" 
d="M383 811q-134 0 -229 94.5t-95 227.5t95 227t229 94t229 -94t95 -227t-95 -227.5t-229 -94.5zM383 961q72 0 122 50t50 122t-50 123t-122 51t-123 -51t-51 -123t51 -122t123 -50z" />
    <glyph glyph-name="plusminus" unicode="&#xb1;" horiz-adv-x="1200" 
d="M680 905h381v-145h-381v-273h-162v273h-379v145h379v273h162v-273zM139 283v143h922v-143h-922z" />
    <glyph glyph-name="uni00B2" unicode="&#xb2;" horiz-adv-x="860" 
d="M115 891v90l305 309q75 75 108 127t33 103q0 57 -39 91t-108 34q-126 0 -234 -105l-65 115q117 127 309 127q132 0 211.5 -69.5t79.5 -178.5q0 -83 -47.5 -157t-139.5 -160l-192 -189h412v-137h-633z" />
    <glyph glyph-name="uni00B3" unicode="&#xb3;" horiz-adv-x="849" 
d="M399 870q-201 0 -309 117l76 123q100 -100 233 -100q87 0 136 36.5t49 98.5q0 141 -256 141v119q109 0 163 39.5t54 93.5q0 47 -37.5 75.5t-101.5 28.5q-111 0 -222 -96l-67 121q132 115 299 115q126 0 202 -60.5t76 -160.5q0 -150 -174 -203q215 -54 215 -225
q0 -116 -91 -189.5t-245 -73.5z" />
    <glyph glyph-name="acute" unicode="&#xb4;" horiz-adv-x="819" 
d="M422 1178l231 321h195l-254 -321h-172z" />
    <glyph glyph-name="uni00B5" unicode="&#xb5;" horiz-adv-x="1275" 
d="M909 1032h195v-1032h-195v164q-46 -88 -128 -136t-189 -48q-136 0 -225 92v-502h-195v1462h195v-577q0 -147 63 -224t188 -77q128 0 209.5 85.5t81.5 221.5v571z" />
    <glyph glyph-name="paragraph" unicode="&#xb6;" horiz-adv-x="1368" 
d="M664 -430v739h-82q-235 0 -378 158t-143 416q0 257 143 414t378 157h725v-125h-162v-1759h-131v1759h-219v-1759h-131z" />
    <glyph glyph-name="periodcentered" unicode="&#xb7;" horiz-adv-x="604" 
d="M303 582q-55 0 -93 38.5t-38 92.5q0 55 38 93t93 38q54 0 92.5 -38t38.5 -93q0 -54 -38.5 -92.5t-92.5 -38.5z" />
    <glyph glyph-name="cedilla" unicode="&#xb8;" horiz-adv-x="819" 
d="M649 -82q63 -19 98 -61.5t35 -104.5q0 -94 -75.5 -147.5t-233.5 -53.5v123q90 0 127 21t37 61q0 36 -28.5 54t-73.5 18v172h114v-82z" />
    <glyph glyph-name="uni00B9" unicode="&#xb9;" horiz-adv-x="712" 
d="M397 1772h58v-881h-152v682l-199 -113v146z" />
    <glyph glyph-name="ordmasculine" unicode="&#xba;" horiz-adv-x="778" 
d="M389 829q-144 0 -239 92t-95 230q0 140 94.5 232t239.5 92q143 0 239.5 -92.5t96.5 -231.5q0 -138 -96.5 -230t-239.5 -92zM389 956q82 0 137.5 55.5t55.5 141.5q0 85 -55 140t-138 55q-85 0 -138.5 -57t-53.5 -140q0 -86 54 -140.5t138 -54.5z" />
    <glyph glyph-name="guillemotright" unicode="&#xbb;" horiz-adv-x="1157" 
d="M285 123h-222l351 409l-351 410h222l336 -410zM760 123h-221l350 409l-350 410h221l336 -410z" />
    <glyph glyph-name="onequarter" unicode="&#xbc;" horiz-adv-x="1777" 
d="M303 584v682l-199 -113v145l293 166h58v-880h-152zM1350 1454h172l-1119 -1454h-172zM1573 301h121v-125h-121v-176h-154v176h-413v103l426 600h141v-578zM1419 301v358l-260 -358h260z" />
    <glyph glyph-name="onehalf" unicode="&#xbd;" horiz-adv-x="1955" 
d="M303 584v682l-199 -113v145l293 166h58v-880h-152zM1346 1454h172l-1119 -1454h-172zM1432 137h411v-137h-633v90l306 309q75 75 108 127t33 103q0 56 -39.5 90.5t-108.5 34.5q-125 0 -233 -105l-66 115q55 60 135 93.5t175 33.5q132 0 211 -69.5t79 -178.5
q0 -83 -47 -157t-139 -160z" />
    <glyph glyph-name="threequarters" unicode="&#xbe;" horiz-adv-x="1869" 
d="M399 563q-201 0 -309 117l76 123q101 -101 233 -101q87 0 136 37t49 99q0 141 -256 141v119q109 0 163 39.5t54 93.5q0 47 -37.5 75.5t-101.5 28.5q-111 0 -222 -96l-67 121q132 115 299 115q126 0 202 -61t76 -161q0 -149 -174 -202q215 -54 215 -226q0 -116 -91 -189
t-245 -73zM346 0l1118 1454h172l-1118 -1454h-172zM1511 0v176h-413v103l426 600h141v-578h121v-125h-121v-176h-154zM1251 301h260v358z" />
    <glyph glyph-name="questiondown" unicode="&#xbf;" horiz-adv-x="1032" 
d="M514 788q-54 0 -92.5 39t-38.5 93q0 55 38.5 94t92.5 39q56 0 94.5 -38.5t38.5 -94.5q0 -54 -39 -93t-94 -39zM506 -451q-189 0 -301.5 104t-112.5 265q0 117 46.5 202.5t135.5 174.5q91 95 125.5 149t34.5 103h176q0 -78 -30 -140.5t-134 -183.5q-86 -97 -121.5 -157.5
t-35.5 -133.5q0 -94 58 -149t169 -55q109 0 176 57t94 149l154 -94q-36 -126 -149 -208.5t-285 -82.5z" />
    <glyph glyph-name="Agrave" unicode="&#xc0;" horiz-adv-x="1396" 
d="M1141 0l-162 442h-567l-162 -442h-213l549 1454h225l551 -1454h-221zM473 614h442l-221 607zM657 1581l-276 301h207l241 -301h-172z" />
    <glyph glyph-name="Aacute" unicode="&#xc1;" horiz-adv-x="1396" 
d="M1141 0l-162 442h-567l-162 -442h-213l549 1454h225l551 -1454h-221zM473 614h442l-221 607zM563 1581l240 301h209l-277 -301h-172z" />
    <glyph glyph-name="Acircumflex" unicode="&#xc2;" horiz-adv-x="1396" 
d="M1141 0l-162 442h-567l-162 -442h-213l549 1454h225l551 -1454h-221zM473 614h442l-221 607zM346 1581l254 281h197l256 -281h-172l-183 162l-180 -162h-172z" />
    <glyph glyph-name="Atilde" unicode="&#xc3;" horiz-adv-x="1396" 
d="M1141 0l-162 442h-567l-162 -442h-213l549 1454h225l551 -1454h-221zM473 614h442l-221 607zM356 1581q11 114 59.5 169.5t119.5 55.5q54 0 182 -51q8 -3 27.5 -10.5t29 -10.5t23.5 -7.5t25 -6.5t20 -2q31 0 46 20t21 68h125q-12 -107 -58.5 -166t-119.5 -59
q-65 0 -176 49q-95 39 -127 39q-30 0 -45.5 -20t-26.5 -68h-125z" />
    <glyph glyph-name="Adieresis" unicode="&#xc4;" horiz-adv-x="1396" 
d="M1141 0l-162 442h-567l-162 -442h-213l549 1454h225l551 -1454h-221zM473 614h442l-221 607zM479 1616q-49 0 -83 34.5t-34 84.5q0 49 33.5 82.5t83.5 33.5q51 0 85 -33t34 -83t-34 -84.5t-85 -34.5zM922 1616q-50 0 -84.5 35t-34.5 84t34.5 82.5t84.5 33.5t83 -33.5
t33 -82.5q0 -50 -33.5 -84.5t-82.5 -34.5z" />
    <glyph glyph-name="Aring" unicode="&#xc5;" horiz-adv-x="1396" 
d="M1141 0l-162 442h-567l-162 -442h-213l549 1454h225l551 -1454h-221zM473 614h442l-221 607zM698 1524q-93 0 -153 60t-60 147q0 88 60.5 148t152.5 60q91 0 152 -60t61 -148q0 -89 -61.5 -148t-151.5 -59zM698 1638q41 0 67 27t26 66t-25.5 65.5t-67.5 26.5
q-41 0 -66.5 -26t-25.5 -66q0 -39 26 -66t66 -27z" />
    <glyph glyph-name="AE" unicode="&#xc6;" horiz-adv-x="1892" 
d="M1108 186h637v-186h-848v442h-481l-166 -442h-213l549 1454h1143v-186h-621v-449h602v-182h-602v-451zM481 614h416v652h-172z" />
    <glyph glyph-name="Ccedilla" unicode="&#xc7;" horiz-adv-x="1456" 
d="M883 -82q63 -19 98 -61.5t35 -104.5q0 -94 -75.5 -147.5t-233.5 -53.5v123q90 0 126.5 21t36.5 61q0 36 -28.5 54t-73.5 18v158q-143 16 -264 78t-206 158.5t-133 227t-48 279.5q0 217 98 387.5t270.5 264.5t388.5 94q270 0 484 -152l-70 -193q-187 146 -407 146
q-160 0 -285 -70.5t-193.5 -194.5t-68.5 -280q0 -240 153 -396.5t394 -156.5q232 0 438 152l61 -189q-214 -158 -497 -161v-62z" />
    <glyph glyph-name="Egrave" unicode="&#xc8;" horiz-adv-x="1187" 
d="M195 0v1454h831v-186h-620v-449h600v-182h-600v-451h634v-186h-845zM575 1581l-276 301h207l242 -301h-173z" />
    <glyph glyph-name="Eacute" unicode="&#xc9;" horiz-adv-x="1187" 
d="M195 0v1454h831v-186h-620v-449h600v-182h-600v-451h634v-186h-845zM481 1581l240 301h209l-277 -301h-172z" />
    <glyph glyph-name="Ecircumflex" unicode="&#xca;" horiz-adv-x="1187" 
d="M195 0v1454h831v-186h-620v-449h600v-182h-600v-451h634v-186h-845zM264 1581l254 281h197l256 -281h-172l-183 162l-180 -162h-172z" />
    <glyph glyph-name="Edieresis" unicode="&#xcb;" horiz-adv-x="1187" 
d="M195 0v1454h831v-186h-620v-449h600v-182h-600v-451h634v-186h-845zM397 1616q-49 0 -82.5 34.5t-33.5 84.5q0 49 33.5 82.5t82.5 33.5q51 0 85 -33t34 -83t-34 -84.5t-85 -34.5zM840 1616q-50 0 -84.5 35t-34.5 84t34.5 82.5t84.5 33.5t83 -33.5t33 -82.5
q0 -50 -33.5 -84.5t-82.5 -34.5z" />
    <glyph glyph-name="Igrave" unicode="&#xcc;" horiz-adv-x="600" 
d="M195 0v1454h211v-1454h-211zM260 1581l-276 301h206l242 -301h-172z" />
    <glyph glyph-name="Iacute" unicode="&#xcd;" horiz-adv-x="600" 
d="M195 0v1454h211v-1454h-211zM166 1581l240 301h208l-276 -301h-172z" />
    <glyph glyph-name="Icircumflex" unicode="&#xce;" horiz-adv-x="600" 
d="M195 0v1454h211v-1454h-211zM-51 1581l254 281h196l256 -281h-172l-182 162l-180 -162h-172z" />
    <glyph glyph-name="Idieresis" unicode="&#xcf;" horiz-adv-x="600" 
d="M195 0v1454h211v-1454h-211zM82 1616q-49 0 -83 34.5t-34 84.5q0 49 33.5 82.5t83.5 33.5q51 0 85 -33t34 -83t-34 -84.5t-85 -34.5zM524 1616q-49 0 -83.5 34.5t-34.5 84.5q0 49 34 82.5t84 33.5t83.5 -33.5t33.5 -82.5q0 -50 -34 -84.5t-83 -34.5z" />
    <glyph glyph-name="Eth" unicode="&#xd0;" horiz-adv-x="1548" 
d="M690 1454q336 0 539 -197t203 -520q0 -332 -203 -534.5t-539 -202.5h-495v641h-177v172h177v641h495zM668 186q253 0 399.5 147.5t146.5 401.5q0 246 -146 389.5t-398 143.5h-264v-455h382v-172h-382v-455h262z" />
    <glyph glyph-name="Ntilde" unicode="&#xd1;" horiz-adv-x="1593" 
d="M1196 1454h203v-1454h-199l-803 1126v-1126h-202v1454h200l801 -1130v1130zM469 1581q12 114 59.5 169.5t118.5 55.5q54 0 182 -51q8 -3 27.5 -10.5t29 -10.5t23.5 -7.5t25 -6.5t20 -2q31 0 46.5 20.5t21.5 67.5h125q-12 -107 -58.5 -166t-119.5 -59q-65 0 -176 49
q-95 39 -127 39q-30 0 -45.5 -20t-26.5 -68h-125z" />
    <glyph glyph-name="Ograve" unicode="&#xd2;" horiz-adv-x="1753" 
d="M874 -20q-214 0 -386.5 94.5t-271.5 266t-99 386.5q0 216 98.5 387t272 266t389.5 95q215 0 387.5 -95t271 -265.5t98.5 -385.5q0 -161 -58 -300.5t-158.5 -238t-241.5 -154.5t-302 -56zM877 178q155 0 279 71t193.5 196.5t69.5 281.5q0 238 -153 393.5t-389 155.5
t-390.5 -155.5t-154.5 -393.5q0 -156 70 -281.5t195 -196.5t280 -71zM834 1581l-277 301h207l242 -301h-172z" />
    <glyph glyph-name="Oacute" unicode="&#xd3;" horiz-adv-x="1753" 
d="M874 -20q-214 0 -386.5 94.5t-271.5 266t-99 386.5q0 216 98.5 387t272 266t389.5 95q215 0 387.5 -95t271 -265.5t98.5 -385.5q0 -161 -58 -300.5t-158.5 -238t-241.5 -154.5t-302 -56zM877 178q155 0 279 71t193.5 196.5t69.5 281.5q0 238 -153 393.5t-389 155.5
t-390.5 -155.5t-154.5 -393.5q0 -156 70 -281.5t195 -196.5t280 -71zM739 1581l240 301h209l-277 -301h-172z" />
    <glyph glyph-name="Ocircumflex" unicode="&#xd4;" horiz-adv-x="1753" 
d="M874 -20q-214 0 -386.5 94.5t-271.5 266t-99 386.5q0 216 98.5 387t272 266t389.5 95q215 0 387.5 -95t271 -265.5t98.5 -385.5q0 -161 -58 -300.5t-158.5 -238t-241.5 -154.5t-302 -56zM877 178q155 0 279 71t193.5 196.5t69.5 281.5q0 238 -153 393.5t-389 155.5
t-390.5 -155.5t-154.5 -393.5q0 -156 70 -281.5t195 -196.5t280 -71zM522 1581l254 281h197l256 -281h-172l-183 162l-180 -162h-172z" />
    <glyph glyph-name="Otilde" unicode="&#xd5;" horiz-adv-x="1753" 
d="M874 -20q-214 0 -386.5 94.5t-271.5 266t-99 386.5q0 216 98.5 387t272 266t389.5 95q215 0 387.5 -95t271 -265.5t98.5 -385.5q0 -161 -58 -300.5t-158.5 -238t-241.5 -154.5t-302 -56zM877 178q155 0 279 71t193.5 196.5t69.5 281.5q0 238 -153 393.5t-389 155.5
t-390.5 -155.5t-154.5 -393.5q0 -156 70 -281.5t195 -196.5t280 -71zM532 1581q11 114 59.5 169.5t119.5 55.5q54 0 182 -51q8 -3 27.5 -10.5t29 -10.5t23.5 -7.5t25 -6.5t20 -2q31 0 46 20t21 68h125q-12 -107 -58.5 -166t-119.5 -59q-65 0 -176 49q-95 39 -127 39
q-30 0 -45.5 -20t-26.5 -68h-125z" />
    <glyph glyph-name="Odieresis" unicode="&#xd6;" horiz-adv-x="1753" 
d="M874 -20q-214 0 -386.5 94.5t-271.5 266t-99 386.5q0 216 98.5 387t272 266t389.5 95q215 0 387.5 -95t271 -265.5t98.5 -385.5q0 -161 -58 -300.5t-158.5 -238t-241.5 -154.5t-302 -56zM877 178q155 0 279 71t193.5 196.5t69.5 281.5q0 238 -153 393.5t-389 155.5
t-390.5 -155.5t-154.5 -393.5q0 -156 70 -281.5t195 -196.5t280 -71zM655 1616q-49 0 -82.5 34.5t-33.5 84.5q0 49 33.5 82.5t82.5 33.5q51 0 85 -33t34 -83t-34 -84.5t-85 -34.5zM1098 1616q-50 0 -84.5 35t-34.5 84t34.5 82.5t84.5 33.5t83 -33.5t33 -82.5
q0 -50 -33.5 -84.5t-82.5 -34.5z" />
    <glyph glyph-name="multiply" unicode="&#xd7;" horiz-adv-x="1200" 
d="M999 432l-112 -113l-287 285l-285 -285l-112 115l284 285l-284 282l114 113l283 -283l285 285l112 -112l-284 -285z" />
    <glyph glyph-name="Oslash" unicode="&#xd8;" horiz-adv-x="1753" 
d="M1362 1315q128 -100 200 -251.5t72 -334.5q0 -161 -58 -300.5t-158.5 -238t-241.5 -154.5t-302 -56q-186 0 -344 73l-102 -155h-182l153 233q-133 102 -207.5 256t-74.5 340q0 216 98.5 387t272 266t389.5 95q188 0 354 -78l106 159h183zM332 727q0 -128 48.5 -237
t135.5 -183l602 918q-111 51 -241 51q-236 0 -390.5 -155.5t-154.5 -393.5zM877 178q155 0 279 71t193.5 196.5t69.5 281.5q0 126 -45.5 233t-128.5 181l-602 -916q106 -47 234 -47z" />
    <glyph glyph-name="Ugrave" unicode="&#xd9;" horiz-adv-x="1515" 
d="M758 -20q-267 0 -420.5 151t-153.5 406v917h209v-887q0 -191 99.5 -290t265.5 -99t265 98.5t99 290.5v887h209v-917q0 -255 -153 -406t-420 -151zM719 1581l-277 301h207l242 -301h-172z" />
    <glyph glyph-name="Uacute" unicode="&#xda;" horiz-adv-x="1515" 
d="M758 -20q-267 0 -420.5 151t-153.5 406v917h209v-887q0 -191 99.5 -290t265.5 -99t265 98.5t99 290.5v887h209v-917q0 -255 -153 -406t-420 -151zM625 1581l239 301h209l-276 -301h-172z" />
    <glyph glyph-name="Ucircumflex" unicode="&#xdb;" horiz-adv-x="1515" 
d="M758 -20q-267 0 -420.5 151t-153.5 406v917h209v-887q0 -191 99.5 -290t265.5 -99t265 98.5t99 290.5v887h209v-917q0 -255 -153 -406t-420 -151zM408 1581l254 281h196l256 -281h-172l-182 162l-180 -162h-172z" />
    <glyph glyph-name="Udieresis" unicode="&#xdc;" horiz-adv-x="1515" 
d="M758 -20q-267 0 -420.5 151t-153.5 406v917h209v-887q0 -191 99.5 -290t265.5 -99t265 98.5t99 290.5v887h209v-917q0 -255 -153 -406t-420 -151zM541 1616q-49 0 -83 34.5t-34 84.5q0 49 33.5 82.5t83.5 33.5q51 0 84.5 -33t33.5 -83t-33.5 -84.5t-84.5 -34.5zM983 1616
q-49 0 -84 35t-35 84t34.5 82.5t84.5 33.5t83.5 -33.5t33.5 -82.5q0 -50 -34 -84.5t-83 -34.5z" />
    <glyph glyph-name="Yacute" unicode="&#xdd;" horiz-adv-x="1214" 
d="M1217 1454l-506 -876v-578h-207v575l-506 879h231l389 -682l388 682h211zM469 1581l240 301h209l-277 -301h-172z" />
    <glyph glyph-name="Thorn" unicode="&#xde;" horiz-adv-x="1216" 
d="M641 1188q235 0 364.5 -124.5t129.5 -328.5q0 -93 -32.5 -177t-93 -150.5t-156 -106t-212.5 -39.5h-235v-262h-211v1454h211v-266h235zM606 440q137 0 224.5 78.5t87.5 216.5q0 145 -84.5 211t-227.5 66h-200v-572h200z" />
    <glyph glyph-name="germandbls" unicode="&#xdf;" horiz-adv-x="1257" 
d="M825 850q69 -15 128 -47t107.5 -81.5t76.5 -122.5t28 -161q0 -210 -130 -332t-343 -122q-140 0 -217 34l25 179q67 -37 162 -37q139 0 220 76t81 213q0 143 -101 219.5t-282 76.5h-33v158l43 2q46 2 90.5 18.5t84 47t63.5 81t24 113.5q0 93 -61 148t-166 55
q-53 0 -97 -14.5t-83 -47t-61 -93.5t-22 -146v-1067h-190v1081q0 116 35 206t97 146t143 84.5t176 28.5q197 0 310.5 -100t113.5 -266q0 -113 -60.5 -200.5t-161.5 -129.5z" />
    <glyph glyph-name="agrave" unicode="&#xe0;" horiz-adv-x="1179" 
d="M594 1053q202 0 314 -102t112 -306v-645h-195v160q-52 -82 -147 -131t-221 -49q-160 0 -252 82t-92 223q0 177 165 253.5t547 79.5v23q0 115 -67.5 180.5t-196.5 65.5q-168 0 -330 -117l-49 162q76 52 183 86.5t229 34.5zM516 129q55 0 108 16t99 47t74 85.5t28 123.5v88
q-193 -2 -304.5 -23t-158.5 -62t-47 -109q0 -77 52.5 -121.5t148.5 -44.5zM584 1178l-256 321h192l236 -321h-172z" />
    <glyph glyph-name="aacute" unicode="&#xe1;" horiz-adv-x="1179" 
d="M594 1053q202 0 314 -102t112 -306v-645h-195v160q-52 -82 -147 -131t-221 -49q-160 0 -252 82t-92 223q0 177 165 253.5t547 79.5v23q0 115 -67.5 180.5t-196.5 65.5q-168 0 -330 -117l-49 162q76 52 183 86.5t229 34.5zM516 129q55 0 108 16t99 47t74 85.5t28 123.5v88
q-193 -2 -304.5 -23t-158.5 -62t-47 -109q0 -77 52.5 -121.5t148.5 -44.5zM465 1178l231 321h195l-254 -321h-172z" />
    <glyph glyph-name="acircumflex" unicode="&#xe2;" horiz-adv-x="1179" 
d="M594 1053q202 0 314 -102t112 -306v-645h-195v160q-52 -82 -147 -131t-221 -49q-160 0 -252 82t-92 223q0 177 165 253.5t547 79.5v23q0 115 -67.5 180.5t-196.5 65.5q-168 0 -330 -117l-49 162q76 52 183 86.5t229 34.5zM516 129q55 0 108 16t99 47t74 85.5t28 123.5v88
q-193 -2 -304.5 -23t-158.5 -62t-47 -109q0 -77 52.5 -121.5t148.5 -44.5zM248 1178l254 321h196l256 -321h-172l-182 206l-180 -206h-172z" />
    <glyph glyph-name="atilde" unicode="&#xe3;" horiz-adv-x="1179" 
d="M594 1053q202 0 314 -102t112 -306v-645h-195v160q-52 -82 -147 -131t-221 -49q-160 0 -252 82t-92 223q0 177 165 253.5t547 79.5v23q0 115 -67.5 180.5t-196.5 65.5q-168 0 -330 -117l-49 162q76 52 183 86.5t229 34.5zM516 129q55 0 108 16t99 47t74 85.5t28 123.5v88
q-193 -2 -304.5 -23t-158.5 -62t-47 -109q0 -77 52.5 -121.5t148.5 -44.5zM258 1223q11 114 61 169.5t119 55.5q65 0 180 -49q86 -39 117 -39q64 0 76 88h125q-13 -112 -63 -168.5t-121 -56.5q-56 0 -170 49q-88 39 -125 39q-26 0 -44.5 -19.5t-29.5 -68.5h-125z" />
    <glyph glyph-name="adieresis" unicode="&#xe4;" horiz-adv-x="1179" 
d="M594 1053q202 0 314 -102t112 -306v-645h-195v160q-52 -82 -147 -131t-221 -49q-160 0 -252 82t-92 223q0 177 165 253.5t547 79.5v23q0 115 -67.5 180.5t-196.5 65.5q-168 0 -330 -117l-49 162q76 52 183 86.5t229 34.5zM516 129q55 0 108 16t99 47t74 85.5t28 123.5v88
q-193 -2 -304.5 -23t-158.5 -62t-47 -109q0 -77 52.5 -121.5t148.5 -44.5zM377 1249q-49 0 -83 34.5t-34 84.5t34 83.5t83 33.5q51 0 85 -33.5t34 -83.5t-34 -84.5t-85 -34.5zM819 1249q-49 0 -84 34.5t-35 84.5q0 49 34.5 83t84.5 34q49 0 83 -33.5t34 -83.5t-34 -84.5
t-83 -34.5z" />
    <glyph glyph-name="aring" unicode="&#xe5;" horiz-adv-x="1179" 
d="M594 1053q202 0 314 -102t112 -306v-645h-195v160q-52 -82 -147 -131t-221 -49q-160 0 -252 82t-92 223q0 177 165 253.5t547 79.5v23q0 115 -67.5 180.5t-196.5 65.5q-168 0 -330 -117l-49 162q76 52 183 86.5t229 34.5zM516 129q55 0 108 16t99 47t74 85.5t28 123.5v88
q-193 -2 -304.5 -23t-158.5 -62t-47 -109q0 -77 52.5 -121.5t148.5 -44.5zM600 1153q-95 0 -154 59.5t-59 147.5q0 90 61 149.5t154 59.5q92 0 152.5 -59t60.5 -150t-62 -149t-153 -58zM602 1268q41 0 66.5 26t25.5 66t-25 66t-67 26q-41 0 -66.5 -25.5t-25.5 -66.5
q0 -40 25.5 -66t66.5 -26z" />
    <glyph glyph-name="ae" unicode="&#xe6;" horiz-adv-x="1912" 
d="M1833 512v-27h-807q9 -158 105 -246.5t255 -88.5q105 0 198 35t159 91l51 -159q-74 -61 -184 -99t-240 -38q-152 0 -269 61t-188 170q-147 -231 -446 -231q-163 0 -258.5 79.5t-95.5 227.5q0 174 166 251t546 80v23q0 115 -67 180.5t-195 65.5q-170 0 -332 -117l-49 162
q175 121 418 121q261 0 363 -168q70 79 168 123.5t212 44.5q218 0 354 -150.5t136 -390.5zM1034 625h598q-15 120 -94 194t-195 74q-114 0 -199 -74t-110 -194zM516 129q55 0 107.5 16t98.5 48.5t74.5 89t28.5 129.5v77q-193 -3 -304 -24t-158.5 -61.5t-47.5 -108.5
q0 -77 52.5 -121.5t148.5 -44.5z" />
    <glyph glyph-name="ccedilla" unicode="&#xe7;" horiz-adv-x="1052" 
d="M639 -82q63 -19 98 -61.5t35 -104.5q0 -94 -75.5 -147.5t-233.5 -53.5v123q90 0 127 21t37 61q0 36 -29 54t-74 18v158q-194 28 -313 170.5t-119 355.5q0 240 149.5 390.5t383.5 150.5q192 0 350 -105l-62 -170q-128 94 -278 94q-152 0 -246 -98t-94 -258t92.5 -259
t241.5 -99q161 0 311 102l47 -166q-145 -105 -348 -114v-62z" />
    <glyph glyph-name="egrave" unicode="&#xe8;" horiz-adv-x="1175" 
d="M1096 512v-27h-807q9 -158 105 -246.5t255 -88.5q105 0 198 35t159 91l51 -159q-74 -61 -184 -99t-240 -38q-162 0 -286.5 71t-189.5 191.5t-65 271.5q0 154 67 277.5t184.5 192.5t262.5 69q218 0 354 -150.5t136 -390.5zM297 625h598q-15 120 -94 194t-195 74
q-114 0 -199 -74t-110 -194zM596 1178l-256 321h192l236 -321h-172z" />
    <glyph glyph-name="eacute" unicode="&#xe9;" horiz-adv-x="1175" 
d="M1096 512v-27h-807q9 -158 105 -246.5t255 -88.5q105 0 198 35t159 91l51 -159q-74 -61 -184 -99t-240 -38q-162 0 -286.5 71t-189.5 191.5t-65 271.5q0 154 67 277.5t184.5 192.5t262.5 69q218 0 354 -150.5t136 -390.5zM297 625h598q-15 120 -94 194t-195 74
q-114 0 -199 -74t-110 -194zM477 1178l232 321h194l-254 -321h-172z" />
    <glyph glyph-name="ecircumflex" unicode="&#xea;" horiz-adv-x="1175" 
d="M1096 512v-27h-807q9 -158 105 -246.5t255 -88.5q105 0 198 35t159 91l51 -159q-74 -61 -184 -99t-240 -38q-162 0 -286.5 71t-189.5 191.5t-65 271.5q0 154 67 277.5t184.5 192.5t262.5 69q218 0 354 -150.5t136 -390.5zM297 625h598q-15 120 -94 194t-195 74
q-114 0 -199 -74t-110 -194zM260 1178l254 321h197l256 -321h-172l-183 206l-180 -206h-172z" />
    <glyph glyph-name="edieresis" unicode="&#xeb;" horiz-adv-x="1175" 
d="M1096 512v-27h-807q9 -158 105 -246.5t255 -88.5q105 0 198 35t159 91l51 -159q-74 -61 -184 -99t-240 -38q-162 0 -286.5 71t-189.5 191.5t-65 271.5q0 154 67 277.5t184.5 192.5t262.5 69q218 0 354 -150.5t136 -390.5zM297 625h598q-15 120 -94 194t-195 74
q-114 0 -199 -74t-110 -194zM389 1249q-49 0 -83 34.5t-34 84.5t34 83.5t83 33.5q51 0 85 -33.5t34 -83.5t-34 -84.5t-85 -34.5zM831 1249q-49 0 -83.5 34.5t-34.5 84.5q0 49 34 83t84 34q49 0 83 -33.5t34 -83.5t-34 -84.5t-83 -34.5z" />
    <glyph glyph-name="igrave" unicode="&#xec;" horiz-adv-x="536" 
d="M172 0v1032h195v-1032h-195zM254 1178l-256 321h192l236 -321h-172z" />
    <glyph glyph-name="iacute" unicode="&#xed;" horiz-adv-x="536" 
d="M172 0v1032h195v-1032h-195zM137 1178l232 321h194l-254 -321h-172z" />
    <glyph glyph-name="icircumflex" unicode="&#xee;" horiz-adv-x="536" 
d="M172 0v1032h195v-1032h-195zM-39 1178l213 321h197l215 -321h-172l-142 202l-139 -202h-172z" />
    <glyph glyph-name="idieresis" unicode="&#xef;" horiz-adv-x="536" 
d="M172 0v1032h195v-1032h-195zM88 1243q-52 0 -87.5 36t-35.5 89q0 52 35.5 87.5t87.5 35.5q53 0 89 -35.5t36 -87.5t-36.5 -88.5t-88.5 -36.5zM453 1243q-51 0 -87 36.5t-36 88.5t36 87.5t87 35.5q53 0 89 -35.5t36 -87.5t-36 -88.5t-89 -36.5z" />
    <glyph glyph-name="eth" unicode="&#xf0;" horiz-adv-x="1282" 
d="M799 1319q186 -154 289.5 -350.5t103.5 -421.5q0 -256 -153 -411.5t-396 -155.5q-239 0 -395 147t-156 383q0 154 73 275t196 186t272 65t274 -102q-100 175 -282 313l-308 -125l-57 125l229 94q-101 60 -210 107l122 113q138 -59 271 -146l278 113l58 -123zM641 156
q155 0 254.5 100.5t99.5 253.5q0 156 -99 257t-249 101q-157 0 -258.5 -98.5t-101.5 -255.5t100.5 -257.5t253.5 -100.5z" />
    <glyph glyph-name="ntilde" unicode="&#xf1;" horiz-adv-x="1265" 
d="M735 1053q178 0 273.5 -105t95.5 -307v-641h-195v575q0 302 -243 302q-134 0 -216.5 -85t-82.5 -223v-569h-195v1032h195v-180q53 96 148.5 148.5t219.5 52.5zM322 1223q11 114 61 169.5t119 55.5q65 0 180 -49q86 -39 117 -39q63 0 75 88h125q-13 -112 -63 -168.5
t-121 -56.5q-56 0 -170 49q-88 39 -125 39q-26 0 -44.5 -19.5t-29.5 -68.5h-124z" />
    <glyph glyph-name="ograve" unicode="&#xf2;" horiz-adv-x="1282" 
d="M641 -20q-242 0 -395.5 150.5t-153.5 385.5q0 234 153.5 385.5t395.5 151.5q243 0 397 -151.5t154 -385.5q0 -235 -153.5 -385.5t-397.5 -150.5zM641 162q156 0 253 98.5t97 255.5q0 158 -97 256t-251 98q-157 0 -253.5 -98t-96.5 -256q0 -159 96.5 -256.5t251.5 -97.5z
M625 1178l-256 321h192l236 -321h-172z" />
    <glyph glyph-name="oacute" unicode="&#xf3;" horiz-adv-x="1282" 
d="M641 -20q-242 0 -395.5 150.5t-153.5 385.5q0 234 153.5 385.5t395.5 151.5q243 0 397 -151.5t154 -385.5q0 -235 -153.5 -385.5t-397.5 -150.5zM641 162q156 0 253 98.5t97 255.5q0 158 -97 256t-251 98q-157 0 -253.5 -98t-96.5 -256q0 -159 96.5 -256.5t251.5 -97.5z
M506 1178l231 321h195l-254 -321h-172z" />
    <glyph glyph-name="ocircumflex" unicode="&#xf4;" horiz-adv-x="1282" 
d="M641 -20q-242 0 -395.5 150.5t-153.5 385.5q0 234 153.5 385.5t395.5 151.5q243 0 397 -151.5t154 -385.5q0 -235 -153.5 -385.5t-397.5 -150.5zM641 162q156 0 253 98.5t97 255.5q0 158 -97 256t-251 98q-157 0 -253.5 -98t-96.5 -256q0 -159 96.5 -256.5t251.5 -97.5z
M289 1178l254 321h196l256 -321h-172l-182 206l-180 -206h-172z" />
    <glyph glyph-name="otilde" unicode="&#xf5;" horiz-adv-x="1282" 
d="M641 -20q-242 0 -395.5 150.5t-153.5 385.5q0 234 153.5 385.5t395.5 151.5q243 0 397 -151.5t154 -385.5q0 -235 -153.5 -385.5t-397.5 -150.5zM641 162q156 0 253 98.5t97 255.5q0 158 -97 256t-251 98q-157 0 -253.5 -98t-96.5 -256q0 -159 96.5 -256.5t251.5 -97.5z
M299 1223q11 114 61 169.5t119 55.5q65 0 180 -49q86 -39 117 -39q64 0 76 88h125q-13 -112 -63 -168.5t-121 -56.5q-56 0 -170 49q-88 39 -125 39q-26 0 -44.5 -19.5t-29.5 -68.5h-125z" />
    <glyph glyph-name="odieresis" unicode="&#xf6;" horiz-adv-x="1282" 
d="M641 -20q-242 0 -395.5 150.5t-153.5 385.5q0 234 153.5 385.5t395.5 151.5q243 0 397 -151.5t154 -385.5q0 -235 -153.5 -385.5t-397.5 -150.5zM641 162q156 0 253 98.5t97 255.5q0 158 -97 256t-251 98q-157 0 -253.5 -98t-96.5 -256q0 -159 96.5 -256.5t251.5 -97.5z
M418 1249q-49 0 -83 34.5t-34 84.5t33.5 83.5t83.5 33.5q51 0 85 -33.5t34 -83.5t-34 -84.5t-85 -34.5zM860 1249q-50 0 -84.5 34.5t-34.5 84.5q0 49 34.5 83t84.5 34t83.5 -33.5t33.5 -83.5t-34 -84.5t-83 -34.5z" />
    <glyph glyph-name="divide" unicode="&#xf7;" horiz-adv-x="1200" 
d="M600 930q-50 0 -84.5 34t-34.5 85q0 49 34.5 83.5t84.5 34.5t84.5 -34.5t34.5 -83.5q0 -51 -34.5 -85t-84.5 -34zM139 637v162h922v-162h-922zM600 268q-50 0 -84.5 34t-34.5 85q0 49 34.5 84t84.5 35t84.5 -35t34.5 -84q0 -51 -34.5 -85t-84.5 -34z" />
    <glyph glyph-name="oslash" unicode="&#xf8;" horiz-adv-x="1282" 
d="M1010 926q86 -75 134 -180.5t48 -229.5q0 -152 -71 -275t-197.5 -192t-282.5 -69q-135 0 -254 55l-100 -146h-160l149 215q-87 73 -135.5 179.5t-48.5 232.5q0 153 70.5 275.5t196.5 192t282 69.5q139 0 258 -58l96 140h160zM285 516q0 -154 98 -260l412 592
q-70 31 -154 31q-156 0 -256 -101t-100 -262zM641 154q156 0 257 101.5t101 260.5q0 153 -96 256l-411 -590q70 -28 149 -28z" />
    <glyph glyph-name="ugrave" unicode="&#xf9;" horiz-adv-x="1263" 
d="M899 1032h195v-1032h-195v180q-53 -96 -149.5 -148t-223.5 -52q-174 0 -270 104t-96 305v643h194v-577q0 -301 244 -301q134 0 217.5 85.5t83.5 221.5v571zM621 1178l-256 321h192l236 -321h-172z" />
    <glyph glyph-name="uacute" unicode="&#xfa;" horiz-adv-x="1263" 
d="M899 1032h195v-1032h-195v180q-53 -96 -149.5 -148t-223.5 -52q-174 0 -270 104t-96 305v643h194v-577q0 -301 244 -301q134 0 217.5 85.5t83.5 221.5v571zM502 1178l231 321h195l-254 -321h-172z" />
    <glyph glyph-name="ucircumflex" unicode="&#xfb;" horiz-adv-x="1263" 
d="M899 1032h195v-1032h-195v180q-53 -96 -149.5 -148t-223.5 -52q-174 0 -270 104t-96 305v643h194v-577q0 -301 244 -301q134 0 217.5 85.5t83.5 221.5v571zM285 1178l254 321h196l256 -321h-172l-182 206l-180 -206h-172z" />
    <glyph glyph-name="udieresis" unicode="&#xfc;" horiz-adv-x="1263" 
d="M899 1032h195v-1032h-195v180q-53 -96 -149.5 -148t-223.5 -52q-174 0 -270 104t-96 305v643h194v-577q0 -301 244 -301q134 0 217.5 85.5t83.5 221.5v571zM414 1249q-49 0 -83 34.5t-34 84.5t33.5 83.5t83.5 33.5q51 0 84.5 -33.5t33.5 -83.5t-33.5 -84.5t-84.5 -34.5z
M856 1249q-50 0 -84.5 34.5t-34.5 84.5q0 49 34.5 83t84.5 34t83.5 -33.5t33.5 -83.5t-34 -84.5t-83 -34.5z" />
    <glyph glyph-name="yacute" unicode="&#xfd;" horiz-adv-x="1034" 
d="M823 1032h205l-469 -1171q-61 -153 -152 -226t-227 -73q-78 0 -143 22l26 172q40 -14 84 -14q82 0 138 39t98 139l55 127l-432 985h213l320 -760zM387 1178l231 321h195l-254 -321h-172z" />
    <glyph glyph-name="thorn" unicode="&#xfe;" horiz-adv-x="1329" 
d="M743 1053q216 0 355 -151.5t139 -385.5q0 -233 -140.5 -384.5t-363.5 -151.5q-111 0 -210.5 52.5t-155.5 151.5v-614h-195v1970h195v-690q60 98 160.5 150.5t215.5 52.5zM705 160q148 0 240.5 99t92.5 257q0 156 -90.5 256t-240.5 100q-149 0 -250 -100t-101 -256
q0 -153 100.5 -254.5t248.5 -101.5z" />
    <glyph glyph-name="ydieresis" unicode="&#xff;" horiz-adv-x="1034" 
d="M823 1032h205l-469 -1171q-61 -153 -152 -226t-227 -73q-78 0 -143 22l26 172q40 -14 84 -14q82 0 138 39t98 139l55 127l-432 985h213l320 -760zM299 1249q-49 0 -83 34.5t-34 84.5t34 83.5t83 33.5q51 0 85 -33.5t34 -83.5t-34 -84.5t-85 -34.5zM741 1249
q-49 0 -83.5 34.5t-34.5 84.5q0 49 34 83t84 34q49 0 83 -33.5t34 -83.5t-34 -84.5t-83 -34.5z" />
    <glyph glyph-name="Amacron" unicode="&#x100;" horiz-adv-x="1396" 
d="M1141 0l-162 442h-567l-162 -442h-213l549 1454h225l551 -1454h-221zM473 614h442l-221 607zM358 1649v131h674v-131h-674z" />
    <glyph glyph-name="amacron" unicode="&#x101;" horiz-adv-x="1179" 
d="M594 1053q202 0 314 -102t112 -306v-645h-195v160q-52 -82 -147 -131t-221 -49q-160 0 -252 82t-92 223q0 177 165 253.5t547 79.5v23q0 115 -67.5 180.5t-196.5 65.5q-168 0 -330 -117l-49 162q76 52 183 86.5t229 34.5zM516 129q55 0 108 16t99 47t74 85.5t28 123.5v88
q-193 -2 -304.5 -23t-158.5 -62t-47 -109q0 -77 52.5 -121.5t148.5 -44.5zM260 1270v135h674v-135h-674z" />
    <glyph glyph-name="Abreve" unicode="&#x102;" horiz-adv-x="1396" 
d="M1141 0l-162 442h-567l-162 -442h-213l549 1454h225l551 -1454h-221zM473 614h442l-221 607zM698 1585q-145 0 -224.5 69.5t-84.5 186.5h141q6 -61 50.5 -95t119.5 -34q71 0 114.5 35t49.5 94h142q-6 -115 -89.5 -185.5t-218.5 -70.5z" />
    <glyph glyph-name="abreve" unicode="&#x103;" horiz-adv-x="1179" 
d="M594 1053q202 0 314 -102t112 -306v-645h-195v160q-52 -82 -147 -131t-221 -49q-160 0 -252 82t-92 223q0 177 165 253.5t547 79.5v23q0 115 -67.5 180.5t-196.5 65.5q-168 0 -330 -117l-49 162q76 52 183 86.5t229 34.5zM516 129q55 0 108 16t99 47t74 85.5t28 123.5v88
q-193 -2 -304.5 -23t-158.5 -62t-47 -109q0 -77 52.5 -121.5t148.5 -44.5zM598 1190q-142 0 -222 83.5t-83 225.5h141q4 -92 47.5 -137t118.5 -45q76 0 118.5 46t45.5 136h143q-3 -142 -84 -225.5t-225 -83.5z" />
    <glyph glyph-name="Aogonek" unicode="&#x104;" horiz-adv-x="1396" 
d="M1141 0l-162 442h-567l-162 -442h-213l549 1454h225l551 -1454h-10q-142 -62 -142 -178q0 -52 27 -77.5t72 -25.5q38 0 84 17l28 -115q-63 -29 -143 -29q-99 0 -158 53t-59 140q0 68 37.5 123.5t103.5 91.5h-61zM473 614h442l-221 607z" />
    <glyph glyph-name="aogonek" unicode="&#x105;" horiz-adv-x="1179" 
d="M1051 -264l28 -115q-63 -29 -143 -29q-99 0 -158 53t-59 140q0 68 37.5 123.5t103.5 91.5h-35v160q-52 -82 -147 -131t-221 -49q-160 0 -252 82t-92 223q0 177 165 253.5t547 79.5v23q0 115 -67.5 180.5t-196.5 65.5q-168 0 -330 -117l-49 162q76 52 183 86.5t229 34.5
q202 0 314 -102t112 -306v-645h-10q-142 -62 -142 -178q0 -52 27 -77.5t72 -25.5q38 0 84 17zM516 129q55 0 108 16t99 47t74 85.5t28 123.5v88q-193 -2 -304.5 -23t-158.5 -62t-47 -109q0 -77 52.5 -121.5t148.5 -44.5z" />
    <glyph glyph-name="Cacute" unicode="&#x106;" horiz-adv-x="1456" 
d="M868 -20q-216 0 -387.5 95.5t-267.5 266.5t-96 387q0 217 98 387.5t270.5 264.5t388.5 94q270 0 484 -152l-70 -193q-187 146 -407 146q-160 0 -285 -70.5t-193.5 -194.5t-68.5 -280q0 -240 153 -396.5t394 -156.5q232 0 438 152l61 -189q-220 -161 -512 -161zM727 1581
l240 301h209l-277 -301h-172z" />
    <glyph glyph-name="cacute" unicode="&#x107;" horiz-adv-x="1052" 
d="M612 -20q-228 0 -374 147.5t-146 384.5q0 240 149.5 390.5t383.5 150.5q192 0 350 -105l-62 -170q-128 94 -278 94q-152 0 -246 -98t-94 -258t92.5 -259t241.5 -99q161 0 311 102l47 -166q-155 -114 -375 -114zM477 1178l232 321h194l-254 -321h-172z" />
    <glyph glyph-name="Ccircumflex" unicode="&#x108;" horiz-adv-x="1456" 
d="M868 -20q-216 0 -387.5 95.5t-267.5 266.5t-96 387q0 217 98 387.5t270.5 264.5t388.5 94q270 0 484 -152l-70 -193q-187 146 -407 146q-160 0 -285 -70.5t-193.5 -194.5t-68.5 -280q0 -240 153 -396.5t394 -156.5q232 0 438 152l61 -189q-220 -161 -512 -161zM510 1581
l254 281h197l256 -281h-173l-182 162l-180 -162h-172z" />
    <glyph glyph-name="ccircumflex" unicode="&#x109;" horiz-adv-x="1052" 
d="M612 -20q-228 0 -374 147.5t-146 384.5q0 240 149.5 390.5t383.5 150.5q192 0 350 -105l-62 -170q-128 94 -278 94q-152 0 -246 -98t-94 -258t92.5 -259t241.5 -99q161 0 311 102l47 -166q-155 -114 -375 -114zM260 1178l254 321h197l256 -321h-172l-183 206l-180 -206
h-172z" />
    <glyph glyph-name="Cdotaccent" unicode="&#x10a;" horiz-adv-x="1456" 
d="M868 -20q-216 0 -387.5 95.5t-267.5 266.5t-96 387q0 217 98 387.5t270.5 264.5t388.5 94q270 0 484 -152l-70 -193q-187 146 -407 146q-160 0 -285 -70.5t-193.5 -194.5t-68.5 -280q0 -240 153 -396.5t394 -156.5q232 0 438 152l61 -189q-220 -161 -512 -161zM862 1602
q-56 0 -93.5 38t-37.5 93t37.5 93t93.5 38q55 0 92 -37.5t37 -93.5t-37 -93.5t-92 -37.5z" />
    <glyph glyph-name="cdotaccent" unicode="&#x10b;" horiz-adv-x="1052" 
d="M612 -20q-228 0 -374 147.5t-146 384.5q0 240 149.5 390.5t383.5 150.5q192 0 350 -105l-62 -170q-128 94 -278 94q-152 0 -246 -98t-94 -258t92.5 -259t241.5 -99q161 0 311 102l47 -166q-155 -114 -375 -114zM612 1233q-56 0 -93.5 37.5t-37.5 93.5t37.5 93.5
t93.5 37.5q55 0 92 -37.5t37 -93.5t-37 -93.5t-92 -37.5z" />
    <glyph glyph-name="Ccaron" unicode="&#x10c;" horiz-adv-x="1456" 
d="M868 -20q-216 0 -387.5 95.5t-267.5 266.5t-96 387q0 217 98 387.5t270.5 264.5t388.5 94q270 0 484 -152l-70 -193q-187 146 -407 146q-160 0 -285 -70.5t-193.5 -194.5t-68.5 -280q0 -240 153 -396.5t394 -156.5q232 0 438 152l61 -189q-220 -161 -512 -161zM1214 1860
l-253 -281h-197l-256 281h172l182 -162l180 162h172z" />
    <glyph glyph-name="ccaron" unicode="&#x10d;" horiz-adv-x="1052" 
d="M612 -20q-228 0 -374 147.5t-146 384.5q0 240 149.5 390.5t383.5 150.5q192 0 350 -105l-62 -170q-128 94 -278 94q-152 0 -246 -98t-94 -258t92.5 -259t241.5 -99q161 0 311 102l47 -166q-155 -114 -375 -114zM514 1178l-246 321h172l172 -205l172 205h172l-245 -321
h-197z" />
    <glyph glyph-name="Dcaron" unicode="&#x10e;" horiz-adv-x="1548" 
d="M690 1454q336 0 539 -197t203 -520q0 -332 -203 -534.5t-539 -202.5h-495v1454h495zM668 186q253 0 399.5 147.5t146.5 401.5q0 246 -146 389.5t-398 143.5h-264v-1082h262zM1106 1860l-254 -281h-197l-256 281h172l183 -162l180 162h172z" />
    <glyph glyph-name="dcaron" unicode="&#x10f;" horiz-adv-x="1564" 
d="M965 1540h194v-1542h-194v190q-116 -208 -375 -208q-218 0 -358 150.5t-140 383.5q0 236 140.5 387.5t357.5 151.5q123 0 222 -52.5t153 -152.5v692zM625 160q151 0 250.5 101.5t99.5 254.5q0 154 -99.5 255t-248.5 101q-148 0 -241 -98.5t-93 -259.5q0 -158 91.5 -256
t240.5 -98zM1315 1108l117 432h200l-157 -432h-160z" />
    <glyph glyph-name="Dcroat" unicode="&#x110;" horiz-adv-x="1548" 
d="M690 1454q336 0 539 -197t203 -520q0 -332 -203 -534.5t-539 -202.5h-495v641h-177v172h177v641h495zM668 186q253 0 399.5 147.5t146.5 401.5q0 246 -146 389.5t-398 143.5h-264v-455h382v-172h-382v-455h262z" />
    <glyph glyph-name="dcroat" unicode="&#x111;" horiz-adv-x="1323" 
d="M1296 1346v-148h-137v-1200h-194v188q-116 -206 -375 -206q-218 0 -358 147.5t-140 376.5q0 230 140.5 377t357.5 147q123 0 222 -51t153 -150v371h-353v148h353v194h194v-194h137zM625 154q151 0 250.5 100.5t99.5 251.5q0 149 -99.5 248.5t-248.5 99.5q-148 0 -241 -97
t-93 -253q0 -157 91.5 -253.5t240.5 -96.5z" />
    <glyph glyph-name="Emacron" unicode="&#x112;" horiz-adv-x="1187" 
d="M195 0v1454h831v-186h-620v-449h600v-182h-600v-451h634v-186h-845zM276 1649v131h674v-131h-674z" />
    <glyph glyph-name="emacron" unicode="&#x113;" horiz-adv-x="1175" 
d="M1096 512v-27h-807q9 -158 105 -246.5t255 -88.5q105 0 198 35t159 91l51 -159q-74 -61 -184 -99t-240 -38q-162 0 -286.5 71t-189.5 191.5t-65 271.5q0 154 67 277.5t184.5 192.5t262.5 69q218 0 354 -150.5t136 -390.5zM297 625h598q-15 120 -94 194t-195 74
q-114 0 -199 -74t-110 -194zM272 1270v135h674v-135h-674z" />
    <glyph glyph-name="Ebreve" unicode="&#x114;" horiz-adv-x="1187" 
d="M195 0v1454h831v-186h-620v-449h600v-182h-600v-451h634v-186h-845zM616 1585q-145 0 -224.5 69.5t-84.5 186.5h142q6 -62 50 -95.5t119 -33.5q71 0 114.5 35t49.5 94h142q-6 -115 -89.5 -185.5t-218.5 -70.5z" />
    <glyph glyph-name="ebreve" unicode="&#x115;" horiz-adv-x="1175" 
d="M1096 512v-27h-807q9 -158 105 -246.5t255 -88.5q105 0 198 35t159 91l51 -159q-74 -61 -184 -99t-240 -38q-162 0 -286.5 71t-189.5 191.5t-65 271.5q0 154 67 277.5t184.5 192.5t262.5 69q218 0 354 -150.5t136 -390.5zM297 625h598q-15 120 -94 194t-195 74
q-114 0 -199 -74t-110 -194zM610 1190q-142 0 -222 83.5t-83 225.5h141q4 -92 47.5 -137t118.5 -45q76 0 118.5 46t45.5 136h144q-3 -142 -84.5 -225.5t-225.5 -83.5z" />
    <glyph glyph-name="Edotaccent" unicode="&#x116;" horiz-adv-x="1187" 
d="M195 0v1454h831v-186h-620v-449h600v-182h-600v-451h634v-186h-845zM616 1602q-56 0 -93.5 38t-37.5 93t37.5 93t93.5 38q55 0 92 -37.5t37 -93.5t-37 -93.5t-92 -37.5z" />
    <glyph glyph-name="edotaccent" unicode="&#x117;" horiz-adv-x="1175" 
d="M1096 512v-27h-807q9 -158 105 -246.5t255 -88.5q105 0 198 35t159 91l51 -159q-74 -61 -184 -99t-240 -38q-162 0 -286.5 71t-189.5 191.5t-65 271.5q0 154 67 277.5t184.5 192.5t262.5 69q218 0 354 -150.5t136 -390.5zM297 625h598q-15 120 -94 194t-195 74
q-114 0 -199 -74t-110 -194zM612 1233q-56 0 -93.5 37.5t-37.5 93.5t37.5 93.5t93.5 37.5q55 0 92 -37.5t37 -93.5t-37 -93.5t-92 -37.5z" />
    <glyph glyph-name="Eogonek" unicode="&#x118;" horiz-adv-x="1187" 
d="M195 0v1454h831v-186h-620v-449h600v-182h-600v-451h634v-186h-67q-142 -62 -142 -178q0 -52 27 -77.5t72 -25.5q38 0 84 17l28 -115q-63 -29 -143 -29q-99 0 -158 53t-59 140q0 68 37.5 123.5t103.5 91.5h-628z" />
    <glyph glyph-name="eogonek" unicode="&#x119;" horiz-adv-x="1175" 
d="M1096 512v-27h-807q8 -152 103.5 -243.5t258.5 -91.5q101 0 195 34.5t162 87.5l49 -159q-25 -22 -68 -49t-79 -49.5t-71 -51t-55 -65t-20 -78.5q0 -50 26.5 -75.5t69.5 -25.5q38 0 84 17l29 -115q-63 -29 -142 -29q-99 0 -158 53t-59 140q0 126 117 199q-62 -4 -96 -4
q-163 0 -287.5 70.5t-190 191t-65.5 272.5q0 154 67 277.5t184.5 192.5t262.5 69q218 0 354 -150.5t136 -390.5zM297 625h598q-15 120 -94 194t-195 74q-114 0 -199 -74t-110 -194z" />
    <glyph glyph-name="Ecaron" unicode="&#x11a;" horiz-adv-x="1187" 
d="M195 0v1454h831v-186h-620v-449h600v-182h-600v-451h634v-186h-845zM969 1860l-254 -281h-197l-256 281h172l182 -162l181 162h172z" />
    <glyph glyph-name="ecaron" unicode="&#x11b;" horiz-adv-x="1175" 
d="M1096 512v-27h-807q9 -158 105 -246.5t255 -88.5q105 0 198 35t159 91l51 -159q-74 -61 -184 -99t-240 -38q-162 0 -286.5 71t-189.5 191.5t-65 271.5q0 154 67 277.5t184.5 192.5t262.5 69q218 0 354 -150.5t136 -390.5zM297 625h598q-15 120 -94 194t-195 74
q-114 0 -199 -74t-110 -194zM514 1178l-246 321h172l172 -205l172 205h172l-245 -321h-197z" />
    <glyph glyph-name="Gcircumflex" unicode="&#x11c;" horiz-adv-x="1658" 
d="M852 721h659v-721h-192v231q-64 -103 -193.5 -177t-308.5 -74q-201 0 -360.5 95t-249.5 265.5t-90 384.5q0 163 58 304t158.5 238t239.5 152.5t297 55.5q288 0 545 -175l-76 -194q-110 83 -222 126.5t-245 43.5q-234 0 -386 -151.5t-152 -399.5q0 -245 141.5 -396
t366.5 -151q103 0 191 32.5t145.5 86.5t91.5 119t39 133h-457v172zM502 1581l254 281h196l256 -281h-172l-182 162l-180 -162h-172z" />
    <glyph glyph-name="gcircumflex" unicode="&#x11d;" horiz-adv-x="1325" 
d="M965 1032h194v-997q0 -158 -70.5 -269t-191.5 -164t-283 -53q-263 0 -444 136l55 184q159 -141 389 -141q164 0 257.5 78.5t93.5 230.5v166q-119 -203 -373 -203q-218 0 -359 146.5t-141 375.5t139.5 380t360.5 151q243 0 373 -203v182zM633 174q150 0 244 100.5
t94 253.5q0 143 -97 248t-243 105q-151 0 -245.5 -102t-94.5 -255q0 -154 95.5 -252t246.5 -98zM289 1178l254 321h196l256 -321h-172l-182 206l-180 -206h-172z" />
    <glyph glyph-name="Gbreve" unicode="&#x11e;" horiz-adv-x="1658" 
d="M852 721h659v-721h-192v231q-64 -103 -193.5 -177t-308.5 -74q-201 0 -360.5 95t-249.5 265.5t-90 384.5q0 163 58 304t158.5 238t239.5 152.5t297 55.5q288 0 545 -175l-76 -194q-110 83 -222 126.5t-245 43.5q-234 0 -386 -151.5t-152 -399.5q0 -245 141.5 -396
t366.5 -151q103 0 191 32.5t145.5 86.5t91.5 119t39 133h-457v172zM854 1585q-145 0 -224.5 69.5t-84.5 186.5h141q6 -61 50.5 -95t119.5 -34q71 0 114.5 35t49.5 94h141q-6 -115 -89 -185.5t-218 -70.5z" />
    <glyph glyph-name="gbreve" unicode="&#x11f;" horiz-adv-x="1325" 
d="M965 1032h194v-997q0 -158 -70.5 -269t-191.5 -164t-283 -53q-263 0 -444 136l55 184q159 -141 389 -141q164 0 257.5 78.5t93.5 230.5v166q-119 -203 -373 -203q-218 0 -359 146.5t-141 375.5t139.5 380t360.5 151q243 0 373 -203v182zM633 174q150 0 244 100.5
t94 253.5q0 143 -97 248t-243 105q-151 0 -245.5 -102t-94.5 -255q0 -154 95.5 -252t246.5 -98zM639 1190q-142 0 -222 83.5t-83 225.5h141q4 -92 47.5 -137t118.5 -45q76 0 118.5 46t45.5 136h143q-3 -142 -84 -225.5t-225 -83.5z" />
    <glyph glyph-name="Gdotaccent" unicode="&#x120;" horiz-adv-x="1658" 
d="M852 721h659v-721h-192v231q-64 -103 -193.5 -177t-308.5 -74q-201 0 -360.5 95t-249.5 265.5t-90 384.5q0 163 58 304t158.5 238t239.5 152.5t297 55.5q288 0 545 -175l-76 -194q-110 83 -222 126.5t-245 43.5q-234 0 -386 -151.5t-152 -399.5q0 -245 141.5 -396
t366.5 -151q103 0 191 32.5t145.5 86.5t91.5 119t39 133h-457v172zM854 1602q-56 0 -93.5 38t-37.5 93t37.5 93t93.5 38q55 0 92 -37.5t37 -93.5t-37 -93.5t-92 -37.5z" />
    <glyph glyph-name="gdotaccent" unicode="&#x121;" horiz-adv-x="1325" 
d="M965 1032h194v-997q0 -158 -70.5 -269t-191.5 -164t-283 -53q-263 0 -444 136l55 184q159 -141 389 -141q164 0 257.5 78.5t93.5 230.5v166q-119 -203 -373 -203q-218 0 -359 146.5t-141 375.5t139.5 380t360.5 151q243 0 373 -203v182zM633 174q150 0 244 100.5
t94 253.5q0 143 -97 248t-243 105q-151 0 -245.5 -102t-94.5 -255q0 -154 95.5 -252t246.5 -98zM641 1233q-55 0 -93 37.5t-38 93.5t38 93.5t93 37.5t92 -37.5t37 -93.5t-37 -93.5t-92 -37.5z" />
    <glyph glyph-name="Gcommaaccent" unicode="&#x122;" horiz-adv-x="1658" 
d="M852 721h659v-721h-192v231q-64 -103 -193.5 -177t-308.5 -74q-201 0 -360.5 95t-249.5 265.5t-90 384.5q0 163 58 304t158.5 238t239.5 152.5t297 55.5q288 0 545 -175l-76 -194q-110 83 -222 126.5t-245 43.5q-234 0 -386 -151.5t-152 -399.5q0 -245 141.5 -396
t366.5 -151q103 0 191 32.5t145.5 86.5t91.5 119t39 133h-457v172zM608 -451l127 342h193l-156 -342h-164z" />
    <glyph glyph-name="gcommaaccent" unicode="&#x123;" horiz-adv-x="1325" 
d="M965 1032h194v-997q0 -158 -70.5 -269t-191.5 -164t-283 -53q-263 0 -444 136l55 184q159 -141 389 -141q164 0 257.5 78.5t93.5 230.5v166q-119 -203 -373 -203q-218 0 -359 146.5t-141 375.5t139.5 380t360.5 151q243 0 373 -203v182zM633 174q150 0 244 100.5
t94 253.5q0 143 -97 248t-243 105q-151 0 -245.5 -102t-94.5 -255q0 -154 95.5 -252t246.5 -98zM502 1178l172 350h166l-144 -350h-194z" />
    <glyph glyph-name="Hcircumflex" unicode="&#x124;" horiz-adv-x="1558" 
d="M1153 1454h209v-1454h-209v635h-747v-635h-211v1454h211v-633h747v633zM428 1581l254 281h197l256 -281h-172l-183 162l-180 -162h-172z" />
    <glyph glyph-name="hcircumflex" unicode="&#x125;" horiz-adv-x="1265" 
d="M733 1055q179 0 275 -104.5t96 -307.5v-643h-195v578q0 301 -243 301q-131 0 -215 -85t-84 -221v-573h-195v1540h195v-684q51 95 146 147t220 52zM-82 1624l254 281h197l256 -281h-172l-183 162l-180 -162h-172z" />
    <glyph glyph-name="Hbar" unicode="&#x126;" horiz-adv-x="1558" 
d="M1153 1454h209v-1454h-209v635h-747v-635h-211v1454h211v-223h747v223zM406 821h747v240h-747v-240z" />
    <glyph glyph-name="hbar" unicode="&#x127;" horiz-adv-x="1265" 
d="M733 1032q179 0 275 -104t96 -307v-621h-195v557q0 299 -243 299q-131 0 -215 -84.5t-84 -220.5v-551h-195v1196h-135v150h135v194h195v-194h346v-150h-346v-362q51 94 146 146t220 52z" />
    <glyph glyph-name="Itilde" unicode="&#x128;" horiz-adv-x="600" 
d="M195 0v1454h211v-1454h-211zM-41 1581q12 114 59.5 169.5t118.5 55.5q54 0 182 -51q8 -3 27.5 -10.5t29 -10.5t23.5 -7.5t25 -6.5t20 -2q31 0 46.5 20.5t21.5 67.5h125q-12 -107 -58.5 -166t-119.5 -59q-65 0 -176 49q-95 39 -127 39q-30 0 -45.5 -20t-26.5 -68h-125z
" />
    <glyph glyph-name="itilde" unicode="&#x129;" horiz-adv-x="536" 
d="M172 0v1032h195v-1032h-195zM-29 1223q18 225 166 225q52 0 148 -49q73 -39 102 -39q53 0 62 88h122q-21 -225 -165 -225q-50 0 -146 49q-76 39 -104 39q-48 0 -62 -88h-123z" />
    <glyph glyph-name="Imacron" unicode="&#x12a;" horiz-adv-x="600" 
d="M195 0v1454h211v-1454h-211zM-39 1649v131h674v-131h-674z" />
    <glyph glyph-name="imacron" unicode="&#x12b;" horiz-adv-x="536" 
d="M172 0v1032h195v-1032h-195zM-6 1270v137h551v-137h-551z" />
    <glyph glyph-name="Ibreve" unicode="&#x12c;" horiz-adv-x="600" 
d="M195 0v1454h211v-1454h-211zM301 1585q-145 0 -224.5 69.5t-84.5 186.5h141q6 -61 50.5 -95t119.5 -34q71 0 114.5 35t49.5 94h141q-6 -115 -89 -185.5t-218 -70.5z" />
    <glyph glyph-name="ibreve" unicode="&#x12d;" horiz-adv-x="536" 
d="M172 0v1032h195v-1032h-195zM270 1190q-134 0 -207.5 81.5t-76.5 227.5h141q4 -97 41.5 -139.5t103.5 -42.5q138 0 144 182h143q-3 -145 -79 -227t-210 -82z" />
    <glyph glyph-name="Iogonek" unicode="&#x12e;" horiz-adv-x="600" 
d="M195 0v1454h211v-1454h-11q-141 -62 -141 -178q0 -52 26.5 -77.5t71.5 -25.5q38 0 84 17l29 -115q-63 -29 -143 -29q-99 0 -158.5 53t-59.5 140q0 67 38 123t104 92h-51z" />
    <glyph glyph-name="iogonek" unicode="&#x12f;" horiz-adv-x="536" 
d="M172 0v1032h195v-1032h-11q-141 -62 -141 -178q0 -52 26.5 -77.5t71.5 -25.5q38 0 84 17l29 -115q-63 -29 -143 -29q-99 0 -158 53t-59 140q0 68 37.5 123.5t103.5 91.5h-35zM272 1233q-56 0 -93.5 37.5t-37.5 93.5t37.5 93.5t93.5 37.5q55 0 92 -37.5t37 -93.5
t-37 -93.5t-92 -37.5z" />
    <glyph glyph-name="Idotaccent" unicode="&#x130;" horiz-adv-x="600" 
d="M195 0v1454h211v-1454h-211zM301 1602q-55 0 -93 38t-38 93t38 93t93 38t92 -37.5t37 -93.5t-37 -93.5t-92 -37.5z" />
    <glyph glyph-name="dotlessi" unicode="&#x131;" horiz-adv-x="536" 
d="M172 0v1032h195v-1032h-195z" />
    <glyph glyph-name="IJ" unicode="&#x132;" horiz-adv-x="1443" 
d="M195 0v1454h211v-1454h-211zM834 -20q-129 0 -232 43l37 184q83 -39 168 -39q117 0 183.5 85t66.5 255v946h211v-971q0 -243 -115 -373t-319 -130z" />
    <glyph glyph-name="ij" unicode="&#x133;" horiz-adv-x="1075" 
d="M272 1233q-56 0 -93.5 37.5t-37.5 93.5t37.5 93.5t93.5 37.5q55 0 92 -37.5t37 -93.5t-37 -93.5t-92 -37.5zM172 0v1032h195v-1032h-195zM807 1233q-55 0 -93 37.5t-38 93.5t38 93.5t93 37.5t92 -37.5t37 -93.5t-37 -93.5t-92 -37.5zM631 -446q-84 0 -152 22l29 170
q38 -14 78 -14q67 0 95 40.5t28 147.5v1112h194v-1132q0 -180 -68.5 -263t-203.5 -83z" />
    <glyph glyph-name="Jcircumflex" unicode="&#x134;" horiz-adv-x="843" 
d="M233 -20q-128 0 -231 43l37 184q83 -39 168 -39q117 0 183.5 85t66.5 255v946h211v-971q0 -243 -115.5 -373t-319.5 -130zM211 1581l254 281h197l256 -281h-173l-182 162l-180 -162h-172z" />
    <glyph glyph-name="jcircumflex" unicode="&#x135;" horiz-adv-x="538" 
d="M94 -446q-83 0 -151 22l28 170q38 -14 78 -14q67 0 95 40.5t28 147.5v1112h195v-1132q0 -180 -68.5 -263t-204.5 -83zM-41 1178l213 321h197l215 -321h-172l-142 202l-139 -202h-172z" />
    <glyph glyph-name="Kcommaaccent" unicode="&#x136;" horiz-adv-x="1323" 
d="M1313 0h-271l-636 737v-737h-211v1454h211v-713l600 713h251l-602 -702zM479 -451l127 342h193l-156 -342h-164z" />
    <glyph glyph-name="kcommaaccent" unicode="&#x137;" horiz-adv-x="1095" 
d="M172 0v1540h195v-995l448 487h246l-463 -487l481 -545h-254l-458 532v-532h-195zM358 -451l127 342h193l-156 -342h-164z" />
    <glyph glyph-name="kgreenlandic" unicode="&#x138;" horiz-adv-x="1095" 
d="M172 0v1032h195v-487l448 487h246l-463 -487l481 -545h-254l-458 532v-532h-195z" />
    <glyph glyph-name="Lacute" unicode="&#x139;" horiz-adv-x="1067" 
d="M406 190h620v-190h-831v1454h211v-1264zM203 1581l239 301h209l-276 -301h-172z" />
    <glyph glyph-name="lacute" unicode="&#x13a;" horiz-adv-x="614" 
d="M410 -20q-116 0 -179 67.5t-63 204.5v1288h194v-1257q0 -129 99 -129q52 0 100 24l27 -160q-78 -38 -178 -38zM176 1624l240 301h209l-277 -301h-172z" />
    <glyph glyph-name="Lcommaaccent" unicode="&#x13b;" horiz-adv-x="1067" 
d="M406 190h620v-190h-831v1454h211v-1264zM401 -451l127 342h193l-156 -342h-164z" />
    <glyph glyph-name="lcommaaccent" unicode="&#x13c;" horiz-adv-x="614" 
d="M410 -20q-116 0 -179 67.5t-63 204.5v1288h194v-1257q0 -129 99 -129q52 0 100 24l27 -160q-78 -38 -178 -38zM141 -451l127 342h193l-156 -342h-164z" />
    <glyph glyph-name="Lcaron" unicode="&#x13d;" horiz-adv-x="1067" 
d="M406 190h620v-190h-831v1454h211v-1264zM682 1022l117 432h200l-157 -432h-160z" />
    <glyph glyph-name="lcaron" unicode="&#x13e;" horiz-adv-x="768" 
d="M410 -20q-116 0 -179 67.5t-63 204.5v1288h194v-1257q0 -129 99 -129q52 0 100 24l27 -160q-78 -38 -178 -38zM518 1108l117 432h201l-158 -432h-160z" />
    <glyph glyph-name="Ldot" unicode="&#x13f;" horiz-adv-x="1067" 
d="M406 190h620v-190h-831v1454h211v-1264zM838 680q-56 0 -93.5 38t-37.5 93t37.5 93t93.5 38q55 0 92 -37.5t37 -93.5t-37 -93.5t-92 -37.5z" />
    <glyph glyph-name="ldot" unicode="&#x140;" horiz-adv-x="681" 
d="M410 -20q-116 0 -179 67.5t-63 204.5v1288h194v-1257q0 -129 99 -129q52 0 100 24l27 -160q-78 -38 -178 -38zM608 692q-56 0 -93.5 38t-37.5 93t37.5 93t93.5 38q55 0 92 -37.5t37 -93.5t-37 -93.5t-92 -37.5z" />
    <glyph glyph-name="Lslash" unicode="&#x141;" horiz-adv-x="1067" 
d="M406 190h620v-190h-831v532l-144 -81v190l144 82v731h211v-610l299 172v-189l-299 -172v-465z" />
    <glyph glyph-name="lslash" unicode="&#x142;" horiz-adv-x="630" 
d="M569 178l27 -160q-78 -38 -178 -38q-116 0 -179 67.5t-63 204.5v395l-133 -78v174l133 78v719h195v-606l192 113v-175l-192 -112v-477q0 -129 98 -129q52 0 100 24z" />
    <glyph glyph-name="Nacute" unicode="&#x143;" horiz-adv-x="1593" 
d="M1196 1454h203v-1454h-199l-803 1126v-1126h-202v1454h200l801 -1130v1130zM676 1581l239 301h209l-276 -301h-172z" />
    <glyph glyph-name="nacute" unicode="&#x144;" horiz-adv-x="1265" 
d="M735 1053q178 0 273.5 -105t95.5 -307v-641h-195v575q0 302 -243 302q-134 0 -216.5 -85t-82.5 -223v-569h-195v1032h195v-180q53 96 148.5 148.5t219.5 52.5zM528 1178l232 321h194l-254 -321h-172z" />
    <glyph glyph-name="Ncommaaccent" unicode="&#x145;" horiz-adv-x="1593" 
d="M1196 1454h203v-1454h-199l-803 1126v-1126h-202v1454h200l801 -1130v1130zM573 -451l127 342h193l-156 -342h-164z" />
    <glyph glyph-name="ncommaaccent" unicode="&#x146;" horiz-adv-x="1265" 
d="M735 1053q178 0 273.5 -105t95.5 -307v-641h-195v575q0 302 -243 302q-134 0 -216.5 -85t-82.5 -223v-569h-195v1032h195v-180q53 96 148.5 148.5t219.5 52.5zM432 -451l127 342h193l-156 -342h-164z" />
    <glyph glyph-name="Ncaron" unicode="&#x147;" horiz-adv-x="1593" 
d="M1196 1454h203v-1454h-199l-803 1126v-1126h-202v1454h200l801 -1130v1130zM1163 1860l-254 -281h-196l-256 281h172l182 -162l180 162h172z" />
    <glyph glyph-name="ncaron" unicode="&#x148;" horiz-adv-x="1265" 
d="M735 1053q178 0 273.5 -105t95.5 -307v-641h-195v575q0 302 -243 302q-134 0 -216.5 -85t-82.5 -223v-569h-195v1032h195v-180q53 96 148.5 148.5t219.5 52.5zM565 1178l-246 321h173l172 -205l172 205h172l-246 -321h-197z" />
    <glyph glyph-name="napostrophe" unicode="&#x149;" horiz-adv-x="1353" 
d="M823 1053q178 0 273.5 -105t95.5 -307v-641h-195v575q0 302 -243 302q-134 0 -216.5 -85t-82.5 -223v-569h-195v1032h195v-180q53 96 148.5 148.5t219.5 52.5zM-78 1022l129 432h209l-172 -432h-166z" />
    <glyph glyph-name="Eng" unicode="&#x14a;" horiz-adv-x="1593" 
d="M1196 1454h203v-1431q0 -222 -115.5 -349t-312.5 -127q-127 0 -230 43l37 172q77 -36 160 -36q127 0 192.5 70.5t65.5 207.5v47l-799 1082v-1133h-202v1454h200l801 -1081v1081z" />
    <glyph glyph-name="eng" unicode="&#x14b;" horiz-adv-x="1265" 
d="M831 -446q-81 0 -149 22l29 170q38 -14 77 -14q66 0 93.5 40t27.5 148v655q0 302 -243 302q-134 0 -216.5 -85t-82.5 -223v-569h-195v1032h195v-184q52 97 147 151t223 54q175 0 271 -105t96 -307v-741q0 -183 -66.5 -264.5t-206.5 -81.5z" />
    <glyph glyph-name="Omacron" unicode="&#x14c;" horiz-adv-x="1753" 
d="M874 -20q-214 0 -386.5 94.5t-271.5 266t-99 386.5q0 216 98.5 387t272 266t389.5 95q215 0 387.5 -95t271 -265.5t98.5 -385.5q0 -161 -58 -300.5t-158.5 -238t-241.5 -154.5t-302 -56zM877 178q155 0 279 71t193.5 196.5t69.5 281.5q0 238 -153 393.5t-389 155.5
t-390.5 -155.5t-154.5 -393.5q0 -156 70 -281.5t195 -196.5t280 -71zM535 1649v131h673v-131h-673z" />
    <glyph glyph-name="omacron" unicode="&#x14d;" horiz-adv-x="1282" 
d="M641 -20q-242 0 -395.5 150.5t-153.5 385.5q0 234 153.5 385.5t395.5 151.5q243 0 397 -151.5t154 -385.5q0 -235 -153.5 -385.5t-397.5 -150.5zM641 162q156 0 253 98.5t97 255.5q0 158 -97 256t-251 98q-157 0 -253.5 -98t-96.5 -256q0 -159 96.5 -256.5t251.5 -97.5z
M301 1270v135h674v-135h-674z" />
    <glyph glyph-name="Obreve" unicode="&#x14e;" horiz-adv-x="1753" 
d="M874 -20q-214 0 -386.5 94.5t-271.5 266t-99 386.5q0 216 98.5 387t272 266t389.5 95q215 0 387.5 -95t271 -265.5t98.5 -385.5q0 -161 -58 -300.5t-158.5 -238t-241.5 -154.5t-302 -56zM877 178q155 0 279 71t193.5 196.5t69.5 281.5q0 238 -153 393.5t-389 155.5
t-390.5 -155.5t-154.5 -393.5q0 -156 70 -281.5t195 -196.5t280 -71zM874 1585q-145 0 -224.5 69.5t-84.5 186.5h142q6 -61 50.5 -95t119.5 -34q71 0 114 35t49 94h142q-6 -115 -89.5 -185.5t-218.5 -70.5z" />
    <glyph glyph-name="obreve" unicode="&#x14f;" horiz-adv-x="1282" 
d="M641 -20q-242 0 -395.5 150.5t-153.5 385.5q0 234 153.5 385.5t395.5 151.5q243 0 397 -151.5t154 -385.5q0 -235 -153.5 -385.5t-397.5 -150.5zM641 162q156 0 253 98.5t97 255.5q0 158 -97 256t-251 98q-157 0 -253.5 -98t-96.5 -256q0 -159 96.5 -256.5t251.5 -97.5z
M639 1190q-142 0 -222 83.5t-83 225.5h141q4 -92 47.5 -137t118.5 -45q76 0 118.5 46t45.5 136h143q-3 -142 -84 -225.5t-225 -83.5z" />
    <glyph glyph-name="Ohungarumlaut" unicode="&#x150;" horiz-adv-x="1753" 
d="M874 -20q-214 0 -386.5 94.5t-271.5 266t-99 386.5q0 216 98.5 387t272 266t389.5 95q215 0 387.5 -95t271 -265.5t98.5 -385.5q0 -161 -58 -300.5t-158.5 -238t-241.5 -154.5t-302 -56zM877 178q155 0 279 71t193.5 196.5t69.5 281.5q0 238 -153 393.5t-389 155.5
t-390.5 -155.5t-154.5 -393.5q0 -156 70 -281.5t195 -196.5t280 -71zM604 1581l246 303h194l-268 -303h-172zM938 1581l246 303h192l-266 -303h-172z" />
    <glyph glyph-name="ohungarumlaut" unicode="&#x151;" horiz-adv-x="1282" 
d="M641 -20q-242 0 -395.5 150.5t-153.5 385.5q0 234 153.5 385.5t395.5 151.5q243 0 397 -151.5t154 -385.5q0 -235 -153.5 -385.5t-397.5 -150.5zM641 162q156 0 253 98.5t97 255.5q0 158 -97 256t-251 98q-157 0 -253.5 -98t-96.5 -256q0 -159 96.5 -256.5t251.5 -97.5z
M348 1178l238 321h194l-260 -321h-172zM682 1178l238 321h192l-258 -321h-172z" />
    <glyph glyph-name="OE" unicode="&#x152;" horiz-adv-x="2412" 
d="M1630 186h635v-186h-846v219q-102 -112 -243.5 -175.5t-311.5 -63.5q-156 0 -293.5 55t-237.5 152t-158 237t-58 303q0 217 99.5 388.5t270.5 265.5t381 94q169 0 310 -62t241 -172v213h830v-186h-619v-449h600v-182h-600v-451zM874 180q154 0 278.5 70.5t194.5 196.5
t70 282q0 236 -152.5 390.5t-387.5 154.5q-234 0 -388.5 -154.5t-154.5 -392.5q0 -157 70 -282.5t193 -195t277 -69.5z" />
    <glyph glyph-name="oe" unicode="&#x153;" horiz-adv-x="2076" 
d="M1997 485h-805q0 -4 -2 -6q10 -155 106.5 -242t253.5 -87q105 0 198 35t159 91l51 -159q-74 -61 -184 -99t-240 -38q-145 0 -258 55.5t-184 154.5q-73 -100 -190 -155t-261 -55q-242 0 -395.5 150.5t-153.5 385.5q0 234 153.5 385.5t395.5 151.5q145 0 261.5 -56
t189.5 -157q70 101 178 157t237 56q218 0 354 -150.5t136 -390.5v-27zM1507 893q-114 0 -199 -74t-110 -194h598q-15 120 -94 194t-195 74zM641 162q156 0 253 98.5t97 255.5q0 158 -97 256t-251 98q-157 0 -253.5 -98t-96.5 -256q0 -159 96.5 -256.5t251.5 -97.5z" />
    <glyph glyph-name="Racute" unicode="&#x154;" horiz-adv-x="1310" 
d="M1257 0h-247l-371 590h-18h-215v-590h-211v1454h458q218 0 344.5 -115.5t126.5 -304.5q0 -138 -74 -246.5t-208 -160.5zM406 1276v-516h217q122 0 203 66t81 196t-78.5 192t-201.5 62h-221zM500 1581l239 301h209l-276 -301h-172z" />
    <glyph glyph-name="racute" unicode="&#x155;" horiz-adv-x="768" 
d="M625 1055q67 0 129 -25l-39 -188q-53 22 -107 22q-121 0 -182 -91t-61 -251v-522h-193v1032h193v-176q81 199 260 199zM328 1178l231 321h195l-254 -321h-172z" />
    <glyph glyph-name="Rcommaaccent" unicode="&#x156;" horiz-adv-x="1310" 
d="M1257 0h-247l-371 590h-18h-215v-590h-211v1454h458q218 0 344.5 -115.5t126.5 -304.5q0 -138 -74 -246.5t-208 -160.5zM406 1276v-516h217q122 0 203 66t81 196t-78.5 192t-201.5 62h-221zM473 -451l127 342h193l-156 -342h-164z" />
    <glyph glyph-name="rcommaaccent" unicode="&#x157;" horiz-adv-x="768" 
d="M625 1055q67 0 129 -25l-39 -188q-53 22 -107 22q-121 0 -182 -91t-61 -251v-522h-193v1032h193v-176q81 199 260 199zM37 -451l127 342h192l-155 -342h-164z" />
    <glyph glyph-name="Rcaron" unicode="&#x158;" horiz-adv-x="1310" 
d="M1257 0h-247l-371 590h-18h-215v-590h-211v1454h458q218 0 344.5 -115.5t126.5 -304.5q0 -138 -74 -246.5t-208 -160.5zM406 1276v-516h217q122 0 203 66t81 196t-78.5 192t-201.5 62h-221zM987 1860l-254 -281h-196l-256 281h172l182 -162l180 162h172z" />
    <glyph glyph-name="rcaron" unicode="&#x159;" horiz-adv-x="768" 
d="M625 1055q67 0 129 -25l-39 -188q-53 22 -107 22q-121 0 -182 -91t-61 -251v-522h-193v1032h193v-176q81 199 260 199zM776 1497l-213 -321h-196l-215 321h172l141 -203l139 203h172z" />
    <glyph glyph-name="Sacute" unicode="&#x15a;" horiz-adv-x="1200" 
d="M584 -20q-129 0 -251 38t-216 107l57 197q86 -69 198 -111.5t226 -42.5q127 0 197.5 57.5t70.5 163.5q0 26 -4.5 48t-17 41.5t-24 34.5t-36 30.5t-43 26t-55 26t-60.5 25t-71 26.5q-76 28 -129 52t-108.5 60.5t-89 78t-55 100t-21.5 129.5q0 189 131.5 299.5t347.5 110.5
q108 0 215 -28t184 -71l-55 -186q-75 43 -168 69.5t-180 26.5q-122 0 -194.5 -55t-72.5 -148q0 -41 15.5 -75t38.5 -58t67 -48.5t82 -40.5t103 -40q171 -64 235 -102q130 -77 162 -204q12 -48 12 -107q0 -202 -134 -316t-357 -114zM473 1581l240 301h209l-277 -301h-172z
" />
    <glyph glyph-name="sacute" unicode="&#x15b;" horiz-adv-x="989" 
d="M481 -20q-107 0 -208.5 29.5t-161.5 78.5l47 162q63 -52 152.5 -84.5t181.5 -32.5t144 37t52 104q0 28 -11 49.5t-27.5 37t-51 31t-64 25.5t-85.5 27q-57 17 -95 31.5t-82.5 40t-70.5 54.5t-44 73.5t-18 99.5q0 144 104 227t277 83q181 0 324 -86l-39 -160
q-137 92 -289 92q-83 0 -133.5 -34.5t-50.5 -96.5q0 -34 15.5 -59t49.5 -43.5t65.5 -29.5t86.5 -26q62 -17 108 -34t90 -42.5t71.5 -56.5t44 -75.5t16.5 -98.5q0 -147 -106 -235t-292 -88zM369 1178l231 321h195l-254 -321h-172z" />
    <glyph glyph-name="Scircumflex" unicode="&#x15c;" horiz-adv-x="1200" 
d="M584 -20q-129 0 -251 38t-216 107l57 197q86 -69 198 -111.5t226 -42.5q127 0 197.5 57.5t70.5 163.5q0 26 -4.5 48t-17 41.5t-24 34.5t-36 30.5t-43 26t-55 26t-60.5 25t-71 26.5q-76 28 -129 52t-108.5 60.5t-89 78t-55 100t-21.5 129.5q0 189 131.5 299.5t347.5 110.5
q108 0 215 -28t184 -71l-55 -186q-75 43 -168 69.5t-180 26.5q-122 0 -194.5 -55t-72.5 -148q0 -41 15.5 -75t38.5 -58t67 -48.5t82 -40.5t103 -40q171 -64 235 -102q130 -77 162 -204q12 -48 12 -107q0 -202 -134 -316t-357 -114zM256 1581l254 281h197l256 -281h-172
l-183 162l-180 -162h-172z" />
    <glyph glyph-name="scircumflex" unicode="&#x15d;" horiz-adv-x="989" 
d="M481 -20q-107 0 -208.5 29.5t-161.5 78.5l47 162q63 -52 152.5 -84.5t181.5 -32.5t144 37t52 104q0 28 -11 49.5t-27.5 37t-51 31t-64 25.5t-85.5 27q-57 17 -95 31.5t-82.5 40t-70.5 54.5t-44 73.5t-18 99.5q0 144 104 227t277 83q181 0 324 -86l-39 -160
q-137 92 -289 92q-83 0 -133.5 -34.5t-50.5 -96.5q0 -34 15.5 -59t49.5 -43.5t65.5 -29.5t86.5 -26q62 -17 108 -34t90 -42.5t71.5 -56.5t44 -75.5t16.5 -98.5q0 -147 -106 -235t-292 -88zM152 1178l254 321h196l256 -321h-172l-182 206l-180 -206h-172z" />
    <glyph glyph-name="Scedilla" unicode="&#x15e;" horiz-adv-x="1200" 
d="M1075 410q0 -192 -121 -304.5t-325 -123.5v-64q63 -19 98 -61.5t35 -104.5q0 -94 -75.5 -147.5t-233.5 -53.5v123q90 0 126.5 21t36.5 61q0 36 -28.5 54t-73.5 18v154q-227 19 -397 143l57 197q86 -69 198 -111.5t226 -42.5q127 0 197.5 57.5t70.5 163.5q0 26 -4.5 48
t-17 41.5t-24 34.5t-36 30.5t-43 26t-55 26t-60.5 25t-71 26.5q-76 28 -129 52t-108.5 60.5t-89 78t-55 100t-21.5 129.5q0 189 131.5 299.5t347.5 110.5q108 0 215 -28t184 -71l-55 -186q-75 43 -168 69.5t-180 26.5q-122 0 -194.5 -55t-72.5 -148q0 -41 15.5 -75t38.5 -58
t67 -48.5t82 -40.5t103 -40q171 -64 235 -102q130 -77 162 -204q12 -48 12 -107z" />
    <glyph glyph-name="scedilla" unicode="&#x15f;" horiz-adv-x="989" 
d="M879 303q0 -135 -91.5 -222t-255.5 -99v-64q63 -19 98.5 -61.5t35.5 -104.5q0 -94 -76 -147.5t-234 -53.5v123q90 0 127 21t37 61q0 36 -28.5 54t-73.5 18v154q-92 9 -174.5 37t-132.5 69l47 162q63 -52 152.5 -84.5t181.5 -32.5t144 37t52 104q0 28 -11 49.5t-27.5 37
t-51 31t-64 25.5t-85.5 27q-57 17 -95 31.5t-82.5 40t-70.5 54.5t-44 73.5t-18 99.5q0 144 104 227t277 83q181 0 324 -86l-39 -160q-137 92 -289 92q-83 0 -133.5 -34.5t-50.5 -96.5q0 -34 15.5 -59t49.5 -43.5t65.5 -29.5t86.5 -26q62 -17 108 -34t90 -42.5t71.5 -56.5
t44 -75.5t16.5 -98.5z" />
    <glyph glyph-name="Scaron" unicode="&#x160;" horiz-adv-x="1200" 
d="M584 -20q-129 0 -251 38t-216 107l57 197q86 -69 198 -111.5t226 -42.5q127 0 197.5 57.5t70.5 163.5q0 26 -4.5 48t-17 41.5t-24 34.5t-36 30.5t-43 26t-55 26t-60.5 25t-71 26.5q-76 28 -129 52t-108.5 60.5t-89 78t-55 100t-21.5 129.5q0 189 131.5 299.5t347.5 110.5
q108 0 215 -28t184 -71l-55 -186q-75 43 -168 69.5t-180 26.5q-122 0 -194.5 -55t-72.5 -148q0 -41 15.5 -75t38.5 -58t67 -48.5t82 -40.5t103 -40q171 -64 235 -102q130 -77 162 -204q12 -48 12 -107q0 -202 -134 -316t-357 -114zM961 1860l-254 -281h-197l-256 281h172
l182 -162l180 162h173z" />
    <glyph glyph-name="scaron" unicode="&#x161;" horiz-adv-x="989" 
d="M481 -20q-107 0 -208.5 29.5t-161.5 78.5l47 162q63 -52 152.5 -84.5t181.5 -32.5t144 37t52 104q0 28 -11 49.5t-27.5 37t-51 31t-64 25.5t-85.5 27q-57 17 -95 31.5t-82.5 40t-70.5 54.5t-44 73.5t-18 99.5q0 144 104 227t277 83q181 0 324 -86l-39 -160
q-137 92 -289 92q-83 0 -133.5 -34.5t-50.5 -96.5q0 -34 15.5 -59t49.5 -43.5t65.5 -29.5t86.5 -26q62 -17 108 -34t90 -42.5t71.5 -56.5t44 -75.5t16.5 -98.5q0 -147 -106 -235t-292 -88zM406 1178l-246 321h172l172 -205l172 205h172l-246 -321h-196z" />
    <glyph glyph-name="uni0162" unicode="&#x162;" horiz-adv-x="1095" 
d="M655 0h-51v-82q63 -19 98 -61.5t35 -104.5q0 -94 -75.5 -147.5t-233.5 -53.5v123q90 0 127 21t37 61q0 36 -29 54t-74 18v172h-43v1268h-399v186h1002v-186h-394v-1268z" />
    <glyph glyph-name="uni0163" unicode="&#x163;" horiz-adv-x="772" 
d="M508 -82q63 -19 98 -61.5t35 -104.5q0 -94 -75.5 -147.5t-233.5 -53.5v123q90 0 127 21t37 61q0 36 -29 54t-74 18v168q-176 59 -176 291v579h-149v166h149v297l195 27v-324h290v-166h-290v-555q0 -76 35 -114.5t100 -38.5q88 0 182 59l33 -162q-44 -33 -111 -54
t-143 -21v-62z" />
    <glyph glyph-name="Tcaron" unicode="&#x164;" horiz-adv-x="1095" 
d="M1049 1454v-186h-394v-1268h-209v1268h-399v186h1002zM899 1860l-254 -281h-196l-256 281h172l182 -162l180 162h172z" />
    <glyph glyph-name="tcaron" unicode="&#x165;" horiz-adv-x="806" 
d="M504 -20q-134 0 -210.5 77.5t-76.5 229.5v579h-149v166h149v297l195 27v-324h290v-166h-290v-555q0 -76 35 -114.5t100 -38.5q88 0 182 59l33 -162q-44 -33 -112 -54t-146 -21zM612 1157l117 432h201l-158 -432h-160z" />
    <glyph glyph-name="Tbar" unicode="&#x166;" horiz-adv-x="1095" 
d="M1049 1268h-394v-402h324v-186h-324v-680h-209v680h-323v186h323v402h-399v186h1002v-186z" />
    <glyph glyph-name="tbar" unicode="&#x167;" horiz-adv-x="772" 
d="M729 217l33 -162q-44 -33 -112 -54t-146 -21q-134 0 -210.5 77.5t-76.5 229.5v225h-149v143h149v211h-149v166h149v297l195 27v-324h290v-166h-290v-211h290v-143h-290v-201q0 -76 35 -114.5t100 -38.5q88 0 182 59z" />
    <glyph glyph-name="Utilde" unicode="&#x168;" horiz-adv-x="1515" 
d="M758 -20q-267 0 -420.5 151t-153.5 406v917h209v-887q0 -191 99.5 -290t265.5 -99t265 98.5t99 290.5v887h209v-917q0 -255 -153 -406t-420 -151zM418 1581q12 114 59.5 169.5t118.5 55.5q54 0 182 -51q8 -3 27.5 -10.5t29 -10.5t23.5 -7.5t25 -6.5t20 -2q31 0 46.5 20.5
t21.5 67.5h125q-12 -107 -58.5 -166t-119.5 -59q-66 0 -177 49q-95 39 -127 39q-30 0 -45 -20t-26 -68h-125z" />
    <glyph glyph-name="utilde" unicode="&#x169;" horiz-adv-x="1263" 
d="M899 1032h195v-1032h-195v180q-53 -96 -149.5 -148t-223.5 -52q-174 0 -270 104t-96 305v643h194v-577q0 -301 244 -301q134 0 217.5 85.5t83.5 221.5v571zM295 1223q11 114 61 169.5t119 55.5q65 0 180 -49q86 -39 117 -39q64 0 76 88h125q-13 -112 -63.5 -168.5
t-121.5 -56.5q-56 0 -170 49q-88 39 -124 39q-26 0 -44.5 -19.5t-29.5 -68.5h-125z" />
    <glyph glyph-name="Umacron" unicode="&#x16a;" horiz-adv-x="1515" 
d="M758 -20q-267 0 -420.5 151t-153.5 406v917h209v-887q0 -191 99.5 -290t265.5 -99t265 98.5t99 290.5v887h209v-917q0 -255 -153 -406t-420 -151zM420 1649v131h674v-131h-674z" />
    <glyph glyph-name="umacron" unicode="&#x16b;" horiz-adv-x="1263" 
d="M899 1032h195v-1032h-195v180q-53 -96 -149.5 -148t-223.5 -52q-174 0 -270 104t-96 305v643h194v-577q0 -301 244 -301q134 0 217.5 85.5t83.5 221.5v571zM297 1270v135h674v-135h-674z" />
    <glyph glyph-name="Ubreve" unicode="&#x16c;" horiz-adv-x="1515" 
d="M758 -20q-267 0 -420.5 151t-153.5 406v917h209v-887q0 -191 99.5 -290t265.5 -99t265 98.5t99 290.5v887h209v-917q0 -255 -153 -406t-420 -151zM760 1585q-145 0 -224.5 69.5t-84.5 186.5h141q6 -61 50.5 -95t119.5 -34q71 0 114.5 35t49.5 94h141q-6 -115 -89 -185.5
t-218 -70.5z" />
    <glyph glyph-name="ubreve" unicode="&#x16d;" horiz-adv-x="1263" 
d="M899 1032h195v-1032h-195v180q-53 -96 -149.5 -148t-223.5 -52q-174 0 -270 104t-96 305v643h194v-577q0 -301 244 -301q134 0 217.5 85.5t83.5 221.5v571zM635 1190q-142 0 -222 83.5t-83 225.5h141q4 -92 47.5 -137t118.5 -45q76 0 118.5 46t45.5 136h143
q-3 -142 -84 -225.5t-225 -83.5z" />
    <glyph glyph-name="Uring" unicode="&#x16e;" horiz-adv-x="1515" 
d="M758 -20q-267 0 -420.5 151t-153.5 406v917h209v-887q0 -191 99.5 -290t265.5 -99t265 98.5t99 290.5v887h209v-917q0 -255 -153 -406t-420 -151zM760 1524q-93 0 -153 60t-60 147q0 88 60.5 148t152.5 60q91 0 152 -60t61 -148q0 -89 -61.5 -148t-151.5 -59zM760 1638
q40 0 66 27t26 66t-25 65.5t-67 26.5q-41 0 -66.5 -26t-25.5 -66q0 -39 26 -66t66 -27z" />
    <glyph glyph-name="uring" unicode="&#x16f;" horiz-adv-x="1263" 
d="M899 1032h195v-1032h-195v180q-53 -96 -149.5 -148t-223.5 -52q-174 0 -270 104t-96 305v643h194v-577q0 -301 244 -301q134 0 217.5 85.5t83.5 221.5v571zM637 1153q-95 0 -154 59.5t-59 147.5q0 90 61 149.5t154 59.5q92 0 152.5 -59t60.5 -150t-62 -149t-153 -58z
M639 1268q41 0 66.5 26t25.5 66t-25 66t-67 26q-41 0 -66.5 -25.5t-25.5 -66.5q0 -40 25.5 -66t66.5 -26z" />
    <glyph glyph-name="Uhungarumlaut" unicode="&#x170;" horiz-adv-x="1515" 
d="M758 -20q-267 0 -420.5 151t-153.5 406v917h209v-887q0 -191 99.5 -290t265.5 -99t265 98.5t99 290.5v887h209v-917q0 -255 -153 -406t-420 -151zM489 1581l246 303h195l-268 -303h-173zM823 1581l246 303h193l-267 -303h-172z" />
    <glyph glyph-name="uhungarumlaut" unicode="&#x171;" horiz-adv-x="1263" 
d="M899 1032h195v-1032h-195v180q-53 -96 -149.5 -148t-223.5 -52q-174 0 -270 104t-96 305v643h194v-577q0 -301 244 -301q134 0 217.5 85.5t83.5 221.5v571zM344 1178l238 321h194l-260 -321h-172zM678 1178l237 321h193l-258 -321h-172z" />
    <glyph glyph-name="Uogonek" unicode="&#x172;" horiz-adv-x="1515" 
d="M1122 1454h209v-915q0 -85 -18.5 -157t-53 -128t-71.5 -96.5t-86 -79.5q-39 -30 -60 -48t-53 -52.5t-47.5 -73.5t-15.5 -82q0 -103 98 -103q36 0 82 17l29 -115q-63 -29 -142 -29q-100 0 -158.5 53t-58.5 142q0 124 98 203q-49 -10 -118 -10q-130 0 -238.5 44t-181 119.5
t-112.5 177.5t-40 218v915h209v-893q0 -178 101 -280.5t264 -102.5t263.5 102.5t100.5 280.5v893z" />
    <glyph glyph-name="uogonek" unicode="&#x173;" horiz-adv-x="1263" 
d="M1135 -264l28 -115q-63 -29 -143 -29q-99 0 -158 53t-59 140q0 68 37.5 123.5t103.5 91.5h-45v180q-53 -96 -149.5 -148t-223.5 -52q-174 0 -270 104t-96 305v643h194v-577q0 -301 244 -301q134 0 217.5 85.5t83.5 221.5v571h195v-1032q-142 -62 -142 -178
q0 -52 27 -77.5t72 -25.5q38 0 84 17z" />
    <glyph glyph-name="Wcircumflex" unicode="&#x174;" horiz-adv-x="2037" 
d="M1792 1454h211l-422 -1454h-217l-344 1155l-346 -1155h-217l-420 1454h225l322 -1165l342 1165h209l340 -1157zM676 1581l254 281h196l256 -281h-172l-182 162l-180 -162h-172z" />
    <glyph glyph-name="wcircumflex" unicode="&#x175;" horiz-adv-x="1634" 
d="M1403 1032h205l-336 -1032h-201l-250 770l-248 -770h-200l-346 1032h215l245 -799l252 799h168l254 -790zM469 1178l254 321h197l256 -321h-172l-183 206l-180 -206h-172z" />
    <glyph glyph-name="Ycircumflex" unicode="&#x176;" horiz-adv-x="1214" 
d="M1217 1454l-506 -876v-578h-207v575l-506 879h231l389 -682l388 682h211zM252 1581l254 281h196l256 -281h-172l-182 162l-180 -162h-172z" />
    <glyph glyph-name="ycircumflex" unicode="&#x177;" horiz-adv-x="1034" 
d="M823 1032h205l-469 -1171q-61 -153 -152 -226t-227 -73q-78 0 -143 22l26 172q40 -14 84 -14q82 0 138 39t98 139l55 127l-432 985h213l320 -760zM170 1178l254 321h197l256 -321h-172l-183 206l-180 -206h-172z" />
    <glyph glyph-name="Ydieresis" unicode="&#x178;" horiz-adv-x="1214" 
d="M1217 1454l-506 -876v-578h-207v575l-506 879h231l389 -682l388 682h211zM385 1616q-49 0 -83 34.5t-34 84.5q0 49 33.5 82.5t83.5 33.5q51 0 85 -33t34 -83t-34 -84.5t-85 -34.5zM827 1616q-49 0 -83.5 34.5t-34.5 84.5q0 49 34 82.5t84 33.5t83.5 -33.5t33.5 -82.5
q0 -50 -34 -84.5t-83 -34.5z" />
    <glyph glyph-name="Zacute" unicode="&#x179;" horiz-adv-x="1259" 
d="M408 186h739v-186h-1026v113l735 1155h-709v186h992v-113zM500 1581l239 301h209l-276 -301h-172z" />
    <glyph glyph-name="zacute" unicode="&#x17a;" horiz-adv-x="1013" 
d="M86 0v86l547 780h-524v166h804v-90l-536 -776h547v-166h-838zM373 1178l231 321h195l-254 -321h-172z" />
    <glyph glyph-name="Zdotaccent" unicode="&#x17b;" horiz-adv-x="1259" 
d="M408 186h739v-186h-1026v113l735 1155h-709v186h992v-113zM635 1602q-55 0 -93 38t-38 93t38 93t93 38t92 -37.5t37 -93.5t-37 -93.5t-92 -37.5z" />
    <glyph glyph-name="zdotaccent" unicode="&#x17c;" horiz-adv-x="1013" 
d="M86 0v86l547 780h-524v166h804v-90l-536 -776h547v-166h-838zM508 1233q-56 0 -93.5 37.5t-37.5 93.5t37.5 93.5t93.5 37.5q55 0 92 -37.5t37 -93.5t-37 -93.5t-92 -37.5z" />
    <glyph glyph-name="Zcaron" unicode="&#x17d;" horiz-adv-x="1259" 
d="M408 186h739v-186h-1026v113l735 1155h-709v186h992v-113zM987 1860l-254 -281h-196l-256 281h172l182 -162l180 162h172z" />
    <glyph glyph-name="zcaron" unicode="&#x17e;" horiz-adv-x="1013" 
d="M86 0v86l547 780h-524v166h804v-90l-536 -776h547v-166h-838zM410 1178l-246 321h172l172 -205l172 205h172l-246 -321h-196z" />
    <glyph glyph-name="uni018F" unicode="&#x18f;" horiz-adv-x="1564" 
d="M696 1475q215 0 387 -95.5t268.5 -267t96.5 -387.5q0 -163 -52.5 -303t-144 -238t-219.5 -153.5t-276 -55.5q-317 0 -492.5 198t-175.5 544v41h1141q-15 232 -165 375t-380 143q-232 0 -438 -152l-62 189q222 162 512 162zM758 174q172 0 299 109.5t162 298.5h-897
q15 -187 133 -297.5t303 -110.5z" />
    <glyph glyph-name="florin" unicode="&#x192;" horiz-adv-x="1200" 
d="M236 -367q-115 0 -209 48l69 167q62 -36 137 -36q132 0 168 200l150 854h-176l28 166h179l28 162q30 175 123.5 264.5t233.5 89.5q116 0 202 -51l-63 -164q-64 39 -137 39q-134 0 -168 -190l-25 -150h246l-29 -166h-248l-153 -876q-31 -177 -125.5 -267t-230.5 -90z" />
    <glyph glyph-name="Ohorn" unicode="&#x1a0;" horiz-adv-x="1753" 
d="M1407 1274q110 -98 168.5 -238.5t58.5 -306.5q0 -161 -58 -300.5t-158.5 -238t-241.5 -154.5t-302 -56q-214 0 -386.5 94.5t-271.5 266.5t-99 388q0 215 98 385.5t273 265.5t397 95q133 0 266 -45q112 -35 156 -35q84 0 139 51.5t55 130.5q0 71 -35 139l154 41
q45 -86 45 -188q0 -109 -64 -187t-194 -108zM877 178q155 0 279 71t193.5 196.5t69.5 281.5q0 238 -153 393.5t-389 155.5t-390.5 -155.5t-154.5 -393.5q0 -156 70 -281.5t195 -196.5t280 -71z" />
    <glyph glyph-name="ohorn" unicode="&#x1a1;" horiz-adv-x="1282" 
d="M1247 1139q0 -106 -50.5 -172.5t-135.5 -87.5q131 -147 131 -363q0 -235 -153.5 -385.5t-397.5 -150.5q-242 0 -395.5 150.5t-153.5 385.5q0 234 154 385.5t397 151.5q72 0 186 -31q76 -18 111 -18q72 0 107.5 32.5t35.5 108.5q0 72 -34 135l153 41q45 -80 45 -182z
M643 162q155 0 251.5 98.5t96.5 255.5q0 158 -97 256t-253 98q-155 0 -251.5 -98t-96.5 -256q0 -159 97 -256.5t253 -97.5z" />
    <glyph glyph-name="Uhorn" unicode="&#x1af;" horiz-adv-x="1515" 
d="M1534 1575q0 -87 -51 -150t-152 -90v-798q0 -255 -153 -406t-420 -151t-420.5 151t-153.5 406v917h209v-887q0 -191 99.5 -290t265.5 -99t265 98.5t99 290.5v887h49q102 0 151.5 28t49.5 99q0 77 -37 133l156 43q43 -85 43 -182z" />
    <glyph glyph-name="uhorn" unicode="&#x1b0;" horiz-adv-x="1263" 
d="M1288 1153q0 -86 -48.5 -147.5t-145.5 -90.5v-915h-195v180q-53 -96 -149.5 -148t-223.5 -52q-174 0 -270 104t-96 305v643h194v-577q0 -301 244 -301q134 0 217.5 85.5t83.5 221.5v571h27q102 0 151 28t49 99q0 78 -36 133l155 43q43 -85 43 -182z" />
    <glyph glyph-name="Aringacute" unicode="&#x1fa;" horiz-adv-x="1396" 
d="M1012 2097l-277 -301h-172l240 301h209zM1141 0l-162 442h-567l-162 -442h-213l526 1395q-78 59 -78 161q0 88 60.5 148.5t152.5 60.5q90 0 151.5 -60.5t61.5 -148.5q0 -100 -77 -161l528 -1395h-221zM698 1649q-41 0 -66.5 -26.5t-25.5 -66.5q0 -39 25.5 -65.5
t66.5 -26.5t67 26.5t26 65.5t-25.5 66t-67.5 27zM473 614h442l-221 607z" />
    <glyph glyph-name="aringacute" unicode="&#x1fb;" horiz-adv-x="1179" 
d="M594 1053q202 0 314 -102t112 -306v-645h-195v160q-52 -82 -147 -131t-221 -49q-160 0 -252 82t-92 223q0 177 165 253.5t547 79.5v23q0 115 -67.5 180.5t-196.5 65.5q-168 0 -330 -117l-49 162q76 52 183 86.5t229 34.5zM516 129q55 0 108 16t99 47t74 85.5t28 123.5v88
q-193 -2 -304.5 -23t-158.5 -62t-47 -109q0 -77 52.5 -121.5t148.5 -44.5zM600 1153q-95 0 -154 59.5t-59 147.5q0 90 61 149.5t154 59.5q92 0 152.5 -59t60.5 -150t-62 -149t-153 -58zM602 1268q41 0 66.5 26t25.5 66t-25 66t-67 26q-41 0 -66.5 -25.5t-25.5 -66.5
q0 -40 25.5 -66t66.5 -26zM465 1716l231 322h195l-254 -322h-172z" />
    <glyph glyph-name="AEacute" unicode="&#x1fc;" horiz-adv-x="1892" 
d="M1108 186h637v-186h-848v442h-481l-166 -442h-213l549 1454h1143v-186h-621v-449h602v-182h-602v-451zM481 614h416v652h-172zM844 1581l239 301h209l-276 -301h-172z" />
    <glyph glyph-name="aeacute" unicode="&#x1fd;" horiz-adv-x="1912" 
d="M1833 512v-27h-807q9 -158 105 -246.5t255 -88.5q105 0 198 35t159 91l51 -159q-74 -61 -184 -99t-240 -38q-152 0 -269 61t-188 170q-147 -231 -446 -231q-163 0 -258.5 79.5t-95.5 227.5q0 174 166 251t546 80v23q0 115 -67 180.5t-195 65.5q-170 0 -332 -117l-49 162
q175 121 418 121q261 0 363 -168q70 79 168 123.5t212 44.5q218 0 354 -150.5t136 -390.5zM1034 625h598q-15 120 -94 194t-195 74q-114 0 -199 -74t-110 -194zM516 129q55 0 107.5 16t98.5 48.5t74.5 89t28.5 129.5v77q-193 -3 -304 -24t-158.5 -61.5t-47.5 -108.5
q0 -77 52.5 -121.5t148.5 -44.5zM827 1178l232 321h194l-254 -321h-172z" />
    <glyph glyph-name="Oslashacute" unicode="&#x1fe;" horiz-adv-x="1753" 
d="M1362 1315q128 -100 200 -251.5t72 -334.5q0 -161 -58 -300.5t-158.5 -238t-241.5 -154.5t-302 -56q-186 0 -344 73l-102 -155h-182l153 233q-133 102 -207.5 256t-74.5 340q0 216 98.5 387t272 266t389.5 95q188 0 354 -78l106 159h183zM332 727q0 -128 48.5 -237
t135.5 -183l602 918q-111 51 -241 51q-236 0 -390.5 -155.5t-154.5 -393.5zM877 178q155 0 279 71t193.5 196.5t69.5 281.5q0 126 -45.5 233t-128.5 181l-602 -916q106 -47 234 -47zM739 1581l240 301h209l-277 -301h-172z" />
    <glyph glyph-name="oslashacute" unicode="&#x1ff;" horiz-adv-x="1282" 
d="M1010 926q86 -75 134 -180.5t48 -229.5q0 -152 -71 -275t-197.5 -192t-282.5 -69q-135 0 -254 55l-100 -146h-160l149 215q-87 73 -135.5 179.5t-48.5 232.5q0 153 70.5 275.5t196.5 192t282 69.5q139 0 258 -58l96 140h160zM285 516q0 -154 98 -260l412 592
q-70 31 -154 31q-156 0 -256 -101t-100 -262zM641 154q156 0 257 101.5t101 260.5q0 153 -96 256l-411 -590q70 -28 149 -28zM506 1178l231 321h195l-254 -321h-172z" />
    <glyph glyph-name="Scommaaccent" unicode="&#x218;" horiz-adv-x="1200" 
d="M584 -20q-129 0 -251 38t-216 107l57 197q86 -69 198 -111.5t226 -42.5q127 0 197.5 57.5t70.5 163.5q0 26 -4.5 48t-17 41.5t-24 34.5t-36 30.5t-43 26t-55 26t-60.5 25t-71 26.5q-76 28 -129 52t-108.5 60.5t-89 78t-55 100t-21.5 129.5q0 189 131.5 299.5t347.5 110.5
q108 0 215 -28t184 -71l-55 -186q-75 43 -168 69.5t-180 26.5q-122 0 -194.5 -55t-72.5 -148q0 -41 15.5 -75t38.5 -58t67 -48.5t82 -40.5t103 -40q171 -64 235 -102q130 -77 162 -204q12 -48 12 -107q0 -202 -134 -316t-357 -114zM344 -451l127 342h193l-156 -342h-164z
" />
    <glyph glyph-name="scommaaccent" unicode="&#x219;" horiz-adv-x="989" 
d="M481 -20q-107 0 -208.5 29.5t-161.5 78.5l47 162q63 -52 152.5 -84.5t181.5 -32.5t144 37t52 104q0 28 -11 49.5t-27.5 37t-51 31t-64 25.5t-85.5 27q-57 17 -95 31.5t-82.5 40t-70.5 54.5t-44 73.5t-18 99.5q0 144 104 227t277 83q181 0 324 -86l-39 -160
q-137 92 -289 92q-83 0 -133.5 -34.5t-50.5 -96.5q0 -34 15.5 -59t49.5 -43.5t65.5 -29.5t86.5 -26q62 -17 108 -34t90 -42.5t71.5 -56.5t44 -75.5t16.5 -98.5q0 -147 -106 -235t-292 -88zM248 -451l127 342h192l-155 -342h-164z" />
    <glyph glyph-name="uni021A" unicode="&#x21a;" horiz-adv-x="1095" 
d="M1049 1454v-186h-394v-1268h-209v1268h-399v186h1002zM319 -451l127 342h193l-156 -342h-164z" />
    <glyph glyph-name="uni021B" unicode="&#x21b;" horiz-adv-x="772" 
d="M504 -20q-134 0 -210.5 77.5t-76.5 229.5v579h-149v166h149v297l195 27v-324h290v-166h-290v-555q0 -76 35 -114.5t100 -38.5q88 0 182 59l33 -162q-44 -33 -112 -54t-146 -21zM223 -451l127 342h193l-156 -342h-164z" />
    <glyph glyph-name="uni0237" unicode="&#x237;" horiz-adv-x="538" 
d="M94 -446q-83 0 -151 22l28 170q38 -14 78 -14q67 0 95 40.5t28 147.5v1112h195v-1132q0 -180 -68.5 -263t-204.5 -83z" />
    <glyph glyph-name="uni0259" unicode="&#x259;" horiz-adv-x="1175" 
d="M543 1053q162 0 286 -71t189 -192t65 -272q0 -115 -39.5 -215.5t-107.5 -171t-163.5 -111t-203.5 -40.5q-218 0 -353.5 150t-135.5 390v27h807q-9 158 -105.5 247t-255.5 89q-105 0 -197.5 -35.5t-158.5 -91.5l-51 159q74 61 184 99.5t240 38.5zM569 139
q114 0 199.5 74.5t110.5 194.5h-598q15 -120 93.5 -194.5t194.5 -74.5z" />
    <glyph glyph-name="uni02BC" unicode="&#x2bc;" horiz-adv-x="485" 
d="M74 1022l129 432h209l-172 -432h-166z" />
    <glyph glyph-name="circumflex" unicode="&#x2c6;" horiz-adv-x="819" 
d="M512 1178l254 321h197l256 -321h-172l-183 206l-180 -206h-172z" />
    <glyph glyph-name="caron" unicode="&#x2c7;" horiz-adv-x="819" 
d="M758 1178l-246 321h172l172 -205l172 205h172l-246 -321h-196z" />
    <glyph glyph-name="uni02C9" unicode="&#x2c9;" horiz-adv-x="819" 
d="M514 1270v135h674v-135h-674z" />
    <glyph glyph-name="breve" unicode="&#x2d8;" horiz-adv-x="819" 
d="M817 1190q-142 0 -222 83.5t-83 225.5h141q4 -92 47.5 -137t118.5 -45q76 0 118.5 46t45.5 136h143q-3 -142 -84 -225.5t-225 -83.5z" />
    <glyph glyph-name="dotaccent" unicode="&#x2d9;" horiz-adv-x="819" 
d="M643 1233q-55 0 -93 37.5t-38 93.5t38 93.5t93 37.5t92 -37.5t37 -93.5t-37 -93.5t-92 -37.5z" />
    <glyph glyph-name="ring" unicode="&#x2da;" horiz-adv-x="819" 
d="M725 1153q-95 0 -154 59.5t-59 147.5q0 90 61 149.5t154 59.5q92 0 152.5 -59t60.5 -150t-62 -149t-153 -58zM727 1268q41 0 66.5 26t25.5 66t-25 66t-67 26q-41 0 -66.5 -25.5t-25.5 -66.5q0 -40 25.5 -66t66.5 -26z" />
    <glyph glyph-name="ogonek" unicode="&#x2db;" horiz-adv-x="819" 
d="M754 -408q-99 0 -158 53t-59 140q0 68 37.5 123.5t103.5 91.5h149q-141 -62 -141 -178q0 -52 26.5 -77.5t71.5 -25.5q38 0 84 17l29 -115q-63 -29 -143 -29z" />
    <glyph glyph-name="tilde" unicode="&#x2dc;" horiz-adv-x="819" 
d="M514 1223q11 114 61 169.5t119 55.5q65 0 180 -49q86 -39 117 -39q64 0 76 88h125q-13 -112 -63 -168.5t-121 -56.5q-56 0 -170 49q-88 39 -125 39q-26 0 -44.5 -19.5t-29.5 -68.5h-125z" />
    <glyph glyph-name="hungarumlaut" unicode="&#x2dd;" horiz-adv-x="819" 
d="M457 1178l237 321h195l-260 -321h-172zM791 1178l237 321h193l-258 -321h-172z" />
    <glyph glyph-name="gravecomb" unicode="&#x300;" 
d="M-274 1178l-256 321h192l236 -321h-172z" />
    <glyph glyph-name="acutecomb" unicode="&#x301;" 
d="M-528 1178l231 321h195l-254 -321h-172z" />
    <glyph glyph-name="uni0302" unicode="&#x302;" 
d="M-809 1178l254 321h197l256 -321h-172l-183 206l-180 -206h-172z" />
    <glyph glyph-name="tildecomb" unicode="&#x303;" 
d="M-780 1223q11 114 61 169.5t119 55.5q65 0 180 -49q86 -39 117 -39q64 0 76 88h125q-13 -112 -63.5 -168.5t-121.5 -56.5q-56 0 -170 49q-88 39 -125 39q-26 0 -44 -19.5t-29 -68.5h-125z" />
    <glyph glyph-name="uni0304" unicode="&#x304;" 
d="M-776 1270v135h674v-135h-674z" />
    <glyph glyph-name="uni0306" unicode="&#x306;" 
d="M-412 1190q-142 0 -222 83.5t-83 225.5h142q9 -182 165 -182q76 0 118.5 46t45.5 136h144q-3 -142 -84.5 -225.5t-225.5 -83.5z" />
    <glyph glyph-name="uni0307" unicode="&#x307;" 
d="M-231 1233q-55 0 -93 37.5t-38 93.5t38 93.5t93 37.5t92 -37.5t37 -93.5t-37 -93.5t-92 -37.5z" />
    <glyph glyph-name="uni0308" unicode="&#x308;" 
d="M-662 1249q-49 0 -82.5 34.5t-33.5 84.5t33.5 83.5t82.5 33.5q51 0 85 -33.5t34 -83.5t-34 -84.5t-85 -34.5zM-219 1249q-49 0 -84 34.5t-35 84.5q0 49 34.5 83t84.5 34q49 0 83 -33.5t34 -83.5t-34 -84.5t-83 -34.5z" />
    <glyph glyph-name="hookabovecomb" unicode="&#x309;" 
d="M-422 1157q0 58 17 82.5t63 48.5q25 13 36.5 19.5t28 18.5t23 25.5t6.5 30.5q0 60 -94 60q-55 0 -121 -27l-26 113q86 35 174 35q89 0 151 -43.5t62 -124.5q0 -59 -32.5 -96t-90.5 -70q-30 -19 -38 -30.5t-11 -41.5h-148z" />
    <glyph glyph-name="uni030A" unicode="&#x30a;" 
d="M-317 1153q-95 0 -154 59.5t-59 147.5q0 90 61 149.5t154 59.5q92 0 152.5 -59t60.5 -150t-62 -149t-153 -58zM-315 1268q41 0 66.5 26t25.5 66t-25 66t-67 26q-41 0 -67 -25.5t-26 -66.5q0 -40 26 -66t67 -26z" />
    <glyph glyph-name="uni030B" unicode="&#x30b;" 
d="M-866 1178l237 321h195l-260 -321h-172zM-532 1178l237 321h193l-258 -321h-172z" />
    <glyph glyph-name="uni030C" unicode="&#x30c;" 
d="M-545 1178l-246 321h173l172 -205l172 205h172l-246 -321h-197z" />
    <glyph glyph-name="uni0312" unicode="&#x312;" 
d="M-440 1178l172 350h166l-144 -350h-194z" />
    <glyph glyph-name="uni031B" unicode="&#x31b;" 
d="M-465 895v137q102 0 151.5 28t49.5 99q0 77 -37 133l156 43q43 -85 43 -182q0 -118 -91 -188t-272 -70z" />
    <glyph glyph-name="dotbelowcomb" unicode="&#x323;" 
d="M-231 -432q-55 0 -93 38t-38 93t38 93t93 38t92 -37.5t37 -93.5t-37 -93.5t-92 -37.5z" />
    <glyph glyph-name="uni0326" unicode="&#x326;" 
d="M-422 -451l127 342h193l-156 -342h-164z" />
    <glyph glyph-name="uni0327" unicode="&#x327;" 
d="M-236 -82q63 -19 98.5 -61.5t35.5 -104.5q0 -94 -76 -147.5t-234 -53.5v123q90 0 127 21t37 61q0 36 -28.5 54t-73.5 18v172h114v-82z" />
    <glyph glyph-name="uni0328" unicode="&#x328;" 
d="M-246 -408q-99 0 -158 53t-59 140q0 68 37.5 123.5t103.5 91.5h150q-141 -62 -141 -178q0 -52 26.5 -77.5t71.5 -25.5q38 0 84 17l29 -115q-63 -29 -144 -29z" />
    <glyph glyph-name="uni0335" unicode="&#x335;" 
d="M-807 475v166h709v-166h-709z" />
    <glyph glyph-name="uni0374" unicode="&#x374;" horiz-adv-x="651" 
d="M150 881l174 624h206l-215 -624h-165z" />
    <glyph glyph-name="uni0375" unicode="&#x375;" horiz-adv-x="651" 
d="M150 -289l174 625h206l-215 -625h-165z" />
    <glyph glyph-name="uni037E" unicode="&#x37e;" horiz-adv-x="604" 
d="M303 713q-55 0 -93 38.5t-38 92.5q0 56 38 93.5t93 37.5q54 0 92.5 -38t38.5 -93q0 -54 -38.5 -92.5t-92.5 -38.5zM57 -291l176 508h209l-204 -508h-181z" />
    <glyph glyph-name="tonos" unicode="&#x384;" 
d="M-106 1178l126 327h207l-168 -327h-165z" />
    <glyph glyph-name="dieresistonos" unicode="&#x385;" 
d="M-86 1298l59 312h181l-113 -312h-127zM-238 1229q-46 0 -77 30t-31 76q0 45 31 76t77 31q44 0 75.5 -31.5t31.5 -75.5q0 -45 -31 -75.5t-76 -30.5zM227 1229q-46 0 -77 30t-31 76q0 45 31.5 76t76.5 31q44 0 75.5 -31.5t31.5 -75.5q0 -45 -31 -75.5t-76 -30.5z" />
    <glyph glyph-name="Alphatonos" unicode="&#x386;" horiz-adv-x="1396" 
d="M1141 0l-162 442h-567l-162 -442h-213l549 1454h225l551 -1454h-221zM473 614h442l-221 607zM16 1180l127 327h207l-168 -327h-166z" />
    <glyph glyph-name="anoteleia" unicode="&#x387;" horiz-adv-x="604" 
d="M303 582q-55 0 -93 38.5t-38 92.5q0 55 38 93t93 38q54 0 92.5 -38t38.5 -93q0 -54 -38.5 -92.5t-92.5 -38.5z" />
    <glyph glyph-name="Epsilontonos" unicode="&#x388;" horiz-adv-x="1337" 
d="M342 0v1454h832v-186h-621v-449h600v-182h-600v-451h635v-186h-846zM-98 1178l127 327h207l-168 -327h-166z" />
    <glyph glyph-name="Etatonos" unicode="&#x389;" horiz-adv-x="1710" 
d="M1305 1454h208v-1454h-208v635h-748v-635h-211v1454h211v-633h748v633zM-98 1178l127 327h207l-168 -327h-166z" />
    <glyph glyph-name="Iotatonos" unicode="&#x38a;" horiz-adv-x="751" 
d="M346 0v1454h211v-1454h-211zM-98 1178l127 327h207l-168 -327h-166z" />
    <glyph glyph-name="Omicrontonos" unicode="&#x38c;" horiz-adv-x="1816" 
d="M940 -20q-160 0 -300.5 55.5t-241 153t-158.5 237.5t-58 301q0 216 98.5 387t272 266t389.5 95q215 0 388 -95t271.5 -265.5t98.5 -385.5q0 -161 -58 -300.5t-158.5 -238t-241.5 -154.5t-302 -56zM942 178q155 0 279.5 71t194 196.5t69.5 281.5q0 238 -153.5 393.5
t-389.5 155.5t-390.5 -155.5t-154.5 -393.5q0 -156 70 -281.5t195 -196.5t280 -71zM-37 1178l127 327h207l-168 -327h-166z" />
    <glyph glyph-name="Upsilontonos" unicode="&#x38e;" horiz-adv-x="1523" 
d="M1526 1454l-506 -876v-578h-207v575l-506 879h232l389 -682l387 682h211zM-76 1178l127 327h207l-168 -327h-166z" />
    <glyph glyph-name="Omegatonos" unicode="&#x38f;" horiz-adv-x="1816" 
d="M203 0v184h424v88q-187 60 -302.5 207t-115.5 359q0 184 94 329.5t263 226.5t382 81t381.5 -81t262.5 -226.5t94 -329.5q0 -209 -114 -356t-302 -210v-88h426v-184h-615v365q179 34 283 153t104 297q0 198 -146.5 328.5t-373.5 130.5q-229 0 -375.5 -130.5t-146.5 -328.5
q0 -176 106.5 -296.5t282.5 -156.5v-362h-612zM-37 1178l127 327h207l-168 -327h-166z" />
    <glyph glyph-name="iotadieresistonos" unicode="&#x390;" horiz-adv-x="636" 
d="M416 -20q-244 0 -244 272v780h195v-745q0 -72 24.5 -102.5t75.5 -30.5q50 0 115 26l26 -157q-84 -43 -192 -43zM215 1298l59 312h181l-113 -312h-127zM63 1229q-46 0 -77 30t-31 76q0 45 31.5 76t76.5 31q44 0 75.5 -31.5t31.5 -75.5q0 -45 -31 -75.5t-76 -30.5z
M528 1229q-46 0 -77 30t-31 76q0 45 31 76t77 31q44 0 75.5 -31.5t31.5 -75.5q0 -45 -31 -75.5t-76 -30.5z" />
    <glyph glyph-name="Alpha" unicode="&#x391;" horiz-adv-x="1396" 
d="M1141 0l-162 442h-567l-162 -442h-213l549 1454h225l551 -1454h-221zM473 614h442l-221 607z" />
    <glyph glyph-name="Beta" unicode="&#x392;" horiz-adv-x="1282" 
d="M891 762q129 -28 206 -123t77 -233q0 -183 -120.5 -294.5t-328.5 -111.5h-530v1454h452q205 0 322.5 -101t117.5 -270q0 -218 -196 -321zM406 1276v-461h235q112 0 180 69t68 171t-69.5 161.5t-194.5 59.5h-219zM694 178q128 0 199.5 65.5t71.5 178.5q0 106 -67 164.5
t-183 58.5h-309v-467h288z" />
    <glyph glyph-name="Gamma" unicode="&#x393;" horiz-adv-x="1071" 
d="M1026 1454v-190h-620v-1264h-211v1454h831z" />
    <glyph glyph-name="uni0394" unicode="&#x394;" horiz-adv-x="1380" 
d="M803 1454l485 -1272v-182h-1196v182l486 1272h225zM686 1221l-385 -1039h772z" />
    <glyph glyph-name="Epsilon" unicode="&#x395;" horiz-adv-x="1187" 
d="M195 0v1454h831v-186h-620v-449h600v-182h-600v-451h634v-186h-845z" />
    <glyph glyph-name="Zeta" unicode="&#x396;" horiz-adv-x="1259" 
d="M408 186h739v-186h-1026v113l735 1155h-709v186h992v-113z" />
    <glyph glyph-name="Eta" unicode="&#x397;" horiz-adv-x="1558" 
d="M1153 1454h209v-1454h-209v635h-747v-635h-211v1454h211v-633h747v633z" />
    <glyph glyph-name="Theta" unicode="&#x398;" horiz-adv-x="1753" 
d="M874 -20q-212 0 -385 95t-272.5 266.5t-99.5 385.5q0 161 58.5 300.5t159.5 237.5t240.5 154t298.5 56t299.5 -56t242 -154t160 -237t58.5 -299q0 -213 -100 -385t-273.5 -268t-386.5 -96zM877 180q151 0 275 71t194.5 196.5t70.5 279.5t-70.5 279.5t-194.5 196.5
t-275 71q-152 0 -276 -71t-195.5 -196.5t-71.5 -279.5t71.5 -279.5t195.5 -196.5t276 -71zM565 639v182h621v-182h-621z" />
    <glyph glyph-name="Iota" unicode="&#x399;" horiz-adv-x="600" 
d="M195 0v1454h211v-1454h-211z" />
    <glyph glyph-name="Kappa" unicode="&#x39a;" horiz-adv-x="1323" 
d="M1313 0h-271l-636 737v-737h-211v1454h211v-713l600 713h251l-602 -702z" />
    <glyph glyph-name="Lambda" unicode="&#x39b;" horiz-adv-x="1382" 
d="M1341 0h-225l-426 1204l-428 -1204h-221l539 1454h223z" />
    <glyph glyph-name="Mu" unicode="&#x39c;" horiz-adv-x="1804" 
d="M195 0v1454h260l442 -721l459 721h252v-1454h-207v1169l-426 -677h-158l-416 677v-1169h-206z" />
    <glyph glyph-name="Nu" unicode="&#x39d;" horiz-adv-x="1593" 
d="M1196 1454h203v-1454h-199l-803 1126v-1126h-202v1454h200l801 -1130v1130z" />
    <glyph glyph-name="Xi" unicode="&#x39e;" horiz-adv-x="1302" 
d="M186 1266v188h930v-188h-930zM244 639v184h815v-184h-815zM147 0v184h1008v-184h-1008z" />
    <glyph glyph-name="Omicron" unicode="&#x39f;" horiz-adv-x="1753" 
d="M874 -20q-214 0 -386.5 94.5t-271.5 266t-99 386.5q0 216 98.5 387t272 266t389.5 95q215 0 387.5 -95t271 -265.5t98.5 -385.5q0 -161 -58 -300.5t-158.5 -238t-241.5 -154.5t-302 -56zM877 178q155 0 279 71t193.5 196.5t69.5 281.5q0 238 -153 393.5t-389 155.5
t-390.5 -155.5t-154.5 -393.5q0 -156 70 -281.5t195 -196.5t280 -71z" />
    <glyph glyph-name="Pi" unicode="&#x3a0;" horiz-adv-x="1538" 
d="M1341 1454v-1454h-208v1268h-727v-1268h-211v1454h1146z" />
    <glyph glyph-name="Rho" unicode="&#x3a1;" horiz-adv-x="1216" 
d="M641 1454q236 0 365 -125t129 -330q0 -93 -32.5 -177t-93 -150t-156 -105t-212.5 -39h-235v-528h-211v1454h446zM606 705q136 0 224 78.5t88 215.5q0 145 -84.5 211t-227.5 66h-200v-571h200z" />
    <glyph glyph-name="Sigma" unicode="&#x3a3;" horiz-adv-x="1220" 
d="M121 0v145l536 600l-493 568v141h917v-186h-628l411 -469v-109l-454 -504h731v-186h-1020z" />
    <glyph glyph-name="Tau" unicode="&#x3a4;" horiz-adv-x="1095" 
d="M1049 1454v-186h-394v-1268h-209v1268h-399v186h1002z" />
    <glyph glyph-name="Upsilon" unicode="&#x3a5;" horiz-adv-x="1214" 
d="M1217 1454l-506 -876v-578h-207v575l-506 879h231l389 -682l388 682h211z" />
    <glyph glyph-name="Phi" unicode="&#x3a6;" horiz-adv-x="1761" 
d="M1669 727q0 -170 -85.5 -301t-240.5 -207.5t-362 -91.5v-156h-199v156q-316 22 -503 181.5t-187 418.5t187 418.5t503 181.5v156h199v-156q315 -24 501.5 -182.5t186.5 -417.5zM301 727q0 -179 129 -291.5t352 -134.5v852q-223 -22 -352 -134.5t-129 -291.5zM981 301
q223 22 351 134.5t128 291.5t-128 291.5t-351 134.5v-852z" />
    <glyph glyph-name="Chi" unicode="&#x3a7;" horiz-adv-x="1355" 
d="M1292 0h-243l-369 573l-369 -573h-231l485 737l-471 717h244l350 -551l363 551h223l-473 -713z" />
    <glyph glyph-name="Psi" unicode="&#x3a8;" horiz-adv-x="1761" 
d="M782 0v408q-299 15 -467 170t-168 421v455h199v-446q0 -190 111.5 -301.5t324.5 -124.5v872h199v-872q211 15 322.5 126.5t111.5 299.5v446h199v-455q0 -262 -168 -418t-465 -173v-408h-199z" />
    <glyph glyph-name="uni03A9" unicode="&#x3a9;" horiz-adv-x="1738" 
d="M123 0v184h424v88q-187 60 -302.5 207t-115.5 359q0 184 94 329.5t263 226.5t382 81t381.5 -81t262.5 -226.5t94 -329.5q0 -209 -114 -356t-302 -210v-88h426v-184h-615v365q179 34 283.5 153t104.5 297q0 198 -147 328.5t-374 130.5q-229 0 -375.5 -130.5t-146.5 -328.5
q0 -176 106.5 -296.5t282.5 -156.5v-362h-612z" />
    <glyph glyph-name="Iotadieresis" unicode="&#x3aa;" horiz-adv-x="600" 
d="M195 0v1454h211v-1454h-211zM82 1616q-49 0 -83 34.5t-34 84.5q0 49 33.5 82.5t83.5 33.5q51 0 85 -33t34 -83t-34 -84.5t-85 -34.5zM524 1616q-49 0 -83.5 34.5t-34.5 84.5q0 49 34 82.5t84 33.5t83.5 -33.5t33.5 -82.5q0 -50 -34 -84.5t-83 -34.5z" />
    <glyph glyph-name="Upsilondieresis" unicode="&#x3ab;" horiz-adv-x="1214" 
d="M1217 1454l-506 -876v-578h-207v575l-506 879h231l389 -682l388 682h211zM385 1616q-49 0 -83 34.5t-34 84.5q0 49 33.5 82.5t83.5 33.5q51 0 85 -33t34 -83t-34 -84.5t-85 -34.5zM827 1616q-49 0 -83.5 34.5t-34.5 84.5q0 49 34 82.5t84 33.5t83.5 -33.5t33.5 -82.5
q0 -50 -34 -84.5t-83 -34.5z" />
    <glyph glyph-name="alphatonos" unicode="&#x3ac;" horiz-adv-x="1361" 
d="M594 -20q-223 0 -362.5 150t-139.5 386t138.5 386.5t361.5 150.5q129 0 228.5 -57t154.5 -175q7 81 37 211h190q-43 -188 -43 -401v-293q0 -108 22.5 -146t69.5 -38q38 0 74 18l35 -152q-62 -40 -166 -40q-99 0 -151 56.5t-64 168.5q-117 -225 -385 -225zM627 162
q148 0 244 101t96 251q0 152 -96.5 254t-245.5 102q-146 0 -238 -98.5t-92 -255.5t92 -255.5t240 -98.5zM575 1178l127 327h207l-168 -327h-166z" />
    <glyph glyph-name="epsilontonos" unicode="&#x3ad;" horiz-adv-x="1071" 
d="M551 -20q-131 0 -232 30.5t-164 98t-63 165.5q0 114 81 180.5t218 82.5q-117 13 -179 78t-62 157q0 123 112 202t316 79t380 -90l-45 -158q-148 86 -323 86q-121 0 -181.5 -36t-60.5 -101q0 -148 361 -148v-151q-119 0 -201 -11.5t-125 -33t-60.5 -48t-17.5 -61.5
q0 -80 73.5 -118t199.5 -38q199 0 385 97l43 -156q-75 -43 -195.5 -74.5t-259.5 -31.5zM444 1178l127 327h207l-168 -327h-166z" />
    <glyph glyph-name="etatonos" unicode="&#x3ae;" horiz-adv-x="1265" 
d="M735 1053q178 0 273.5 -105t95.5 -307v-1071h-195v1005q0 302 -243 302q-134 0 -216.5 -85t-82.5 -223v-569h-195v1032h195v-180q53 96 148.5 148.5t219.5 52.5zM526 1178l127 327h207l-168 -327h-166z" />
    <glyph glyph-name="iotatonos" unicode="&#x3af;" horiz-adv-x="636" 
d="M416 -20q-244 0 -244 272v780h195v-745q0 -72 24.5 -102.5t75.5 -30.5q50 0 115 26l26 -157q-84 -43 -192 -43zM193 1178l126 327h207l-168 -327h-165z" />
    <glyph glyph-name="upsilondieresistonos" unicode="&#x3b0;" horiz-adv-x="1253" 
d="M625 -20q-100 0 -183 26.5t-147 80t-99.5 141.5t-35.5 204v600h194v-577q0 -147 71.5 -224t205.5 -77q268 0 268 307v571h195v-594q0 -118 -36.5 -207.5t-101 -143.5t-148 -80.5t-183.5 -26.5zM545 1298l59 312h180l-112 -312h-127zM393 1229q-46 0 -77 30t-31 76
q0 45 31.5 76t76.5 31q44 0 75.5 -31.5t31.5 -75.5q0 -45 -31 -75.5t-76 -30.5zM858 1229q-46 0 -77 30t-31 76q0 45 31 76t77 31q44 0 75.5 -31.5t31.5 -75.5q0 -45 -31 -75.5t-76 -30.5z" />
    <glyph glyph-name="alpha" unicode="&#x3b1;" horiz-adv-x="1361" 
d="M594 -20q-223 0 -362.5 150t-139.5 386t138.5 386.5t361.5 150.5q129 0 228.5 -57t154.5 -175q7 81 37 211h190q-43 -188 -43 -401v-293q0 -108 22.5 -146t69.5 -38q38 0 74 18l35 -152q-62 -40 -166 -40q-99 0 -151 56.5t-64 168.5q-117 -225 -385 -225zM627 162
q148 0 244 101t96 251q0 152 -96.5 254t-245.5 102q-146 0 -238 -98.5t-92 -255.5t92 -255.5t240 -98.5z" />
    <glyph glyph-name="beta" unicode="&#x3b2;" horiz-adv-x="1247" 
d="M836 842q65 -15 120.5 -45.5t101 -78.5t71.5 -119.5t26 -158.5q0 -210 -134.5 -333t-352.5 -123q-175 0 -306 71v-485h-190v1511q0 229 127 353.5t338 124.5q199 0 312.5 -104.5t113.5 -272.5q0 -125 -60.5 -212t-166.5 -128zM641 158q142 0 226.5 77.5t84.5 217.5
t-96.5 213t-275.5 73h-33v164l43 2q282 11 282 254q0 97 -62.5 160t-176.5 63q-123 0 -197 -73t-74 -219v-848q125 -84 279 -84z" />
    <glyph glyph-name="gamma" unicode="&#x3b3;" horiz-adv-x="1087" 
d="M821 1032h205q-4 -248 -111 -498.5t-303 -533.5v-430h-192v430l-414 1032h215l314 -846q286 432 286 846z" />
    <glyph glyph-name="delta" unicode="&#x3b4;" horiz-adv-x="1282" 
d="M987 944q205 -188 205 -432q0 -236 -153.5 -384t-395.5 -148q-243 0 -397 148t-154 384q0 231 148 377t378 155l-403 369v127h893v-166h-596zM641 164q153 0 250.5 96.5t97.5 255.5t-97.5 255.5t-250.5 96.5q-152 0 -249 -96t-97 -256q0 -159 96.5 -255.5t249.5 -96.5z
" />
    <glyph glyph-name="epsilon" unicode="&#x3b5;" horiz-adv-x="1071" 
d="M551 -20q-131 0 -232 30.5t-164 98t-63 165.5q0 114 81 180.5t218 82.5q-117 13 -179 78t-62 157q0 123 112 202t316 79t380 -90l-45 -158q-148 86 -323 86q-121 0 -181.5 -36t-60.5 -101q0 -148 361 -148v-151q-119 0 -201 -11.5t-125 -33t-60.5 -48t-17.5 -61.5
q0 -80 73.5 -118t199.5 -38q199 0 385 97l43 -156q-75 -43 -195.5 -74.5t-259.5 -31.5z" />
    <glyph glyph-name="zeta" unicode="&#x3b6;" horiz-adv-x="1009" 
d="M854 -430l-164 49q96 133 96 229q0 69 -55 102t-209 77q-79 23 -134 44t-115 58.5t-96.5 83t-60.5 115.5t-24 159q0 141 58 246.5t194 241.5l397 399h-575v166h844v-127l-523 -549q-105 -111 -148.5 -192t-43.5 -172q0 -33 6 -62t14.5 -52t25.5 -44t32.5 -36.5t43 -31
t48 -26t57 -23.5t61.5 -21t68 -22q58 -17 92.5 -29.5t76.5 -30.5t66 -37.5t46 -46.5t31.5 -61.5t9.5 -78.5q0 -151 -119 -328z" />
    <glyph glyph-name="eta" unicode="&#x3b7;" horiz-adv-x="1265" 
d="M735 1053q178 0 273.5 -105t95.5 -307v-1071h-195v1005q0 302 -243 302q-134 0 -216.5 -85t-82.5 -223v-569h-195v1032h195v-180q53 96 148.5 148.5t219.5 52.5z" />
    <glyph glyph-name="theta" unicode="&#x3b8;" horiz-adv-x="1265" 
d="M633 1556q113 0 200 -39t144 -108t93.5 -170t51.5 -217t15 -258q0 -141 -15.5 -256.5t-52 -215.5t-93.5 -167.5t-144 -106t-199 -38.5q-114 0 -201 38.5t-144 106.5t-93 168t-51 215t-15 256q0 142 15.5 258.5t52 217.5t93.5 169.5t144 107.5t199 39zM633 1374
q-86 0 -145.5 -39t-91.5 -114.5t-46.5 -164t-17.5 -210.5h602q-3 96 -11.5 170t-29.5 143.5t-53.5 115t-84.5 72.5t-122 27zM633 162q70 0 122.5 27t85 71.5t53 114t29 142t11.5 167.5h-602q3 -96 11.5 -169.5t29.5 -142t53.5 -113t84.5 -71t122 -26.5z" />
    <glyph glyph-name="iota" unicode="&#x3b9;" horiz-adv-x="636" 
d="M416 -20q-244 0 -244 272v780h195v-745q0 -72 24.5 -102.5t75.5 -30.5q50 0 115 26l26 -157q-84 -43 -192 -43z" />
    <glyph glyph-name="kappa" unicode="&#x3ba;" horiz-adv-x="1093" 
d="M172 0v1032h195v-500l458 500h234l-443 -469l461 -563h-235l-359 436l-116 -102v-334h-195z" />
    <glyph glyph-name="lambda" unicode="&#x3bb;" horiz-adv-x="1067" 
d="M1061 0h-207l-274 780l-369 -780h-211l487 991l-69 183q-40 108 -97 150t-137 42q-56 0 -102 -16l-23 168q63 24 154 24q137 0 227 -71t150 -226z" />
    <glyph glyph-name="uni03BC" unicode="&#x3bc;" horiz-adv-x="1275" 
d="M909 1032h195v-1032h-195v164q-46 -88 -128 -136t-189 -48q-136 0 -225 92v-502h-195v1462h195v-577q0 -147 63 -224t188 -77q128 0 209.5 85.5t81.5 221.5v571z" />
    <glyph glyph-name="nu" unicode="&#x3bd;" horiz-adv-x="1087" 
d="M821 1032h205q-4 -248 -109.5 -499.5t-298.5 -532.5h-200l-412 1032h215l316 -850q284 437 284 850z" />
    <glyph glyph-name="xi" unicode="&#x3be;" horiz-adv-x="1003" 
d="M854 -430l-164 49q96 135 96 227q0 29 -7 51t-25.5 39.5t-36.5 29t-54 23.5t-63 19t-78 19q-37 9 -62.5 16t-74.5 25.5t-84 38.5t-77 54.5t-68.5 75t-45 98.5t-18.5 126q0 56 11.5 107.5t39.5 103t70.5 91.5t110.5 68.5t153 36.5q-126 35 -199 117.5t-73 208.5
q0 163 120 265t320 102q202 0 359 -103l-62 -170q-131 94 -283 94q-120 0 -185.5 -59t-65.5 -154q0 -47 17.5 -85.5t47.5 -64.5t72 -44.5t87.5 -29t98.5 -15.5v-158q-436 0 -436 -287q0 -49 11.5 -88.5t37 -68.5t53 -50t72 -39t80.5 -29t92 -26q64 -16 105 -29t88.5 -36
t74.5 -51t45.5 -72t18.5 -100q0 -151 -119 -326z" />
    <glyph glyph-name="omicron" unicode="&#x3bf;" horiz-adv-x="1282" 
d="M641 -20q-242 0 -395.5 150.5t-153.5 385.5q0 234 153.5 385.5t395.5 151.5q243 0 397 -151.5t154 -385.5q0 -235 -153.5 -385.5t-397.5 -150.5zM641 162q156 0 253 98.5t97 255.5q0 158 -97 256t-251 98q-157 0 -253.5 -98t-96.5 -256q0 -159 96.5 -256.5t251.5 -97.5z
" />
    <glyph glyph-name="pi" unicode="&#x3c0;" horiz-adv-x="1429" 
d="M1376 866h-278v-581q0 -67 27 -99t73 -32q60 0 125 26l27 -155q-81 -45 -205 -45q-109 0 -175.5 67.5t-66.5 200.5v618h-409v-866h-195v866h-244l47 166h1274v-166z" />
    <glyph glyph-name="rho" unicode="&#x3c1;" horiz-adv-x="1316" 
d="M690 1053q245 0 390 -151.5t145 -387.5q0 -233 -139.5 -383.5t-362.5 -150.5q-122 0 -219 50t-152 150v-610h-194v891q0 282 145.5 437t386.5 155zM686 162q149 0 242.5 99t93.5 255q0 155 -93.5 254.5t-244.5 99.5t-241.5 -100t-90.5 -258q0 -165 97 -257.5t237 -92.5z
" />
    <glyph glyph-name="uni03C2" unicode="&#x3c2;" horiz-adv-x="1038" 
d="M823 -430l-164 49q51 69 77 122t26 107q0 35 -11 58t-45 43t-70 33.5t-114 37.5q-37 12 -62.5 21t-64 25.5t-65.5 32t-61 39.5t-57.5 49.5t-47.5 61t-38.5 75t-24 90.5t-9.5 108q0 245 148 388t381 143q197 0 352 -103l-60 -170q-133 92 -286 92t-242.5 -92.5
t-89.5 -251.5q0 -38 6 -70.5t14 -57.5t25.5 -48.5t31.5 -39.5t41.5 -33t46 -27t54.5 -24.5t57 -22t64 -21.5q69 -23 109.5 -39t84.5 -40.5t66.5 -50.5t37.5 -65t15 -89q0 -144 -125 -330z" />
    <glyph glyph-name="sigma" unicode="&#x3c3;" horiz-adv-x="1314" 
d="M1323 1032v-166h-324q193 -139 193 -374q0 -227 -152.5 -369.5t-394.5 -142.5q-245 0 -399 146t-154 380q0 156 72.5 274.5t211.5 184.5t329 67h618zM643 164q155 0 250.5 94t95.5 250q0 221 -215 356h-61q-205 0 -311.5 -96t-106.5 -258q0 -158 95.5 -252t252.5 -94z
" />
    <glyph glyph-name="tau" unicode="&#x3c4;" horiz-adv-x="948" 
d="M618 -20q-272 0 -272 286v600h-291l47 166h793v-166h-354v-575q0 -71 29 -102t87 -31q64 0 134 26l32 -159q-81 -45 -205 -45z" />
    <glyph glyph-name="upsilon" unicode="&#x3c5;" horiz-adv-x="1253" 
d="M625 -20q-100 0 -183 26.5t-147 80t-99.5 141.5t-35.5 204v600h194v-577q0 -147 71.5 -224t205.5 -77q268 0 268 307v571h195v-594q0 -118 -36.5 -207.5t-101 -143.5t-148 -80.5t-183.5 -26.5z" />
    <glyph glyph-name="phi" unicode="&#x3c6;" horiz-adv-x="1439" 
d="M1348 516q0 -214 -141 -362t-394 -174v-410h-186v410q-253 26 -394 174t-141 362t141.5 362.5t393.5 174.5v401h186v-401q252 -26 393.5 -174.5t141.5 -362.5zM813 145q159 26 245.5 127.5t86.5 245.5t-87.5 243.5t-244.5 123.5v-740zM295 516q0 -144 87.5 -245.5
t244.5 -125.5v740q-159 -24 -245.5 -124.5t-86.5 -244.5z" />
    <glyph glyph-name="chi" unicode="&#x3c7;" horiz-adv-x="1028" 
d="M662 348l366 -778h-211l-276 620l-322 -620h-207l432 815l-178 377q-26 58 -56.5 81t-70.5 23q-38 0 -82 -14l-24 168q63 24 137 24q94 0 150.5 -44t101.5 -140l145 -309l224 481h215z" />
    <glyph glyph-name="psi" unicode="&#x3c8;" horiz-adv-x="1570" 
d="M1223 1032h188v-491q0 -253 -139.5 -394.5t-394.5 -162.5v-414h-185v414q-258 22 -395 162t-137 391v495h188v-475q0 -182 83.5 -281.5t260.5 -121.5v1300h185v-1300q183 20 264.5 122t81.5 289v467z" />
    <glyph glyph-name="omega" unicode="&#x3c9;" horiz-adv-x="1519" 
d="M449 -16q-166 0 -254.5 136.5t-88.5 373.5q0 155 28.5 303t72.5 235h211q-109 -223 -109 -526q0 -336 164 -336q61 0 102 50.5t64 170.5t23 311h196q1 -284 46 -408t145 -124q163 0 163 326q0 153 -35 297t-85 239h211q44 -77 77 -231t33 -320q0 -235 -88 -368t-258 -133
q-134 0 -211 85t-94 248q-14 -161 -100 -245t-213 -84z" />
    <glyph glyph-name="iotadieresis" unicode="&#x3ca;" horiz-adv-x="636" 
d="M416 -20q-244 0 -244 272v780h195v-745q0 -72 24.5 -102.5t75.5 -30.5q50 0 115 26l26 -157q-84 -43 -192 -43zM115 1243q-52 0 -87.5 36t-35.5 89q0 52 35 87.5t88 35.5t89 -35.5t36 -87.5t-36 -88.5t-89 -36.5zM479 1243q-51 0 -87 36.5t-36 88.5t36 87.5t87 35.5
q53 0 89 -35.5t36 -87.5t-36 -88.5t-89 -36.5z" />
    <glyph glyph-name="upsilondieresis" unicode="&#x3cb;" horiz-adv-x="1253" 
d="M625 -20q-100 0 -183 26.5t-147 80t-99.5 141.5t-35.5 204v600h194v-577q0 -147 71.5 -224t205.5 -77q268 0 268 307v571h195v-594q0 -118 -36.5 -207.5t-101 -143.5t-148 -80.5t-183.5 -26.5zM406 1249q-49 0 -83 34.5t-34 84.5t33.5 83.5t83.5 33.5q51 0 84.5 -33.5
t33.5 -83.5t-33.5 -84.5t-84.5 -34.5zM848 1249q-50 0 -84.5 34.5t-34.5 84.5q0 49 34.5 83t84.5 34t83.5 -33.5t33.5 -83.5t-34 -84.5t-83 -34.5z" />
    <glyph glyph-name="omicrontonos" unicode="&#x3cc;" horiz-adv-x="1282" 
d="M641 -20q-242 0 -395.5 150.5t-153.5 385.5q0 234 153.5 385.5t395.5 151.5q243 0 397 -151.5t154 -385.5q0 -235 -153.5 -385.5t-397.5 -150.5zM641 162q156 0 253 98.5t97 255.5q0 158 -97 256t-251 98q-157 0 -253.5 -98t-96.5 -256q0 -159 96.5 -256.5t251.5 -97.5z
M535 1178l127 327h206l-168 -327h-165z" />
    <glyph glyph-name="upsilontonos" unicode="&#x3cd;" horiz-adv-x="1253" 
d="M625 -20q-100 0 -183 26.5t-147 80t-99.5 141.5t-35.5 204v600h194v-577q0 -147 71.5 -224t205.5 -77q268 0 268 307v571h195v-594q0 -118 -36.5 -207.5t-101 -143.5t-148 -80.5t-183.5 -26.5zM522 1178l127 327h207l-168 -327h-166z" />
    <glyph glyph-name="omegatonos" unicode="&#x3ce;" horiz-adv-x="1519" 
d="M449 -16q-166 0 -254.5 136.5t-88.5 373.5q0 155 28.5 303t72.5 235h211q-109 -223 -109 -526q0 -336 164 -336q61 0 102 50.5t64 170.5t23 311h196q1 -284 46 -408t145 -124q163 0 163 326q0 153 -35 297t-85 239h211q44 -77 77 -231t33 -320q0 -235 -88 -368t-258 -133
q-134 0 -211 85t-94 248q-14 -161 -100 -245t-213 -84zM653 1178l127 327h207l-168 -327h-166z" />
    <glyph glyph-name="uni03EF" unicode="&#x3ef;" horiz-adv-x="1107" 
d="M657 1032h408v-354h-170v194h-238v-872h-198v872h-246v-194h-168v354h414v422h198v-422z" />
    <glyph glyph-name="uni0400" unicode="&#x400;" horiz-adv-x="1187" 
d="M195 0v1454h831v-186h-620v-449h600v-182h-600v-451h634v-186h-845zM575 1581l-276 301h207l242 -301h-173z" />
    <glyph glyph-name="uni0401" unicode="&#x401;" horiz-adv-x="1187" 
d="M195 0v1454h831v-186h-620v-449h600v-182h-600v-451h634v-186h-845zM397 1616q-49 0 -82.5 34.5t-33.5 84.5q0 49 33.5 82.5t82.5 33.5q51 0 85 -33t34 -83t-34 -84.5t-85 -34.5zM840 1616q-50 0 -84.5 35t-34.5 84t34.5 82.5t84.5 33.5t83 -33.5t33 -82.5
q0 -50 -33.5 -84.5t-82.5 -34.5z" />
    <glyph glyph-name="uni0402" unicode="&#x402;" horiz-adv-x="1669" 
d="M1096 934q227 0 359 -124t132 -343q0 -222 -132.5 -354.5t-338.5 -132.5q-124 0 -227 43l37 184q83 -39 182 -39q120 0 195 77t75 212q0 138 -84 216.5t-233 78.5q-197 0 -406 -136v-616h-209v1268h-399v186h1002v-186h-394v-484q213 150 441 150z" />
    <glyph glyph-name="uni0403" unicode="&#x403;" horiz-adv-x="1071" 
d="M1026 1454v-190h-620v-1264h-211v1454h831zM485 1581l240 301h209l-277 -301h-172z" />
    <glyph glyph-name="uni0404" unicode="&#x404;" horiz-adv-x="1456" 
d="M1319 322l61 -181q-220 -161 -501 -161q-222 0 -395.5 93.5t-270 263.5t-96.5 388q0 219 98 391t270 265.5t387 93.5q277 0 486 -158l-70 -184q-185 151 -411 151q-220 0 -369.5 -129.5t-175.5 -341.5h745v-180h-745q31 -207 180 -335t367 -128q234 0 440 152z" />
    <glyph glyph-name="uni0405" unicode="&#x405;" horiz-adv-x="1200" 
d="M584 -20q-129 0 -251 38t-216 107l57 197q86 -69 198 -111.5t226 -42.5q127 0 197.5 57.5t70.5 163.5q0 26 -4.5 48t-17 41.5t-24 34.5t-36 30.5t-43 26t-55 26t-60.5 25t-71 26.5q-76 28 -129 52t-108.5 60.5t-89 78t-55 100t-21.5 129.5q0 189 131.5 299.5t347.5 110.5
q108 0 215 -28t184 -71l-55 -186q-75 43 -168 69.5t-180 26.5q-122 0 -194.5 -55t-72.5 -148q0 -41 15.5 -75t38.5 -58t67 -48.5t82 -40.5t103 -40q171 -64 235 -102q130 -77 162 -204q12 -48 12 -107q0 -202 -134 -316t-357 -114z" />
    <glyph glyph-name="uni0406" unicode="&#x406;" horiz-adv-x="600" 
d="M195 0v1454h211v-1454h-211z" />
    <glyph glyph-name="uni0407" unicode="&#x407;" horiz-adv-x="600" 
d="M195 0v1454h211v-1454h-211zM82 1616q-49 0 -83 34.5t-34 84.5q0 49 33.5 82.5t83.5 33.5q51 0 85 -33t34 -83t-34 -84.5t-85 -34.5zM524 1616q-49 0 -83.5 34.5t-34.5 84.5q0 49 34 82.5t84 33.5t83.5 -33.5t33.5 -82.5q0 -50 -34 -84.5t-83 -34.5z" />
    <glyph glyph-name="uni0408" unicode="&#x408;" horiz-adv-x="843" 
d="M233 -20q-128 0 -231 43l37 184q83 -39 168 -39q117 0 183.5 85t66.5 255v946h211v-971q0 -243 -115.5 -373t-319.5 -130z" />
    <glyph glyph-name="uni0409" unicode="&#x409;" horiz-adv-x="2023" 
d="M1464 850q235 0 356.5 -111.5t121.5 -300.5q0 -197 -122.5 -317.5t-355.5 -120.5h-516v1268h-405l-92 -969q-15 -160 -86 -237.5t-209 -77.5q-86 0 -156 28l37 183q43 -27 96 -27q56 0 83 44t36 144l106 1098h801v-604h305zM1430 178q146 0 220 65t74 191
q0 120 -76.5 180t-217.5 60h-271v-496h271z" />
    <glyph glyph-name="uni040A" unicode="&#x40a;" horiz-adv-x="2156" 
d="M1595 850q235 0 356.5 -111.5t121.5 -300.5q0 -197 -122.5 -317.5t-355.5 -120.5h-516v672h-673v-672h-211v1454h211v-600h673v600h211v-604h305zM1561 178q146 0 220 65t74 191q0 120 -76.5 180t-217.5 60h-271v-496h271z" />
    <glyph glyph-name="uni040B" unicode="&#x40b;" horiz-adv-x="1751" 
d="M1145 926q211 0 320.5 -106t109.5 -300v-520h-211v492q0 247 -262 247q-114 0 -232 -34.5t-215 -98.5v-606h-209v1268h-399v186h1002v-186h-394v-494q224 152 490 152z" />
    <glyph glyph-name="uni040C" unicode="&#x40c;" horiz-adv-x="1351" 
d="M1087 -2l-542 647h-139v-647h-211v1454h211v-641h120l516 641h242l-575 -700l634 -754h-256zM582 1581l239 301h209l-276 -301h-172z" />
    <glyph glyph-name="uni040D" unicode="&#x40d;" horiz-adv-x="1593" 
d="M1198 1454h201v-1454h-203v1137l-801 -1137h-200v1454h202v-1137zM756 1581l-277 301h207l242 -301h-172z" />
    <glyph glyph-name="uni040E" unicode="&#x40e;" horiz-adv-x="1298" 
d="M1075 1454h221l-483 -1100q-28 -65 -47.5 -104.5t-49 -88t-60 -77t-72 -55t-94.5 -38t-119 -11.5q-135 0 -238 43l45 178q76 -39 176 -39q84 0 136 39.5t100 136.5h-2l-559 1116h225l440 -903zM653 1589q-160 0 -244.5 65.5t-89.5 186.5h142q6 -67 55 -96t139 -29
q175 0 189 125h141q-7 -119 -95.5 -185.5t-236.5 -66.5z" />
    <glyph glyph-name="uni040F" unicode="&#x40f;" horiz-adv-x="1538" 
d="M1133 1454h208v-1454h-483v-350h-180v350h-483v1454h211v-1268h727v1268z" />
    <glyph glyph-name="uni0410" unicode="&#x410;" horiz-adv-x="1396" 
d="M1141 0l-162 442h-567l-162 -442h-213l549 1454h225l551 -1454h-221zM473 614h442l-221 607z" />
    <glyph glyph-name="uni0411" unicode="&#x411;" horiz-adv-x="1271" 
d="M711 850q234 0 355.5 -111.5t121.5 -300.5q0 -197 -122 -317.5t-355 -120.5h-516v1454h815v-190h-604v-414h305zM676 178q146 0 220.5 65t74.5 191q0 120 -77 180t-218 60h-270v-496h270z" />
    <glyph glyph-name="uni0412" unicode="&#x412;" horiz-adv-x="1282" 
d="M891 762q129 -28 206 -123t77 -233q0 -183 -120.5 -294.5t-328.5 -111.5h-530v1454h452q205 0 322.5 -101t117.5 -270q0 -218 -196 -321zM406 1276v-461h235q112 0 180 69t68 171t-69.5 161.5t-194.5 59.5h-219zM694 178q128 0 199.5 65.5t71.5 178.5q0 106 -67 164.5
t-183 58.5h-309v-467h288z" />
    <glyph glyph-name="uni0413" unicode="&#x413;" horiz-adv-x="1071" 
d="M1026 1454v-190h-620v-1264h-211v1454h831z" />
    <glyph glyph-name="uni0414" unicode="&#x414;" horiz-adv-x="1466" 
d="M1219 186h186v-536h-180v350h-1022v-350h-183v536h97q63 0 109.5 92.5t64.5 237.5l104 938h824v-1268zM494 504q-13 -124 -43 -208.5t-68 -109.5h627v1082h-432z" />
    <glyph glyph-name="uni0415" unicode="&#x415;" horiz-adv-x="1187" 
d="M195 0v1454h831v-186h-620v-449h600v-182h-600v-451h634v-186h-845z" />
    <glyph glyph-name="uni0416" unicode="&#x416;" horiz-adv-x="2109" 
d="M1853 -2l-544 647h-152v-647h-203v647h-151l-547 -647h-248l635 754l-575 700h237l514 -639h135v639h203v-639h135l512 639h238l-576 -700l635 -754h-248z" />
    <glyph glyph-name="uni0417" unicode="&#x417;" horiz-adv-x="1210" 
d="M573 -23q-319 0 -518 191l103 168q172 -172 407 -172q154 0 244 68.5t90 187.5q0 128 -114 189t-361 61v170q99 1 174.5 15.5t121.5 37.5t74.5 55.5t39 65t10.5 69.5q0 98 -72.5 153.5t-196.5 55.5q-203 0 -364 -143l-88 164q205 162 469 162q212 0 337.5 -98.5
t125.5 -264.5q0 -132 -79 -221t-210 -119q166 -30 255 -120.5t89 -243.5q0 -193 -142 -312t-395 -119z" />
    <glyph glyph-name="uni0418" unicode="&#x418;" horiz-adv-x="1593" 
d="M1198 1454h201v-1454h-203v1137l-801 -1137h-200v1454h202v-1137z" />
    <glyph glyph-name="uni0419" unicode="&#x419;" horiz-adv-x="1593" 
d="M1198 1454h201v-1454h-203v1137l-801 -1137h-200v1454h202v-1137zM797 1589q-160 0 -244.5 65.5t-89.5 186.5h141q11 -125 195 -125q174 0 188 125h141q-7 -120 -95 -186t-236 -66z" />
    <glyph glyph-name="uni041A" unicode="&#x41a;" horiz-adv-x="1351" 
d="M1087 -2l-542 647h-139v-647h-211v1454h211v-641h120l516 641h242l-575 -700l634 -754h-256z" />
    <glyph glyph-name="uni041B" unicode="&#x41b;" horiz-adv-x="1406" 
d="M1210 1454v-1454h-209v1268h-458l-92 -969q-15 -160 -86 -237.5t-209 -77.5q-86 0 -156 28l37 183q43 -27 94 -27q56 0 84 44t37 144l106 1098h852z" />
    <glyph glyph-name="uni041C" unicode="&#x41c;" horiz-adv-x="1804" 
d="M195 0v1454h260l442 -721l459 721h252v-1454h-207v1169l-426 -677h-158l-416 677v-1169h-206z" />
    <glyph glyph-name="uni041D" unicode="&#x41d;" horiz-adv-x="1558" 
d="M1153 1454h209v-1454h-209v635h-747v-635h-211v1454h211v-633h747v633z" />
    <glyph glyph-name="uni041E" unicode="&#x41e;" horiz-adv-x="1753" 
d="M874 -20q-214 0 -386.5 94.5t-271.5 266t-99 386.5q0 216 98.5 387t272 266t389.5 95q215 0 387.5 -95t271 -265.5t98.5 -385.5q0 -161 -58 -300.5t-158.5 -238t-241.5 -154.5t-302 -56zM877 178q155 0 279 71t193.5 196.5t69.5 281.5q0 238 -153 393.5t-389 155.5
t-390.5 -155.5t-154.5 -393.5q0 -156 70 -281.5t195 -196.5t280 -71z" />
    <glyph glyph-name="uni041F" unicode="&#x41f;" horiz-adv-x="1538" 
d="M1341 1454v-1454h-208v1268h-727v-1268h-211v1454h1146z" />
    <glyph glyph-name="uni0420" unicode="&#x420;" horiz-adv-x="1216" 
d="M641 1454q236 0 365 -125t129 -330q0 -93 -32.5 -177t-93 -150t-156 -105t-212.5 -39h-235v-528h-211v1454h446zM606 705q136 0 224 78.5t88 215.5q0 145 -84.5 211t-227.5 66h-200v-571h200z" />
    <glyph glyph-name="uni0421" unicode="&#x421;" horiz-adv-x="1456" 
d="M868 -20q-216 0 -387.5 95.5t-267.5 266.5t-96 387q0 217 98 387.5t270.5 264.5t388.5 94q270 0 484 -152l-70 -193q-187 146 -407 146q-160 0 -285 -70.5t-193.5 -194.5t-68.5 -280q0 -240 153 -396.5t394 -156.5q232 0 438 152l61 -189q-220 -161 -512 -161z" />
    <glyph glyph-name="uni0422" unicode="&#x422;" horiz-adv-x="1095" 
d="M1049 1454v-186h-394v-1268h-209v1268h-399v186h1002z" />
    <glyph glyph-name="uni0423" unicode="&#x423;" horiz-adv-x="1298" 
d="M1075 1454h221l-483 -1100q-28 -65 -47.5 -104.5t-49 -88t-60 -77t-72 -55t-94.5 -38t-119 -11.5q-135 0 -238 43l45 178q76 -39 176 -39q84 0 136 39.5t100 136.5h-2l-559 1116h225l440 -903z" />
    <glyph glyph-name="uni0424" unicode="&#x424;" horiz-adv-x="1761" 
d="M1669 727q0 -170 -85.5 -301t-240.5 -207.5t-362 -91.5v-156h-199v156q-316 22 -503 181.5t-187 418.5t187 418.5t503 181.5v156h199v-156q315 -24 501.5 -182.5t186.5 -417.5zM301 727q0 -179 129 -291.5t352 -134.5v852q-223 -22 -352 -134.5t-129 -291.5zM981 301
q223 22 351 134.5t128 291.5t-128 291.5t-351 134.5v-852z" />
    <glyph glyph-name="uni0425" unicode="&#x425;" horiz-adv-x="1355" 
d="M1292 0h-243l-369 573l-369 -573h-231l485 737l-471 717h244l350 -551l363 551h223l-473 -713z" />
    <glyph glyph-name="uni0426" unicode="&#x426;" horiz-adv-x="1589" 
d="M1343 186h185v-536h-180v350h-1153v1454h211v-1268h729v1268h208v-1268z" />
    <glyph glyph-name="uni0427" unicode="&#x427;" horiz-adv-x="1456" 
d="M1051 2v664q-88 -66 -210 -109t-263 -43q-226 0 -337.5 114t-111.5 320v506h209v-471q0 -291 285 -291q112 0 224.5 38t203.5 104v620h211v-1452h-211z" />
    <glyph glyph-name="uni0428" unicode="&#x428;" horiz-adv-x="2314" 
d="M195 0v1454h211v-1268h647v1268h209v-1268h647v1268h211v-1454h-1925z" />
    <glyph glyph-name="uni0429" unicode="&#x429;" horiz-adv-x="2365" 
d="M2120 186h184v-536h-180v350h-1929v1454h211v-1268h647v1268h209v-1268h647v1268h211v-1268z" />
    <glyph glyph-name="uni042A" unicode="&#x42a;" horiz-adv-x="1529" 
d="M969 850q234 0 355.5 -111.5t121.5 -300.5q0 -197 -122 -317.5t-355 -120.5h-516v1264h-406v190h617v-604h305zM934 178q146 0 220.5 65t74.5 191q0 120 -77 180t-218 60h-270v-496h270z" />
    <glyph glyph-name="uni042B" unicode="&#x42b;" horiz-adv-x="1871" 
d="M711 850q234 0 355.5 -111.5t121.5 -300.5q0 -197 -122 -317.5t-355 -120.5h-516v1454h211v-604h305zM676 178q146 0 220.5 65t74.5 191q0 120 -77 180t-218 60h-270v-496h270zM1466 0v1454h211v-1454h-211z" />
    <glyph glyph-name="uni042C" unicode="&#x42c;" horiz-adv-x="1271" 
d="M711 850q234 0 355.5 -111.5t121.5 -300.5q0 -197 -122 -317.5t-355 -120.5h-516v1454h211v-604h305zM676 178q146 0 220.5 65t74.5 191q0 120 -77 180t-218 60h-270v-496h270z" />
    <glyph glyph-name="uni042D" unicode="&#x42d;" horiz-adv-x="1456" 
d="M598 1475q160 0 297 -55t235 -152.5t153.5 -237.5t55.5 -305q0 -163 -56 -302.5t-152.5 -236t-230.5 -151.5t-286 -55q-168 0 -297.5 40t-240.5 121l61 181q206 -152 461 -152q209 0 352 126t174 337h-745v180h747q-23 213 -167 342t-365 129q-240 0 -428 -147l-68 180
q209 158 500 158z" />
    <glyph glyph-name="uni042E" unicode="&#x42e;" horiz-adv-x="2285" 
d="M1409 1475q215 0 388 -95t271.5 -265.5t98.5 -385.5q0 -161 -58 -300.5t-158.5 -238t-241.5 -154.5t-302 -56q-198 0 -362.5 82t-267.5 231.5t-124 341.5h-247v-635h-211v1454h211v-633h249q31 290 241 472t513 182zM1409 178q155 0 279.5 71t194 196.5t69.5 281.5
q0 238 -153.5 393.5t-389.5 155.5t-390.5 -155.5t-154.5 -393.5q0 -156 70 -281.5t195 -196.5t280 -71z" />
    <glyph glyph-name="uni042F" unicode="&#x42f;" horiz-adv-x="1310" 
d="M1114 1454v-1454h-209v590h-241h-27l-344 -590h-242l391 633q-122 54 -189 160t-67 241q0 189 126 304.5t345 115.5h457zM674 760h231v516h-221q-79 0 -140.5 -24t-102 -83t-40.5 -147q0 -131 76 -196.5t197 -65.5z" />
    <glyph glyph-name="uni0430" unicode="&#x430;" horiz-adv-x="1179" 
d="M594 1053q202 0 314 -102t112 -306v-645h-195v160q-52 -82 -147 -131t-221 -49q-160 0 -252 82t-92 223q0 177 165 253.5t547 79.5v23q0 115 -67.5 180.5t-196.5 65.5q-168 0 -330 -117l-49 162q76 52 183 86.5t229 34.5zM516 129q55 0 108 16t99 47t74 85.5t28 123.5v88
q-193 -2 -304.5 -23t-158.5 -62t-47 -109q0 -77 52.5 -121.5t148.5 -44.5z" />
    <glyph glyph-name="uni0431" unicode="&#x431;" horiz-adv-x="1273" 
d="M702 1036q212 0 349 -141.5t137 -374.5q0 -240 -146.5 -390t-390.5 -150q-75 0 -140 16t-127.5 50.5t-111.5 95t-86 144.5t-57 204.5t-20 269.5q0 341 121 516t411 227q83 18 172 27q142 14 260 33l29 -172q-144 -24 -262 -35q-101 -9 -133 -15q-78 -12 -135 -31
t-106.5 -54t-81.5 -87.5t-52.5 -129.5t-26.5 -181q69 81 170.5 129.5t226.5 48.5zM651 156q156 0 248 100t92 262t-90 255t-235 93q-117 0 -213 -60t-150 -149q7 -142 36.5 -242.5t78 -155.5t105.5 -79t128 -24z" />
    <glyph glyph-name="uni0432" unicode="&#x432;" horiz-adv-x="1114" 
d="M172 0v1032h410q183 0 273.5 -68t90.5 -184q0 -92 -49.5 -153.5t-128.5 -79.5q117 -11 185.5 -76.5t68.5 -177.5q0 -145 -106 -219t-275 -74h-469zM367 602h198q104 0 148.5 44t44.5 108q0 135 -195 135h-196v-287zM367 141h245q101 0 155 43.5t54 118.5q0 160 -246 160
h-208v-322z" />
    <glyph glyph-name="uni0433" unicode="&#x433;" horiz-adv-x="866" 
d="M172 0v1032h639v-166h-444v-866h-195z" />
    <glyph glyph-name="uni0434" unicode="&#x434;" horiz-adv-x="1290" 
d="M1057 164h178v-467h-176v303h-848v-303h-178v467h71q75 0 114 58.5t56 195.5l78 614h705v-868zM467 401q-21 -176 -88 -237h483v702h-342z" />
    <glyph glyph-name="uni0435" unicode="&#x435;" horiz-adv-x="1175" 
d="M1096 512v-27h-807q9 -158 105 -246.5t255 -88.5q105 0 198 35t159 91l51 -159q-74 -61 -184 -99t-240 -38q-162 0 -286.5 71t-189.5 191.5t-65 271.5q0 154 67 277.5t184.5 192.5t262.5 69q218 0 354 -150.5t136 -390.5zM297 625h598q-15 120 -94 194t-195 74
q-114 0 -199 -74t-110 -194z" />
    <glyph glyph-name="uni0436" unicode="&#x436;" horiz-adv-x="1603" 
d="M1356 0l-398 465h-61v-465h-188v465h-62l-397 -465h-234l478 545l-457 487h223l383 -420h66v420h188v-420h66l383 420h223l-457 -487l475 -545h-231z" />
    <glyph glyph-name="uni0437" unicode="&#x437;" horiz-adv-x="1071" 
d="M500 -20q-143 0 -254.5 31t-173.5 75l39 172q167 -113 370 -113q122 0 190 40t68 116q0 51 -33 83t-118.5 50t-233.5 19v153q188 0 268 38t80 114q0 64 -54 98.5t-156 34.5q-164 0 -310 -90l-43 157q175 95 375 95q182 0 285.5 -72.5t103.5 -194.5q0 -96 -66 -163
t-180 -82q135 -16 217 -80t82 -180q0 -97 -62 -166.5t-163 -102t-231 -32.5z" />
    <glyph glyph-name="uni0438" unicode="&#x438;" horiz-adv-x="1316" 
d="M963 1032h186v-1032h-186v768l-605 -768h-186v1032h186v-768z" />
    <glyph glyph-name="uni0439" unicode="&#x439;" horiz-adv-x="1316" 
d="M963 1032h186v-1032h-186v768l-605 -768h-186v1032h186v-768zM657 1202q-153 0 -237.5 80t-87.5 217h141q4 -87 53 -129.5t133 -42.5q86 0 134 44t51 128h143q-3 -137 -90 -217t-240 -80z" />
    <glyph glyph-name="uni043A" unicode="&#x43a;" horiz-adv-x="1067" 
d="M817 0l-397 465h-62v-465h-186v1032h186v-418h68l381 418h223l-457 -487l476 -545h-232z" />
    <glyph glyph-name="uni043B" unicode="&#x43b;" horiz-adv-x="1271" 
d="M178 -16q-100 0 -166 28l35 174q42 -26 92 -26q56 0 86.5 40.5t42.5 129.5l86 702h750v-1032h-195v866h-381l-71 -592q-17 -142 -88.5 -216t-190.5 -74z" />
    <glyph glyph-name="uni043C" unicode="&#x43c;" horiz-adv-x="1548" 
d="M172 0v1032h221l379 -676l383 676h225v-1032h-190v758l-340 -602h-154l-340 602v-758h-184z" />
    <glyph glyph-name="uni043D" unicode="&#x43d;" horiz-adv-x="1261" 
d="M901 1032h195v-1032h-195v440h-534v-440h-195v1032h195v-426h534v426z" />
    <glyph glyph-name="uni043E" unicode="&#x43e;" horiz-adv-x="1282" 
d="M641 -20q-242 0 -395.5 150.5t-153.5 385.5q0 234 153.5 385.5t395.5 151.5q243 0 397 -151.5t154 -385.5q0 -235 -153.5 -385.5t-397.5 -150.5zM641 162q156 0 253 98.5t97 255.5q0 158 -97 256t-251 98q-157 0 -253.5 -98t-96.5 -256q0 -159 96.5 -256.5t251.5 -97.5z
" />
    <glyph glyph-name="uni043F" unicode="&#x43f;" horiz-adv-x="1255" 
d="M1087 1032v-1032h-194v866h-526v-866h-195v1032h915z" />
    <glyph glyph-name="uni0440" unicode="&#x440;" horiz-adv-x="1329" 
d="M743 1053q216 0 355 -151.5t139 -385.5q0 -233 -140.5 -384.5t-363.5 -151.5q-111 0 -210.5 52.5t-155.5 151.5v-614h-195v1462h195v-182q60 98 160.5 150.5t215.5 52.5zM705 160q148 0 240.5 99t92.5 257q0 156 -90.5 256t-240.5 100q-149 0 -250 -100t-101 -256
q0 -153 100.5 -254.5t248.5 -101.5z" />
    <glyph glyph-name="uni0441" unicode="&#x441;" horiz-adv-x="1052" 
d="M612 -20q-228 0 -374 147.5t-146 384.5q0 240 149.5 390.5t383.5 150.5q192 0 350 -105l-62 -170q-128 94 -278 94q-152 0 -246 -98t-94 -258t92.5 -259t241.5 -99q161 0 311 102l47 -166q-155 -114 -375 -114z" />
    <glyph glyph-name="uni0442" unicode="&#x442;" horiz-adv-x="950" 
d="M895 1032v-166h-322v-866h-194v866h-324v166h840z" />
    <glyph glyph-name="uni0443" unicode="&#x443;" horiz-adv-x="1034" 
d="M823 1032h205l-469 -1171q-61 -153 -152 -226t-227 -73q-78 0 -143 22l26 172q40 -14 84 -14q82 0 138 39t98 139l55 127l-432 985h213l320 -760z" />
    <glyph glyph-name="uni0444" unicode="&#x444;" horiz-adv-x="2002" 
d="M1444 1053q210 0 338.5 -149.5t128.5 -387.5t-129 -387t-342 -149q-239 0 -340 208v-618h-195v614q-99 -204 -336 -204q-218 0 -347.5 149t-129.5 389q0 237 129 386t344 149q238 0 340 -203v690h195v-690q108 203 344 203zM598 162q140 0 223.5 100.5t83.5 255.5
q0 154 -85.5 253t-223.5 99q-136 0 -218.5 -99.5t-82.5 -256.5q0 -158 83.5 -255t219.5 -97zM1409 162q133 0 217 98.5t84 255.5q0 156 -83 255t-216 99q-135 0 -223 -100t-88 -252q0 -153 87.5 -254.5t221.5 -101.5z" />
    <glyph glyph-name="uni0445" unicode="&#x445;" horiz-adv-x="1095" 
d="M31 0l403 530l-383 502h240l262 -360l264 360h227l-378 -497l399 -535h-234l-280 389l-285 -389h-235z" />
    <glyph glyph-name="uni0446" unicode="&#x446;" horiz-adv-x="1320" 
d="M1087 164h179v-467h-176v303h-918v1032h195v-868h526v868h194v-868z" />
    <glyph glyph-name="uni0447" unicode="&#x447;" horiz-adv-x="1224" 
d="M864 0v391q-151 -82 -319 -82q-186 0 -295 102.5t-109 299.5v321h195v-280q0 -142 67.5 -210.5t190.5 -68.5q147 0 270 80v479h195v-1032h-195z" />
    <glyph glyph-name="uni0448" unicode="&#x448;" horiz-adv-x="1832" 
d="M1470 1032h195v-1032h-1493v1032h195v-868h454v868h195v-868h454v868z" />
    <glyph glyph-name="uni0449" unicode="&#x449;" horiz-adv-x="1896" 
d="M1665 164h178v-467h-178v303h-1493v1032h195v-868h454v868h195v-868h454v868h195v-868z" />
    <glyph glyph-name="uni044A" unicode="&#x44a;" horiz-adv-x="1335" 
d="M864 618q184 0 282.5 -77.5t98.5 -223.5q0 -147 -103.5 -232t-271.5 -85h-460v866h-342v166h536v-414h260zM846 141q102 0 152.5 46t50.5 126q0 164 -220 164h-225v-336h242z" />
    <glyph glyph-name="uni044B" unicode="&#x44b;" horiz-adv-x="1521" 
d="M172 0v1032h195v-414h260q184 0 282.5 -77.5t98.5 -223.5q0 -147 -103.5 -232t-271.5 -85h-461zM1159 0v1032h195v-1032h-195zM367 141h241q102 0 152.5 46t50.5 126q0 164 -219 164h-225v-336z" />
    <glyph glyph-name="uni044C" unicode="&#x44c;" horiz-adv-x="1099" 
d="M172 0v1032h195v-414h260q184 0 282.5 -77.5t98.5 -223.5q0 -147 -103.5 -232t-271.5 -85h-461zM367 141h241q102 0 152.5 46t50.5 126q0 164 -219 164h-225v-336z" />
    <glyph glyph-name="uni044D" unicode="&#x44d;" horiz-adv-x="1058" 
d="M455 1053q230 0 371 -150.5t141 -388.5q0 -236 -148 -385t-377 -149q-223 0 -376 100l43 162q143 -95 319 -95q138 0 230 79t112 214h-547v152h547q-20 137 -109 215t-227 78q-162 0 -293 -90l-53 159q161 99 367 99z" />
    <glyph glyph-name="uni044E" unicode="&#x44e;" horiz-adv-x="1794" 
d="M1153 1053q243 0 397 -151.5t154 -385.5q0 -235 -153.5 -385.5t-397.5 -150.5q-221 0 -370 127t-175 333h-241v-440h-195v1032h195v-426h243q29 200 177.5 323.5t365.5 123.5zM1153 162q156 0 253 98.5t97 255.5q0 158 -97 256t-251 98q-157 0 -253.5 -98t-96.5 -256
q0 -159 96.5 -256.5t251.5 -97.5z" />
    <glyph glyph-name="uni044F" unicode="&#x44f;" horiz-adv-x="1095" 
d="M483 1034h447v-1032h-195v414h-211l-258 -416h-215l291 434q-107 29 -165 104t-58 185q0 150 97.5 230.5t266.5 80.5zM735 557v334h-217q-101 0 -151 -44.5t-50 -125.5q0 -164 201 -164h217z" />
    <glyph glyph-name="uni0450" unicode="&#x450;" horiz-adv-x="1175" 
d="M1096 512v-27h-807q9 -158 105 -246.5t255 -88.5q105 0 198 35t159 91l51 -159q-74 -61 -184 -99t-240 -38q-162 0 -286.5 71t-189.5 191.5t-65 271.5q0 154 67 277.5t184.5 192.5t262.5 69q218 0 354 -150.5t136 -390.5zM297 625h598q-15 120 -94 194t-195 74
q-114 0 -199 -74t-110 -194zM596 1178l-256 321h192l236 -321h-172z" />
    <glyph glyph-name="uni0451" unicode="&#x451;" horiz-adv-x="1175" 
d="M1096 512v-27h-807q9 -158 105 -246.5t255 -88.5q105 0 198 35t159 91l51 -159q-74 -61 -184 -99t-240 -38q-162 0 -286.5 71t-189.5 191.5t-65 271.5q0 154 67 277.5t184.5 192.5t262.5 69q218 0 354 -150.5t136 -390.5zM297 625h598q-15 120 -94 194t-195 74
q-114 0 -199 -74t-110 -194zM389 1249q-49 0 -83 34.5t-34 84.5t34 83.5t83 33.5q51 0 85 -33.5t34 -83.5t-34 -84.5t-85 -34.5zM831 1249q-49 0 -83.5 34.5t-34.5 84.5q0 49 34 83t84 34q49 0 83 -33.5t34 -83.5t-34 -84.5t-83 -34.5z" />
    <glyph glyph-name="uni0452" unicode="&#x452;" horiz-adv-x="1265" 
d="M733 1032q179 0 275 -104t96 -307v-721q0 -182 -68 -264t-205 -82q-83 0 -147 22l27 170q38 -14 82 -14q65 0 90.5 39t25.5 149v637q0 299 -243 299q-131 0 -215 -84.5t-84 -220.5v-551h-195v1196h-135v150h135v194h195v-194h346v-150h-346v-362q51 94 146 146t220 52z
" />
    <glyph glyph-name="uni0453" unicode="&#x453;" horiz-adv-x="866" 
d="M172 0v1032h639v-166h-444v-866h-195zM352 1178l232 321h194l-254 -321h-172z" />
    <glyph glyph-name="uni0454" unicode="&#x454;" horiz-adv-x="1058" 
d="M950 246l43 -160q-145 -106 -364 -106q-237 0 -387 148.5t-150 385.5q0 239 144.5 389t386.5 150q189 0 350 -99l-55 -159q-131 90 -285 90q-142 0 -233 -78t-111 -215h547v-152h-547q22 -134 117.5 -213.5t234.5 -79.5q170 0 309 99z" />
    <glyph glyph-name="uni0455" unicode="&#x455;" horiz-adv-x="989" 
d="M481 -20q-107 0 -208.5 29.5t-161.5 78.5l47 162q63 -52 152.5 -84.5t181.5 -32.5t144 37t52 104q0 28 -11 49.5t-27.5 37t-51 31t-64 25.5t-85.5 27q-57 17 -95 31.5t-82.5 40t-70.5 54.5t-44 73.5t-18 99.5q0 144 104 227t277 83q181 0 324 -86l-39 -160
q-137 92 -289 92q-83 0 -133.5 -34.5t-50.5 -96.5q0 -34 15.5 -59t49.5 -43.5t65.5 -29.5t86.5 -26q62 -17 108 -34t90 -42.5t71.5 -56.5t44 -75.5t16.5 -98.5q0 -147 -106 -235t-292 -88z" />
    <glyph glyph-name="uni0456" unicode="&#x456;" horiz-adv-x="536" 
d="M272 1233q-56 0 -93.5 37.5t-37.5 93.5t37.5 93.5t93.5 37.5q55 0 92 -37.5t37 -93.5t-37 -93.5t-92 -37.5zM172 0v1032h195v-1032h-195z" />
    <glyph glyph-name="uni0457" unicode="&#x457;" horiz-adv-x="536" 
d="M172 0v1032h195v-1032h-195zM88 1243q-52 0 -87.5 36t-35.5 89q0 52 35.5 87.5t87.5 35.5q53 0 89 -35.5t36 -87.5t-36.5 -88.5t-88.5 -36.5zM453 1243q-51 0 -87 36.5t-36 88.5t36 87.5t87 35.5q53 0 89 -35.5t36 -87.5t-36 -88.5t-89 -36.5z" />
    <glyph glyph-name="uni0458" unicode="&#x458;" horiz-adv-x="538" 
d="M270 1233q-56 0 -93.5 37.5t-37.5 93.5t37.5 93.5t93.5 37.5q55 0 92 -37.5t37 -93.5t-37 -93.5t-92 -37.5zM94 -446q-83 0 -151 22l28 170q38 -14 78 -14q67 0 95 40.5t28 147.5v1112h195v-1132q0 -180 -68.5 -263t-204.5 -83z" />
    <glyph glyph-name="uni0459" unicode="&#x459;" horiz-adv-x="1794" 
d="M1323 618q184 0 282.5 -77.5t98.5 -223.5q0 -147 -103.5 -232t-271.5 -85h-461v866h-340l-71 -592q-17 -142 -88 -216t-187 -74q-104 0 -170 28l35 174q42 -26 100 -26q46 0 77.5 42.5t43.5 127.5l86 702h709v-414h260zM1305 141q102 0 152 46t50 126q0 164 -219 164
h-225v-336h242z" />
    <glyph glyph-name="uni045A" unicode="&#x45a;" horiz-adv-x="1808" 
d="M1337 618q184 0 282.5 -77.5t98.5 -223.5q0 -147 -103.5 -232t-271.5 -85h-460v463h-516v-463h-195v1032h195v-416h516v416h194v-414h260zM1319 141q102 0 152.5 46t50.5 126q0 164 -219 164h-226v-336h242z" />
    <glyph glyph-name="uni045B" unicode="&#x45b;" horiz-adv-x="1265" 
d="M733 1032q179 0 275 -104t96 -307v-621h-195v557q0 299 -243 299q-131 0 -215 -84.5t-84 -220.5v-551h-195v1196h-135v150h135v194h195v-194h346v-150h-346v-362q51 94 146 146t220 52z" />
    <glyph glyph-name="uni045C" unicode="&#x45c;" horiz-adv-x="1067" 
d="M817 0l-397 465h-62v-465h-186v1032h186v-418h68l381 418h223l-457 -487l476 -545h-232zM436 1178l232 321h194l-254 -321h-172z" />
    <glyph glyph-name="uni045D" unicode="&#x45d;" horiz-adv-x="1316" 
d="M963 1032h186v-1032h-186v768l-605 -768h-186v1032h186v-768zM643 1178l-256 321h193l235 -321h-172z" />
    <glyph glyph-name="uni045E" unicode="&#x45e;" horiz-adv-x="1034" 
d="M823 1032h205l-469 -1171q-61 -153 -152 -226t-227 -73q-78 0 -143 22l26 172q40 -14 84 -14q82 0 138 39t98 139l55 127l-432 985h213l320 -760zM520 1202q-153 0 -237.5 80t-87.5 217h141q4 -87 53 -129.5t133 -42.5q86 0 134 44t51 128h143q-3 -137 -90 -217t-240 -80
z" />
    <glyph glyph-name="uni045F" unicode="&#x45f;" horiz-adv-x="1255" 
d="M893 1032h194v-1032h-368v-303h-176v303h-371v1032h195v-866h526v866z" />
    <glyph glyph-name="uni0490" unicode="&#x490;" horiz-adv-x="1071" 
d="M844 1741h182v-477h-620v-1264h-211v1454h649v287z" />
    <glyph glyph-name="uni0491" unicode="&#x491;" horiz-adv-x="866" 
d="M633 1282h178v-416h-444v-866h-195v1032h461v250z" />
    <glyph glyph-name="uni0492" unicode="&#x492;" horiz-adv-x="1071" 
d="M1026 1264h-620v-494h393v-174h-393v-596h-211v596h-168v174h168v684h831v-190z" />
    <glyph glyph-name="uni0493" unicode="&#x493;" horiz-adv-x="866" 
d="M811 866h-444v-309h323v-149h-323v-408h-195v408h-154v149h154v475h639v-166z" />
    <glyph glyph-name="uni0496" unicode="&#x496;" horiz-adv-x="2220" 
d="M1944 186h227v-536h-180v348h-138l-544 647h-152v-647h-203v647h-151l-547 -647h-248l635 754l-575 700h237l514 -639h135v639h203v-639h135l512 639h238l-576 -700z" />
    <glyph glyph-name="uni0497" unicode="&#x497;" horiz-adv-x="1687" 
d="M1444 164h190v-467h-178v303h-100l-398 465h-61v-465h-188v465h-62l-397 -465h-234l478 545l-457 487h223l383 -420h66v420h188v-420h66l383 420h223l-457 -487z" />
    <glyph glyph-name="uni049A" unicode="&#x49a;" horiz-adv-x="1460" 
d="M1186 186h225v-536h-182v348h-142l-542 647h-139v-647h-211v1454h211v-641h120l516 641h242l-575 -700z" />
    <glyph glyph-name="uni049B" unicode="&#x49b;" horiz-adv-x="1138" 
d="M905 164h189v-467h-179v303h-98l-397 465h-62v-465h-186v1032h186v-418h68l381 418h223l-457 -487z" />
    <glyph glyph-name="uni049C" unicode="&#x49c;" horiz-adv-x="1427" 
d="M1417 -2h-246l-481 645v-416h-149v418h-135v-647h-211v1454h211v-641h135v383h149v-358l436 616h232l-508 -700z" />
    <glyph glyph-name="uni049D" unicode="&#x49d;" horiz-adv-x="1136" 
d="M907 0l-286 465h-23v-250h-125v250h-115v-465h-186v1032h186v-418h115v226h125v-226h27l272 418h203l-326 -487l346 -545h-213z" />
    <glyph glyph-name="uni04A2" unicode="&#x4a2;" horiz-adv-x="1609" 
d="M1362 186h188v-536h-182v350h-215v635h-747v-635h-211v1454h211v-633h747v633h209v-1268z" />
    <glyph glyph-name="uni04A3" unicode="&#x4a3;" horiz-adv-x="1327" 
d="M1096 164h178v-467h-178v303h-195v440h-534v-440h-195v1032h195v-426h534v426h195v-868z" />
    <glyph glyph-name="uni04AE" unicode="&#x4ae;" horiz-adv-x="1214" 
d="M1217 1454l-506 -876v-578h-207v575l-506 879h231l389 -682l388 682h211z" />
    <glyph glyph-name="uni04AF" unicode="&#x4af;" horiz-adv-x="1032" 
d="M1026 1032l-412 -1012v-450h-194v450l-414 1012h215l299 -782l301 782h205z" />
    <glyph glyph-name="uni04B2" unicode="&#x4b2;" horiz-adv-x="1441" 
d="M1169 186h224v-536h-181v350h-163l-369 573l-369 -573h-231l485 737l-471 717h244l350 -551l363 551h223l-473 -713z" />
    <glyph glyph-name="uni04B3" unicode="&#x4b3;" horiz-adv-x="1167" 
d="M942 164h178v-467h-176v303h-113l-280 389l-285 -389h-235l403 530l-383 502h240l262 -360l264 360h227l-378 -497z" />
    <glyph glyph-name="uni04B8" unicode="&#x4b8;" horiz-adv-x="1456" 
d="M1051 1454h211v-1452h-211v664q-121 -91 -281 -129v-361h-147v340q-14 -2 -45 -2q-226 0 -337.5 114t-111.5 320v506h209v-471q0 -291 285 -291v449h147v-432q154 35 281 125v620z" />
    <glyph glyph-name="uni04B9" unicode="&#x4b9;" horiz-adv-x="1224" 
d="M864 1032h195v-1032h-195v391q-102 -56 -205 -74v-213h-122v205q-182 2 -289 105t-107 297v321h195v-280q0 -246 201 -275v252h122v-252q110 13 205 76v479z" />
    <glyph glyph-name="uni04BA" unicode="&#x4ba;" horiz-adv-x="1456" 
d="M406 1452v-664q88 66 210 109t263 43q226 0 337 -114t111 -320v-506h-209v471q0 143 -68.5 217t-215.5 74q-112 0 -224.5 -37.5t-203.5 -103.5v-621h-211v1452h211z" />
    <glyph glyph-name="uni04BB" unicode="&#x4bb;" horiz-adv-x="1265" 
d="M733 1055q179 0 275 -104.5t96 -307.5v-643h-195v578q0 301 -243 301q-131 0 -215 -85t-84 -221v-573h-195v1540h195v-684q51 95 146 147t220 52z" />
    <glyph glyph-name="uni04C0" unicode="&#x4c0;" horiz-adv-x="600" 
d="M195 0v1454h211v-1454h-211z" />
    <glyph glyph-name="uni04CF" unicode="&#x4cf;" horiz-adv-x="528" 
d="M168 0v1540h194v-1540h-194z" />
    <glyph glyph-name="uni04D8" unicode="&#x4d8;" horiz-adv-x="1564" 
d="M696 1475q215 0 387 -95.5t268.5 -267t96.5 -387.5q0 -163 -52.5 -303t-144 -238t-219.5 -153.5t-276 -55.5q-317 0 -492.5 198t-175.5 544v41h1141q-15 232 -165 375t-380 143q-232 0 -438 -152l-62 189q222 162 512 162zM758 174q172 0 299 109.5t162 298.5h-897
q15 -187 133 -297.5t303 -110.5z" />
    <glyph glyph-name="uni04D9" unicode="&#x4d9;" horiz-adv-x="1175" 
d="M543 1053q162 0 286 -71t189 -192t65 -272q0 -115 -39.5 -215.5t-107.5 -171t-163.5 -111t-203.5 -40.5q-218 0 -353.5 150t-135.5 390v27h807q-9 158 -105.5 247t-255.5 89q-105 0 -197.5 -35.5t-158.5 -91.5l-51 159q74 61 184 99.5t240 38.5zM569 139
q114 0 199.5 74.5t110.5 194.5h-598q15 -120 93.5 -194.5t194.5 -74.5z" />
    <glyph glyph-name="uni04E8" unicode="&#x4e8;" horiz-adv-x="1753" 
d="M874 1475q159 0 299.5 -56t242 -154t160 -237t58.5 -299q0 -213 -100 -385t-273.5 -268t-386.5 -96q-212 0 -385 95t-272.5 266.5t-99.5 385.5q0 161 58.5 300.5t159.5 237.5t240.5 154t298.5 56zM877 1280q-209 0 -359 -130.5t-178 -336.5h1071q-28 206 -176.5 336.5
t-357.5 130.5zM877 174q207 0 356 129.5t178 333.5h-1071q31 -204 180.5 -333.5t356.5 -129.5z" />
    <glyph glyph-name="uni04E9" unicode="&#x4e9;" horiz-adv-x="1282" 
d="M641 1053q243 0 397 -151.5t154 -385.5q0 -235 -153.5 -385.5t-397.5 -150.5q-242 0 -395.5 150.5t-153.5 385.5q0 234 153.5 385.5t395.5 151.5zM641 887q-141 0 -234.5 -80t-115.5 -219h698q-20 139 -114 219t-234 80zM641 145q141 0 235.5 82t114.5 222h-700
q20 -140 115 -222t235 -82z" />
    <glyph glyph-name="Wgrave" unicode="&#x1e80;" horiz-adv-x="2037" 
d="M1792 1454h211l-422 -1454h-217l-344 1155l-346 -1155h-217l-420 1454h225l322 -1165l342 1165h209l340 -1157zM987 1581l-276 301h207l241 -301h-172z" />
    <glyph glyph-name="wgrave" unicode="&#x1e81;" horiz-adv-x="1634" 
d="M1403 1032h205l-336 -1032h-201l-250 770l-248 -770h-200l-346 1032h215l245 -799l252 799h168l254 -790zM805 1178l-256 321h192l236 -321h-172z" />
    <glyph glyph-name="Wacute" unicode="&#x1e82;" horiz-adv-x="2037" 
d="M1792 1454h211l-422 -1454h-217l-344 1155l-346 -1155h-217l-420 1454h225l322 -1165l342 1165h209l340 -1157zM893 1581l240 301h208l-276 -301h-172z" />
    <glyph glyph-name="wacute" unicode="&#x1e83;" horiz-adv-x="1634" 
d="M1403 1032h205l-336 -1032h-201l-250 770l-248 -770h-200l-346 1032h215l245 -799l252 799h168l254 -790zM686 1178l232 321h194l-254 -321h-172z" />
    <glyph glyph-name="Wdieresis" unicode="&#x1e84;" horiz-adv-x="2037" 
d="M1792 1454h211l-422 -1454h-217l-344 1155l-346 -1155h-217l-420 1454h225l322 -1165l342 1165h209l340 -1157zM809 1616q-49 0 -83 34.5t-34 84.5q0 49 33.5 82.5t83.5 33.5q51 0 85 -33t34 -83t-34 -84.5t-85 -34.5zM1251 1616q-49 0 -83.5 34.5t-34.5 84.5
q0 49 34 82.5t84 33.5t83.5 -33.5t33.5 -82.5q0 -50 -34 -84.5t-83 -34.5z" />
    <glyph glyph-name="wdieresis" unicode="&#x1e85;" horiz-adv-x="1634" 
d="M1403 1032h205l-336 -1032h-201l-250 770l-248 -770h-200l-346 1032h215l245 -799l252 799h168l254 -790zM598 1249q-49 0 -83 34.5t-34 84.5t33.5 83.5t83.5 33.5q51 0 85 -33.5t34 -83.5t-34 -84.5t-85 -34.5zM1040 1249q-49 0 -83.5 34.5t-34.5 84.5q0 49 34 83t84 34
t83.5 -33.5t33.5 -83.5t-34 -84.5t-83 -34.5z" />
    <glyph glyph-name="uni1E9E" unicode="&#x1e9e;" horiz-adv-x="1562" 
d="M918 877q252 -10 386 -121.5t134 -309.5q0 -205 -136.5 -335.5t-375.5 -130.5q-228 0 -410 112l66 180q167 -116 338 -116q142 0 225.5 78t83.5 208q0 159 -129.5 226t-419.5 75v166l430 271q-129 123 -322 123q-397 0 -397 -484v-819h-207v846q0 289 157.5 459
t446.5 170q328 0 517 -218v-145z" />
    <glyph glyph-name="uni1EA0" unicode="&#x1ea0;" horiz-adv-x="1396" 
d="M1141 0l-162 442h-567l-162 -442h-213l549 1454h225l551 -1454h-221zM473 614h442l-221 607zM698 -432q-56 0 -93.5 38t-37.5 93t37.5 93t93.5 38q55 0 92 -37.5t37 -93.5t-37 -93.5t-92 -37.5z" />
    <glyph glyph-name="uni1EA1" unicode="&#x1ea1;" horiz-adv-x="1179" 
d="M594 1053q202 0 314 -102t112 -306v-645h-195v160q-52 -82 -147 -131t-221 -49q-160 0 -252 82t-92 223q0 177 165 253.5t547 79.5v23q0 115 -67.5 180.5t-196.5 65.5q-168 0 -330 -117l-49 162q76 52 183 86.5t229 34.5zM516 129q55 0 108 16t99 47t74 85.5t28 123.5v88
q-193 -2 -304.5 -23t-158.5 -62t-47 -109q0 -77 52.5 -121.5t148.5 -44.5zM590 -432q-56 0 -93.5 38t-37.5 93t37.5 93t93.5 38q55 0 92 -37.5t37 -93.5t-37 -93.5t-92 -37.5z" />
    <glyph glyph-name="uni1EA2" unicode="&#x1ea2;" horiz-adv-x="1396" 
d="M1141 0l-162 442h-567l-162 -442h-213l549 1454h225l551 -1454h-221zM473 614h442l-221 607zM618 1579q0 58 17 82.5t63 48.5q26 13 37 19.5t28 18.5t23.5 25.5t6.5 30.5q0 60 -95 60q-54 0 -120 -27l-27 113q86 35 174 35q89 0 151 -43.5t62 -124.5q0 -59 -32.5 -96
t-90.5 -70q-30 -19 -38 -30.5t-11 -41.5h-148z" />
    <glyph glyph-name="uni1EA3" unicode="&#x1ea3;" horiz-adv-x="1179" 
d="M594 1053q202 0 314 -102t112 -306v-645h-195v160q-52 -82 -147 -131t-221 -49q-160 0 -252 82t-92 223q0 177 165 253.5t547 79.5v23q0 115 -67.5 180.5t-196.5 65.5q-168 0 -330 -117l-49 162q76 52 183 86.5t229 34.5zM516 129q55 0 108 16t99 47t74 85.5t28 123.5v88
q-193 -2 -304.5 -23t-158.5 -62t-47 -109q0 -77 52.5 -121.5t148.5 -44.5zM520 1157q0 58 17 82.5t63 48.5q25 13 36.5 19.5t28 18.5t23 25.5t6.5 30.5q0 60 -94 60q-55 0 -121 -27l-26 113q86 35 174 35q89 0 151 -43.5t62 -124.5q0 -59 -32.5 -96t-90.5 -70
q-30 -19 -38 -30.5t-11 -41.5h-148z" />
    <glyph glyph-name="uni1EA4" unicode="&#x1ea4;" horiz-adv-x="1396" 
d="M1141 0l-162 442h-567l-162 -442h-213l549 1454h225l551 -1454h-221zM473 614h442l-221 607zM946 1772l131 206h172l-164 -206h-139zM381 1581l229 281h176l230 -281h-154l-164 162l-161 -162h-156z" />
    <glyph glyph-name="uni1EA5" unicode="&#x1ea5;" horiz-adv-x="1179" 
d="M594 1053q202 0 314 -102t112 -306v-645h-195v160q-52 -82 -147 -131t-221 -49q-160 0 -252 82t-92 223q0 177 165 253.5t547 79.5v23q0 115 -67.5 180.5t-196.5 65.5q-168 0 -330 -117l-49 162q76 52 183 86.5t229 34.5zM516 129q55 0 108 16t99 47t74 85.5t28 123.5v88
q-193 -2 -304.5 -23t-158.5 -62t-47 -109q0 -77 52.5 -121.5t148.5 -44.5zM850 1401l131 207h172l-164 -207h-139zM281 1178l229 321h176l229 -321h-153l-164 206l-162 -206h-155z" />
    <glyph glyph-name="uni1EA6" unicode="&#x1ea6;" horiz-adv-x="1396" 
d="M1141 0l-162 442h-567l-162 -442h-213l549 1454h225l551 -1454h-221zM473 614h442l-221 607zM317 1772l-161 206h170l133 -206h-142zM383 1581l229 281h176l230 -281h-154l-164 162l-161 -162h-156z" />
    <glyph glyph-name="uni1EA7" unicode="&#x1ea7;" horiz-adv-x="1179" 
d="M594 1053q202 0 314 -102t112 -306v-645h-195v160q-52 -82 -147 -131t-221 -49q-160 0 -252 82t-92 223q0 177 165 253.5t547 79.5v23q0 115 -67.5 180.5t-196.5 65.5q-168 0 -330 -117l-49 162q76 52 183 86.5t229 34.5zM516 129q55 0 108 16t99 47t74 85.5t28 123.5v88
q-193 -2 -304.5 -23t-158.5 -62t-47 -109q0 -77 52.5 -121.5t148.5 -44.5zM215 1401l-162 207h170l133 -207h-141zM289 1178l229 321h176l230 -321h-154l-164 206l-162 -206h-155z" />
    <glyph glyph-name="uni1EA8" unicode="&#x1ea8;" horiz-adv-x="1396" 
d="M1141 0l-162 442h-567l-162 -442h-213l549 1454h225l551 -1454h-221zM473 614h442l-221 607zM963 1739q0 52 15 74.5t56 44.5q24 13 32.5 18t24 16.5t21.5 23t6 26.5q0 55 -84 55q-46 0 -108 -25l-25 101q80 32 156 32q79 0 135.5 -39.5t56.5 -111.5q0 -54 -29 -87.5
t-81 -62.5q-27 -18 -34.5 -28t-10.5 -37h-131zM381 1581l229 281h176l230 -281h-154l-164 162l-161 -162h-156z" />
    <glyph glyph-name="uni1EA9" unicode="&#x1ea9;" horiz-adv-x="1179" 
d="M594 1053q202 0 314 -102t112 -306v-645h-195v160q-52 -82 -147 -131t-221 -49q-160 0 -252 82t-92 223q0 177 165 253.5t547 79.5v23q0 115 -67.5 180.5t-196.5 65.5q-168 0 -330 -117l-49 162q76 52 183 86.5t229 34.5zM516 129q55 0 108 16t99 47t74 85.5t28 123.5v88
q-193 -2 -304.5 -23t-158.5 -62t-47 -109q0 -77 52.5 -121.5t148.5 -44.5zM879 1362q0 52 15 74.5t56 44.5q24 13 32.5 18t24 16.5t21.5 23t6 26.5q0 55 -84 55q-46 0 -108 -25l-25 101q82 33 156 33q79 0 135.5 -40t56.5 -112q0 -54 -29 -87.5t-81 -62.5q-27 -18 -34.5 -28
t-10.5 -37h-131zM283 1178l229 321h176l230 -321h-154l-164 206l-162 -206h-155z" />
    <glyph glyph-name="uni1EAA" unicode="&#x1eaa;" horiz-adv-x="1396" 
d="M1141 0l-162 442h-567l-162 -442h-213l549 1454h225l551 -1454h-221zM473 614h442l-221 607zM391 1942q10 102 55 152t107 50q61 0 162 -43q78 -35 106 -35q56 0 68 78h112q-11 -100 -56.5 -151t-108.5 -51q-51 0 -154 45q-75 34 -113 34q-47 0 -65 -79h-113zM346 1581
l254 281h197l256 -281h-172l-183 162l-180 -162h-172z" />
    <glyph glyph-name="uni1EAB" unicode="&#x1eab;" horiz-adv-x="1179" 
d="M594 1053q202 0 314 -102t112 -306v-645h-195v160q-52 -82 -147 -131t-221 -49q-160 0 -252 82t-92 223q0 177 165 253.5t547 79.5v23q0 115 -67.5 180.5t-196.5 65.5q-168 0 -330 -117l-49 162q76 52 183 86.5t229 34.5zM516 129q55 0 108 16t99 47t74 85.5t28 123.5v88
q-193 -2 -304.5 -23t-158.5 -62t-47 -109q0 -77 52.5 -121.5t148.5 -44.5zM293 1585q10 103 55 153t107 50q60 0 161 -43q78 -35 107 -35q56 0 68 78h112q-11 -100 -57 -151.5t-109 -51.5q-50 0 -153 45q-77 35 -113 35q-47 0 -65 -80h-113zM248 1178l254 321h196l256 -321
h-172l-182 206l-180 -206h-172z" />
    <glyph glyph-name="uni1EAC" unicode="&#x1eac;" horiz-adv-x="1396" 
d="M1141 0l-162 442h-567l-162 -442h-213l549 1454h225l551 -1454h-221zM473 614h442l-221 607zM346 1581l254 281h197l256 -281h-172l-183 162l-180 -162h-172zM698 -432q-56 0 -93.5 38t-37.5 93t37.5 93t93.5 38q55 0 92 -37.5t37 -93.5t-37 -93.5t-92 -37.5z" />
    <glyph glyph-name="uni1EAD" unicode="&#x1ead;" horiz-adv-x="1179" 
d="M594 1053q202 0 314 -102t112 -306v-645h-195v160q-52 -82 -147 -131t-221 -49q-160 0 -252 82t-92 223q0 177 165 253.5t547 79.5v23q0 115 -67.5 180.5t-196.5 65.5q-168 0 -330 -117l-49 162q76 52 183 86.5t229 34.5zM516 129q55 0 108 16t99 47t74 85.5t28 123.5v88
q-193 -2 -304.5 -23t-158.5 -62t-47 -109q0 -77 52.5 -121.5t148.5 -44.5zM248 1178l254 321h196l256 -321h-172l-182 206l-180 -206h-172zM590 -432q-56 0 -93.5 38t-37.5 93t37.5 93t93.5 38q55 0 92 -37.5t37 -93.5t-37 -93.5t-92 -37.5z" />
    <glyph glyph-name="uni1EAE" unicode="&#x1eae;" horiz-adv-x="1396" 
d="M1141 0l-162 442h-567l-162 -442h-213l549 1454h225l551 -1454h-221zM473 614h442l-221 607zM598 1915l131 207h172l-164 -207h-139zM698 1585q-145 0 -224.5 69.5t-84.5 186.5h141q6 -61 50.5 -95t119.5 -34q71 0 114.5 35t49.5 94h142q-6 -115 -89.5 -185.5
t-218.5 -70.5z" />
    <glyph glyph-name="uni1EAF" unicode="&#x1eaf;" horiz-adv-x="1179" 
d="M594 1053q202 0 314 -102t112 -306v-645h-195v160q-52 -82 -147 -131t-221 -49q-160 0 -252 82t-92 223q0 177 165 253.5t547 79.5v23q0 115 -67.5 180.5t-196.5 65.5q-168 0 -330 -117l-49 162q76 52 183 86.5t229 34.5zM516 129q55 0 108 16t99 47t74 85.5t28 123.5v88
q-193 -2 -304.5 -23t-158.5 -62t-47 -109q0 -77 52.5 -121.5t148.5 -44.5zM498 1567l131 207h172l-164 -207h-139zM598 1190q-142 0 -222 83.5t-83 225.5h141q4 -92 47.5 -137t118.5 -45q76 0 118.5 46t45.5 136h143q-3 -142 -84 -225.5t-225 -83.5z" />
    <glyph glyph-name="uni1EB0" unicode="&#x1eb0;" horiz-adv-x="1396" 
d="M1141 0l-162 442h-567l-162 -442h-213l549 1454h225l551 -1454h-221zM473 614h442l-221 607zM653 1915l-161 207h170l133 -207h-142zM698 1585q-145 0 -224.5 69.5t-84.5 186.5h141q6 -61 50.5 -95t119.5 -34q71 0 114.5 35t49.5 94h142q-6 -115 -89.5 -185.5
t-218.5 -70.5z" />
    <glyph glyph-name="uni1EB1" unicode="&#x1eb1;" horiz-adv-x="1179" 
d="M594 1053q202 0 314 -102t112 -306v-645h-195v160q-52 -82 -147 -131t-221 -49q-160 0 -252 82t-92 223q0 177 165 253.5t547 79.5v23q0 115 -67.5 180.5t-196.5 65.5q-168 0 -330 -117l-49 162q76 52 183 86.5t229 34.5zM516 129q55 0 108 16t99 47t74 85.5t28 123.5v88
q-193 -2 -304.5 -23t-158.5 -62t-47 -109q0 -77 52.5 -121.5t148.5 -44.5zM553 1567l-162 207h170l133 -207h-141zM598 1190q-142 0 -222 83.5t-83 225.5h141q4 -92 47.5 -137t118.5 -45q76 0 118.5 46t45.5 136h143q-3 -142 -84 -225.5t-225 -83.5z" />
    <glyph glyph-name="uni1EB2" unicode="&#x1eb2;" horiz-adv-x="1396" 
d="M1141 0l-162 442h-567l-162 -442h-213l549 1454h225l551 -1454h-221zM473 614h442l-221 607zM627 1905q0 52 14.5 74t56.5 44q24 13 32.5 18t24 16.5t21.5 23t6 26.5q0 56 -84 56q-46 0 -108 -25l-25 100q83 33 156 33q79 0 135.5 -39.5t56.5 -111.5q0 -54 -29 -87.5
t-81 -62.5q-27 -18 -34.5 -28t-10.5 -37h-131zM698 1585q-145 0 -224.5 69.5t-84.5 186.5h141q6 -61 50.5 -95t119.5 -34q71 0 114.5 35t49.5 94h142q-6 -115 -89.5 -185.5t-218.5 -70.5z" />
    <glyph glyph-name="uni1EB3" unicode="&#x1eb3;" horiz-adv-x="1179" 
d="M594 1053q202 0 314 -102t112 -306v-645h-195v160q-52 -82 -147 -131t-221 -49q-160 0 -252 82t-92 223q0 177 165 253.5t547 79.5v23q0 115 -67.5 180.5t-196.5 65.5q-168 0 -330 -117l-49 162q76 52 183 86.5t229 34.5zM516 129q55 0 108 16t99 47t74 85.5t28 123.5v88
q-193 -2 -304.5 -23t-158.5 -62t-47 -109q0 -77 52.5 -121.5t148.5 -44.5zM526 1556q0 52 15 74.5t57 44.5q24 13 32.5 18t24 16.5t21.5 23t6 26.5q0 56 -84 56q-46 0 -109 -25l-24 100q83 33 156 33q79 0 135.5 -39.5t56.5 -111.5q0 -54 -29.5 -87.5t-81.5 -62.5
q-27 -18 -34.5 -28.5t-10.5 -37.5h-131zM598 1190q-142 0 -222 83.5t-83 225.5h141q4 -92 47.5 -137t118.5 -45q76 0 118.5 46t45.5 136h143q-3 -142 -84 -225.5t-225 -83.5z" />
    <glyph glyph-name="uni1EB4" unicode="&#x1eb4;" horiz-adv-x="1396" 
d="M1141 0l-162 442h-567l-162 -442h-213l549 1454h225l551 -1454h-221zM473 614h442l-221 607zM393 1964q10 102 55 152.5t107 50.5q61 0 162 -43q78 -35 106 -35q56 0 68 78h113q-11 -100 -57 -151.5t-109 -51.5q-51 0 -154 45q-77 35 -113 35q-47 0 -65 -80h-113z
M700 1585q-145 0 -224.5 69.5t-84.5 186.5h141q6 -61 50.5 -95t119.5 -34q71 0 114.5 35t49.5 94h142q-6 -115 -89.5 -185.5t-218.5 -70.5z" />
    <glyph glyph-name="uni1EB5" unicode="&#x1eb5;" horiz-adv-x="1179" 
d="M594 1053q202 0 314 -102t112 -306v-645h-195v160q-52 -82 -147 -131t-221 -49q-160 0 -252 82t-92 223q0 177 165 253.5t547 79.5v23q0 115 -67.5 180.5t-196.5 65.5q-168 0 -330 -117l-49 162q76 52 183 86.5t229 34.5zM516 129q55 0 108 16t99 47t74 85.5t28 123.5v88
q-193 -2 -304.5 -23t-158.5 -62t-47 -109q0 -77 52.5 -121.5t148.5 -44.5zM293 1616q10 102 55 152.5t107 50.5q60 0 161 -43q78 -35 107 -35q56 0 68 78h112q-11 -100 -57 -151.5t-109 -51.5q-50 0 -153 45q-77 35 -113 35q-47 0 -65 -80h-113zM600 1190q-142 0 -222 83.5
t-83 225.5h141q4 -92 47.5 -137t118.5 -45q76 0 118.5 46t45.5 136h143q-3 -142 -84 -225.5t-225 -83.5z" />
    <glyph glyph-name="uni1EB6" unicode="&#x1eb6;" horiz-adv-x="1396" 
d="M1141 0l-162 442h-567l-162 -442h-213l549 1454h225l551 -1454h-221zM473 614h442l-221 607zM698 1585q-145 0 -224.5 69.5t-84.5 186.5h141q6 -61 50.5 -95t119.5 -34q71 0 114.5 35t49.5 94h142q-6 -115 -89.5 -185.5t-218.5 -70.5zM698 -432q-56 0 -93.5 38t-37.5 93
t37.5 93t93.5 38q55 0 92 -37.5t37 -93.5t-37 -93.5t-92 -37.5z" />
    <glyph glyph-name="uni1EB7" unicode="&#x1eb7;" horiz-adv-x="1179" 
d="M594 1053q202 0 314 -102t112 -306v-645h-195v160q-52 -82 -147 -131t-221 -49q-160 0 -252 82t-92 223q0 177 165 253.5t547 79.5v23q0 115 -67.5 180.5t-196.5 65.5q-168 0 -330 -117l-49 162q76 52 183 86.5t229 34.5zM516 129q55 0 108 16t99 47t74 85.5t28 123.5v88
q-193 -2 -304.5 -23t-158.5 -62t-47 -109q0 -77 52.5 -121.5t148.5 -44.5zM598 1190q-142 0 -222 83.5t-83 225.5h141q4 -92 47.5 -137t118.5 -45q76 0 118.5 46t45.5 136h143q-3 -142 -84 -225.5t-225 -83.5zM590 -432q-56 0 -93.5 38t-37.5 93t37.5 93t93.5 38
q55 0 92 -37.5t37 -93.5t-37 -93.5t-92 -37.5z" />
    <glyph glyph-name="uni1EB8" unicode="&#x1eb8;" horiz-adv-x="1187" 
d="M195 0v1454h831v-186h-620v-449h600v-182h-600v-451h634v-186h-845zM604 -432q-56 0 -93.5 38t-37.5 93t37.5 93t93.5 38q55 0 92 -37.5t37 -93.5t-37 -93.5t-92 -37.5z" />
    <glyph glyph-name="uni1EB9" unicode="&#x1eb9;" horiz-adv-x="1175" 
d="M1096 512v-27h-807q9 -158 105 -246.5t255 -88.5q105 0 198 35t159 91l51 -159q-74 -61 -184 -99t-240 -38q-162 0 -286.5 71t-189.5 191.5t-65 271.5q0 154 67 277.5t184.5 192.5t262.5 69q218 0 354 -150.5t136 -390.5zM297 625h598q-15 120 -94 194t-195 74
q-114 0 -199 -74t-110 -194zM614 -432q-56 0 -93.5 38t-37.5 93t37.5 93t93.5 38q55 0 92 -37.5t37 -93.5t-37 -93.5t-92 -37.5z" />
    <glyph glyph-name="uni1EBA" unicode="&#x1eba;" horiz-adv-x="1187" 
d="M195 0v1454h831v-186h-620v-449h600v-182h-600v-451h634v-186h-845zM537 1579q0 58 17 82.5t62 48.5q26 13 37 19.5t28 18.5t23.5 25.5t6.5 30.5q0 60 -95 60q-54 0 -120 -27l-27 113q86 35 174 35q89 0 151 -43.5t62 -124.5q0 -59 -32.5 -96t-90.5 -70
q-30 -19 -38 -30.5t-11 -41.5h-147z" />
    <glyph glyph-name="uni1EBB" unicode="&#x1ebb;" horiz-adv-x="1175" 
d="M1096 512v-27h-807q9 -158 105 -246.5t255 -88.5q105 0 198 35t159 91l51 -159q-74 -61 -184 -99t-240 -38q-162 0 -286.5 71t-189.5 191.5t-65 271.5q0 154 67 277.5t184.5 192.5t262.5 69q218 0 354 -150.5t136 -390.5zM297 625h598q-15 120 -94 194t-195 74
q-114 0 -199 -74t-110 -194zM532 1157q0 58 17 82.5t63 48.5q26 13 37 19.5t28 18.5t23.5 25.5t6.5 30.5q0 60 -95 60q-54 0 -120 -27l-27 113q86 35 174 35q89 0 151 -43.5t62 -124.5q0 -59 -32.5 -96t-90.5 -70q-30 -19 -38 -30.5t-11 -41.5h-148z" />
    <glyph glyph-name="uni1EBC" unicode="&#x1ebc;" horiz-adv-x="1187" 
d="M195 0v1454h831v-186h-620v-449h600v-182h-600v-451h634v-186h-845zM274 1581q11 114 59.5 169.5t119.5 55.5q54 0 182 -51q8 -3 27.5 -10.5t29 -10.5t23.5 -7.5t25 -6.5t20 -2q31 0 46 20t21 68h125q-12 -107 -58.5 -166t-119.5 -59q-65 0 -176 49q-95 39 -127 39
q-30 0 -45.5 -20t-26.5 -68h-125z" />
    <glyph glyph-name="uni1EBD" unicode="&#x1ebd;" horiz-adv-x="1175" 
d="M1096 512v-27h-807q9 -158 105 -246.5t255 -88.5q105 0 198 35t159 91l51 -159q-74 -61 -184 -99t-240 -38q-162 0 -286.5 71t-189.5 191.5t-65 271.5q0 154 67 277.5t184.5 192.5t262.5 69q218 0 354 -150.5t136 -390.5zM297 625h598q-15 120 -94 194t-195 74
q-114 0 -199 -74t-110 -194zM270 1223q11 114 61.5 169.5t119.5 55.5q65 0 180 -49q86 -39 117 -39q63 0 75 88h125q-13 -112 -63 -168.5t-121 -56.5q-56 0 -170 49q-88 39 -125 39q-26 0 -44.5 -19.5t-29.5 -68.5h-125z" />
    <glyph glyph-name="uni1EBE" unicode="&#x1ebe;" horiz-adv-x="1187" 
d="M195 0v1454h831v-186h-620v-449h600v-182h-600v-451h634v-186h-845zM864 1772l131 206h172l-163 -206h-140zM299 1581l229 281h177l229 -281h-154l-164 162l-161 -162h-156z" />
    <glyph glyph-name="uni1EBF" unicode="&#x1ebf;" horiz-adv-x="1175" 
d="M1096 512v-27h-807q9 -158 105 -246.5t255 -88.5q105 0 198 35t159 91l51 -159q-74 -61 -184 -99t-240 -38q-162 0 -286.5 71t-189.5 191.5t-65 271.5q0 154 67 277.5t184.5 192.5t262.5 69q218 0 354 -150.5t136 -390.5zM297 625h598q-15 120 -94 194t-195 74
q-114 0 -199 -74t-110 -194zM858 1401l131 207h172l-164 -207h-139zM289 1178l229 321h176l230 -321h-154l-164 206l-162 -206h-155z" />
    <glyph glyph-name="uni1EC0" unicode="&#x1ec0;" horiz-adv-x="1187" 
d="M195 0v1454h831v-186h-620v-449h600v-182h-600v-451h634v-186h-845zM236 1772l-162 206h170l133 -206h-141zM301 1581l229 281h177l229 -281h-154l-164 162l-161 -162h-156z" />
    <glyph glyph-name="uni1EC1" unicode="&#x1ec1;" horiz-adv-x="1175" 
d="M1096 512v-27h-807q9 -158 105 -246.5t255 -88.5q105 0 198 35t159 91l51 -159q-74 -61 -184 -99t-240 -38q-162 0 -286.5 71t-189.5 191.5t-65 271.5q0 154 67 277.5t184.5 192.5t262.5 69q218 0 354 -150.5t136 -390.5zM297 625h598q-15 120 -94 194t-195 74
q-114 0 -199 -74t-110 -194zM223 1401l-162 207h170l134 -207h-142zM297 1178l229 321h176l230 -321h-154l-164 206l-161 -206h-156z" />
    <glyph glyph-name="uni1EC2" unicode="&#x1ec2;" horiz-adv-x="1187" 
d="M195 0v1454h831v-186h-620v-449h600v-182h-600v-451h634v-186h-845zM881 1739q0 52 15 74.5t56 44.5q24 13 32.5 18t24 16.5t21.5 23t6 26.5q0 55 -84 55q-46 0 -108 -25l-25 101q80 32 156 32q79 0 135.5 -39.5t56.5 -111.5q0 -54 -29 -87.5t-81 -62.5
q-27 -18 -34.5 -28t-10.5 -37h-131zM299 1581l229 281h177l229 -281h-154l-164 162l-161 -162h-156z" />
    <glyph glyph-name="uni1EC3" unicode="&#x1ec3;" horiz-adv-x="1175" 
d="M1096 512v-27h-807q9 -158 105 -246.5t255 -88.5q105 0 198 35t159 91l51 -159q-74 -61 -184 -99t-240 -38q-162 0 -286.5 71t-189.5 191.5t-65 271.5q0 154 67 277.5t184.5 192.5t262.5 69q218 0 354 -150.5t136 -390.5zM297 625h598q-15 120 -94 194t-195 74
q-114 0 -199 -74t-110 -194zM891 1362q0 52 15 74.5t57 44.5q24 13 32.5 18t24 16.5t21.5 23t6 26.5q0 55 -84 55q-47 0 -109 -25l-25 101q82 33 156 33q79 0 136 -40t57 -112q0 -54 -29.5 -87.5t-81.5 -62.5q-27 -18 -34.5 -28t-10.5 -37h-131zM295 1178l229 321h176
l230 -321h-154l-164 206l-161 -206h-156z" />
    <glyph glyph-name="uni1EC4" unicode="&#x1ec4;" horiz-adv-x="1187" 
d="M195 0v1454h831v-186h-620v-449h600v-182h-600v-451h634v-186h-845zM309 1942q10 102 55 152t107 50q61 0 162 -43q78 -35 106 -35q56 0 68 78h113q-11 -100 -57 -151t-109 -51q-51 0 -154 45q-75 34 -113 34q-47 0 -65 -79h-113zM264 1581l254 281h197l256 -281h-172
l-183 162l-180 -162h-172z" />
    <glyph glyph-name="uni1EC5" unicode="&#x1ec5;" horiz-adv-x="1175" 
d="M1096 512v-27h-807q9 -158 105 -246.5t255 -88.5q105 0 198 35t159 91l51 -159q-74 -61 -184 -99t-240 -38q-162 0 -286.5 71t-189.5 191.5t-65 271.5q0 154 67 277.5t184.5 192.5t262.5 69q218 0 354 -150.5t136 -390.5zM297 625h598q-15 120 -94 194t-195 74
q-114 0 -199 -74t-110 -194zM305 1585q10 103 55 153t107 50q61 0 162 -43q78 -35 106 -35q56 0 68 78h112q-12 -100 -57 -151.5t-108 -51.5q-51 0 -154 45q-77 35 -113 35q-47 0 -65 -80h-113zM260 1178l254 321h197l256 -321h-172l-183 206l-180 -206h-172z" />
    <glyph glyph-name="uni1EC6" unicode="&#x1ec6;" horiz-adv-x="1187" 
d="M195 0v1454h831v-186h-620v-449h600v-182h-600v-451h634v-186h-845zM264 1581l254 281h197l256 -281h-172l-183 162l-180 -162h-172zM604 -432q-56 0 -93.5 38t-37.5 93t37.5 93t93.5 38q55 0 92 -37.5t37 -93.5t-37 -93.5t-92 -37.5z" />
    <glyph glyph-name="uni1EC7" unicode="&#x1ec7;" horiz-adv-x="1175" 
d="M1096 512v-27h-807q9 -158 105 -246.5t255 -88.5q105 0 198 35t159 91l51 -159q-74 -61 -184 -99t-240 -38q-162 0 -286.5 71t-189.5 191.5t-65 271.5q0 154 67 277.5t184.5 192.5t262.5 69q218 0 354 -150.5t136 -390.5zM297 625h598q-15 120 -94 194t-195 74
q-114 0 -199 -74t-110 -194zM260 1178l254 321h197l256 -321h-172l-183 206l-180 -206h-172zM614 -432q-56 0 -93.5 38t-37.5 93t37.5 93t93.5 38q55 0 92 -37.5t37 -93.5t-37 -93.5t-92 -37.5z" />
    <glyph glyph-name="uni1EC8" unicode="&#x1ec8;" horiz-adv-x="600" 
d="M195 0v1454h211v-1454h-211zM221 1579q0 58 17 82.5t63 48.5q25 13 36.5 19.5t28 18.5t23 25.5t6.5 30.5q0 60 -94 60q-55 0 -121 -27l-26 113q86 35 174 35q89 0 151 -43.5t62 -124.5q0 -59 -32.5 -96t-90.5 -70q-30 -19 -38 -30.5t-11 -41.5h-148z" />
    <glyph glyph-name="uni1EC9" unicode="&#x1ec9;" horiz-adv-x="536" 
d="M172 0v1032h195v-1032h-195zM193 1157q0 58 17 82.5t62 48.5q26 13 37 19.5t28 18.5t23.5 25.5t6.5 30.5q0 60 -95 60q-54 0 -120 -27l-27 113q86 35 174 35q89 0 151 -43.5t62 -124.5q0 -59 -32.5 -96t-90.5 -70q-30 -19 -38 -30.5t-11 -41.5h-147z" />
    <glyph glyph-name="uni1ECA" unicode="&#x1eca;" horiz-adv-x="600" 
d="M195 0v1454h211v-1454h-211zM301 -432q-55 0 -93 38t-38 93t38 93t93 38t92 -37.5t37 -93.5t-37 -93.5t-92 -37.5z" />
    <glyph glyph-name="uni1ECB" unicode="&#x1ecb;" horiz-adv-x="536" 
d="M272 1233q-56 0 -93.5 37.5t-37.5 93.5t37.5 93.5t93.5 37.5q55 0 92 -37.5t37 -93.5t-37 -93.5t-92 -37.5zM172 0v1032h195v-1032h-195zM270 -432q-56 0 -93.5 38t-37.5 93t37.5 93t93.5 38q55 0 92 -37.5t37 -93.5t-37 -93.5t-92 -37.5z" />
    <glyph glyph-name="uni1ECC" unicode="&#x1ecc;" horiz-adv-x="1753" 
d="M874 -20q-214 0 -386.5 94.5t-271.5 266t-99 386.5q0 216 98.5 387t272 266t389.5 95q215 0 387.5 -95t271 -265.5t98.5 -385.5q0 -161 -58 -300.5t-158.5 -238t-241.5 -154.5t-302 -56zM877 178q155 0 279 71t193.5 196.5t69.5 281.5q0 238 -153 393.5t-389 155.5
t-390.5 -155.5t-154.5 -393.5q0 -156 70 -281.5t195 -196.5t280 -71zM877 -432q-56 0 -94 38t-38 93t38 93t94 38q55 0 92 -37.5t37 -93.5t-37 -93.5t-92 -37.5z" />
    <glyph glyph-name="uni1ECD" unicode="&#x1ecd;" horiz-adv-x="1282" 
d="M641 -20q-242 0 -395.5 150.5t-153.5 385.5q0 234 153.5 385.5t395.5 151.5q243 0 397 -151.5t154 -385.5q0 -235 -153.5 -385.5t-397.5 -150.5zM641 162q156 0 253 98.5t97 255.5q0 158 -97 256t-251 98q-157 0 -253.5 -98t-96.5 -256q0 -159 96.5 -256.5t251.5 -97.5z
M653 -432q-55 0 -93 38t-38 93t38 93t93 38t92 -37.5t37 -93.5t-37 -93.5t-92 -37.5z" />
    <glyph glyph-name="uni1ECE" unicode="&#x1ece;" horiz-adv-x="1753" 
d="M874 -20q-214 0 -386.5 94.5t-271.5 266t-99 386.5q0 216 98.5 387t272 266t389.5 95q215 0 387.5 -95t271 -265.5t98.5 -385.5q0 -161 -58 -300.5t-158.5 -238t-241.5 -154.5t-302 -56zM877 178q155 0 279 71t193.5 196.5t69.5 281.5q0 238 -153 393.5t-389 155.5
t-390.5 -155.5t-154.5 -393.5q0 -156 70 -281.5t195 -196.5t280 -71zM795 1579q0 58 17 82.5t62 48.5q26 13 37 19.5t28 18.5t23.5 25.5t6.5 30.5q0 60 -95 60q-54 0 -120 -27l-27 113q86 35 174 35q89 0 151 -43.5t62 -124.5q0 -59 -32.5 -96t-90.5 -70q-30 -19 -38 -30.5
t-11 -41.5h-147z" />
    <glyph glyph-name="uni1ECF" unicode="&#x1ecf;" horiz-adv-x="1282" 
d="M641 -20q-242 0 -395.5 150.5t-153.5 385.5q0 234 153.5 385.5t395.5 151.5q243 0 397 -151.5t154 -385.5q0 -235 -153.5 -385.5t-397.5 -150.5zM641 162q156 0 253 98.5t97 255.5q0 158 -97 256t-251 98q-157 0 -253.5 -98t-96.5 -256q0 -159 96.5 -256.5t251.5 -97.5z
M561 1157q0 58 17 82.5t63 48.5q25 13 36.5 19.5t28 18.5t23 25.5t6.5 30.5q0 60 -94 60q-55 0 -121 -27l-26 113q86 35 174 35q89 0 151 -43.5t62 -124.5q0 -59 -32.5 -96t-90.5 -70q-30 -19 -38 -30.5t-11 -41.5h-148z" />
    <glyph glyph-name="uni1ED0" unicode="&#x1ed0;" horiz-adv-x="1753" 
d="M874 -20q-214 0 -386.5 94.5t-271.5 266t-99 386.5q0 216 98.5 387t272 266t389.5 95q215 0 387.5 -95t271 -265.5t98.5 -385.5q0 -161 -58 -300.5t-158.5 -238t-241.5 -154.5t-302 -56zM877 178q155 0 279 71t193.5 196.5t69.5 281.5q0 238 -153 393.5t-389 155.5
t-390.5 -155.5t-154.5 -393.5q0 -156 70 -281.5t195 -196.5t280 -71zM1122 1772l131 206h172l-163 -206h-140zM557 1581l229 281h177l229 -281h-154l-164 162l-161 -162h-156z" />
    <glyph glyph-name="uni1ED1" unicode="&#x1ed1;" horiz-adv-x="1282" 
d="M641 -20q-242 0 -395.5 150.5t-153.5 385.5q0 234 153.5 385.5t395.5 151.5q243 0 397 -151.5t154 -385.5q0 -235 -153.5 -385.5t-397.5 -150.5zM641 162q156 0 253 98.5t97 255.5q0 158 -97 256t-251 98q-157 0 -253.5 -98t-96.5 -256q0 -159 96.5 -256.5t251.5 -97.5z
M887 1401l131 207h172l-164 -207h-139zM317 1178l230 321h176l229 -321h-153l-164 206l-162 -206h-156z" />
    <glyph glyph-name="uni1ED2" unicode="&#x1ed2;" horiz-adv-x="1753" 
d="M874 -20q-214 0 -386.5 94.5t-271.5 266t-99 386.5q0 216 98.5 387t272 266t389.5 95q215 0 387.5 -95t271 -265.5t98.5 -385.5q0 -161 -58 -300.5t-158.5 -238t-241.5 -154.5t-302 -56zM877 178q155 0 279 71t193.5 196.5t69.5 281.5q0 238 -153 393.5t-389 155.5
t-390.5 -155.5t-154.5 -393.5q0 -156 70 -281.5t195 -196.5t280 -71zM494 1772l-162 206h170l133 -206h-141zM559 1581l229 281h177l229 -281h-154l-163 162l-162 -162h-156z" />
    <glyph glyph-name="uni1ED3" unicode="&#x1ed3;" horiz-adv-x="1282" 
d="M641 -20q-242 0 -395.5 150.5t-153.5 385.5q0 234 153.5 385.5t395.5 151.5q243 0 397 -151.5t154 -385.5q0 -235 -153.5 -385.5t-397.5 -150.5zM641 162q156 0 253 98.5t97 255.5q0 158 -97 256t-251 98q-157 0 -253.5 -98t-96.5 -256q0 -159 96.5 -256.5t251.5 -97.5z
M252 1401l-162 207h170l133 -207h-141zM326 1178l229 321h176l230 -321h-154l-164 206l-162 -206h-155z" />
    <glyph glyph-name="uni1ED4" unicode="&#x1ed4;" horiz-adv-x="1753" 
d="M874 -20q-214 0 -386.5 94.5t-271.5 266t-99 386.5q0 216 98.5 387t272 266t389.5 95q215 0 387.5 -95t271 -265.5t98.5 -385.5q0 -161 -58 -300.5t-158.5 -238t-241.5 -154.5t-302 -56zM877 178q155 0 279 71t193.5 196.5t69.5 281.5q0 238 -153 393.5t-389 155.5
t-390.5 -155.5t-154.5 -393.5q0 -156 70 -281.5t195 -196.5t280 -71zM1139 1739q0 52 15 74.5t56 44.5q24 13 32.5 18t24 16.5t21.5 23t6 26.5q0 55 -84 55q-46 0 -108 -25l-25 101q80 32 156 32q79 0 135.5 -39.5t56.5 -111.5q0 -54 -29 -87.5t-81 -62.5q-27 -18 -34.5 -28
t-10.5 -37h-131zM557 1581l229 281h177l229 -281h-154l-164 162l-161 -162h-156z" />
    <glyph glyph-name="uni1ED5" unicode="&#x1ed5;" horiz-adv-x="1282" 
d="M641 -20q-242 0 -395.5 150.5t-153.5 385.5q0 234 153.5 385.5t395.5 151.5q243 0 397 -151.5t154 -385.5q0 -235 -153.5 -385.5t-397.5 -150.5zM641 162q156 0 253 98.5t97 255.5q0 158 -97 256t-251 98q-157 0 -253.5 -98t-96.5 -256q0 -159 96.5 -256.5t251.5 -97.5z
M920 1362q0 52 15 74.5t56 44.5q24 13 32.5 18t24 16.5t21.5 23t6 26.5q0 55 -84 55q-45 0 -108 -25l-25 101q83 33 156 33q79 0 135.5 -40t56.5 -112q0 -54 -29 -87.5t-81 -62.5q-27 -18 -34.5 -28t-10.5 -37h-131zM324 1178l229 321h176l229 -321h-153l-164 206l-162 -206
h-155z" />
    <glyph glyph-name="uni1ED6" unicode="&#x1ed6;" horiz-adv-x="1753" 
d="M874 -20q-214 0 -386.5 94.5t-271.5 266t-99 386.5q0 216 98.5 387t272 266t389.5 95q215 0 387.5 -95t271 -265.5t98.5 -385.5q0 -161 -58 -300.5t-158.5 -238t-241.5 -154.5t-302 -56zM877 178q155 0 279 71t193.5 196.5t69.5 281.5q0 238 -153 393.5t-389 155.5
t-390.5 -155.5t-154.5 -393.5q0 -156 70 -281.5t195 -196.5t280 -71zM567 1942q10 102 55 152t107 50q61 0 162 -43q78 -35 106 -35q56 0 68 78h113q-11 -100 -57 -151t-109 -51q-51 0 -154 45q-75 34 -113 34q-47 0 -65 -79h-113zM522 1581l254 281h197l256 -281h-172
l-183 162l-180 -162h-172z" />
    <glyph glyph-name="uni1ED7" unicode="&#x1ed7;" horiz-adv-x="1282" 
d="M641 -20q-242 0 -395.5 150.5t-153.5 385.5q0 234 153.5 385.5t395.5 151.5q243 0 397 -151.5t154 -385.5q0 -235 -153.5 -385.5t-397.5 -150.5zM641 162q156 0 253 98.5t97 255.5q0 158 -97 256t-251 98q-157 0 -253.5 -98t-96.5 -256q0 -159 96.5 -256.5t251.5 -97.5z
M334 1585q10 103 55 153t107 50q60 0 161 -43q78 -35 107 -35q55 0 67 78h113q-11 -100 -57 -151.5t-109 -51.5q-50 0 -153 45q-77 35 -113 35q-48 0 -66 -80h-112zM289 1178l254 321h196l256 -321h-172l-182 206l-180 -206h-172z" />
    <glyph glyph-name="uni1ED8" unicode="&#x1ed8;" horiz-adv-x="1753" 
d="M874 -20q-214 0 -386.5 94.5t-271.5 266t-99 386.5q0 216 98.5 387t272 266t389.5 95q215 0 387.5 -95t271 -265.5t98.5 -385.5q0 -161 -58 -300.5t-158.5 -238t-241.5 -154.5t-302 -56zM877 178q155 0 279 71t193.5 196.5t69.5 281.5q0 238 -153 393.5t-389 155.5
t-390.5 -155.5t-154.5 -393.5q0 -156 70 -281.5t195 -196.5t280 -71zM522 1581l254 281h197l256 -281h-172l-183 162l-180 -162h-172zM877 -432q-56 0 -94 38t-38 93t38 93t94 38q55 0 92 -37.5t37 -93.5t-37 -93.5t-92 -37.5z" />
    <glyph glyph-name="uni1ED9" unicode="&#x1ed9;" horiz-adv-x="1282" 
d="M641 -20q-242 0 -395.5 150.5t-153.5 385.5q0 234 153.5 385.5t395.5 151.5q243 0 397 -151.5t154 -385.5q0 -235 -153.5 -385.5t-397.5 -150.5zM641 162q156 0 253 98.5t97 255.5q0 158 -97 256t-251 98q-157 0 -253.5 -98t-96.5 -256q0 -159 96.5 -256.5t251.5 -97.5z
M289 1178l254 321h196l256 -321h-172l-182 206l-180 -206h-172zM653 -432q-55 0 -93 38t-38 93t38 93t93 38t92 -37.5t37 -93.5t-37 -93.5t-92 -37.5z" />
    <glyph glyph-name="uni1EDA" unicode="&#x1eda;" horiz-adv-x="1753" 
d="M1407 1274q110 -98 168.5 -238.5t58.5 -306.5q0 -161 -58 -300.5t-158.5 -238t-241.5 -154.5t-302 -56q-214 0 -386.5 94.5t-271.5 266.5t-99 388q0 215 98 385.5t273 265.5t397 95q133 0 266 -45q112 -35 156 -35q84 0 139 51.5t55 130.5q0 71 -35 139l154 41
q45 -86 45 -188q0 -109 -64 -187t-194 -108zM877 178q155 0 279 71t193.5 196.5t69.5 281.5q0 238 -153 393.5t-389 155.5t-390.5 -155.5t-154.5 -393.5q0 -156 70 -281.5t195 -196.5t280 -71zM739 1581l240 301h209l-277 -301h-172z" />
    <glyph glyph-name="uni1EDB" unicode="&#x1edb;" horiz-adv-x="1282" 
d="M1247 1139q0 -106 -50.5 -172.5t-135.5 -87.5q131 -147 131 -363q0 -235 -153.5 -385.5t-397.5 -150.5q-242 0 -395.5 150.5t-153.5 385.5q0 234 154 385.5t397 151.5q72 0 186 -31q76 -18 111 -18q72 0 107.5 32.5t35.5 108.5q0 72 -34 135l153 41q45 -80 45 -182z
M643 162q155 0 251.5 98.5t96.5 255.5q0 158 -97 256t-253 98q-155 0 -251.5 -98t-96.5 -256q0 -159 97 -256.5t253 -97.5zM506 1178l231 321h195l-254 -321h-172z" />
    <glyph glyph-name="uni1EDC" unicode="&#x1edc;" horiz-adv-x="1753" 
d="M1407 1274q110 -98 168.5 -238.5t58.5 -306.5q0 -161 -58 -300.5t-158.5 -238t-241.5 -154.5t-302 -56q-214 0 -386.5 94.5t-271.5 266.5t-99 388q0 215 98 385.5t273 265.5t397 95q133 0 266 -45q112 -35 156 -35q84 0 139 51.5t55 130.5q0 71 -35 139l154 41
q45 -86 45 -188q0 -109 -64 -187t-194 -108zM877 178q155 0 279 71t193.5 196.5t69.5 281.5q0 238 -153 393.5t-389 155.5t-390.5 -155.5t-154.5 -393.5q0 -156 70 -281.5t195 -196.5t280 -71zM834 1581l-277 301h207l242 -301h-172z" />
    <glyph glyph-name="uni1EDD" unicode="&#x1edd;" horiz-adv-x="1282" 
d="M1247 1139q0 -106 -50.5 -172.5t-135.5 -87.5q131 -147 131 -363q0 -235 -153.5 -385.5t-397.5 -150.5q-242 0 -395.5 150.5t-153.5 385.5q0 234 154 385.5t397 151.5q72 0 186 -31q76 -18 111 -18q72 0 107.5 32.5t35.5 108.5q0 72 -34 135l153 41q45 -80 45 -182z
M643 162q155 0 251.5 98.5t96.5 255.5q0 158 -97 256t-253 98q-155 0 -251.5 -98t-96.5 -256q0 -159 97 -256.5t253 -97.5zM625 1178l-256 321h192l236 -321h-172z" />
    <glyph glyph-name="uni1EDE" unicode="&#x1ede;" horiz-adv-x="1753" 
d="M1407 1274q110 -98 168.5 -238.5t58.5 -306.5q0 -161 -58 -300.5t-158.5 -238t-241.5 -154.5t-302 -56q-214 0 -386.5 94.5t-271.5 266.5t-99 388q0 215 98 385.5t273 265.5t397 95q133 0 266 -45q112 -35 156 -35q84 0 139 51.5t55 130.5q0 71 -35 139l154 41
q45 -86 45 -188q0 -109 -64 -187t-194 -108zM877 178q155 0 279 71t193.5 196.5t69.5 281.5q0 238 -153 393.5t-389 155.5t-390.5 -155.5t-154.5 -393.5q0 -156 70 -281.5t195 -196.5t280 -71zM795 1579q0 58 17 82.5t62 48.5q26 13 37 19.5t28 18.5t23.5 25.5t6.5 30.5
q0 60 -95 60q-54 0 -120 -27l-27 113q86 35 174 35q89 0 151 -43.5t62 -124.5q0 -59 -32.5 -96t-90.5 -70q-30 -19 -38 -30.5t-11 -41.5h-147z" />
    <glyph glyph-name="uni1EDF" unicode="&#x1edf;" horiz-adv-x="1282" 
d="M1247 1139q0 -106 -50.5 -172.5t-135.5 -87.5q131 -147 131 -363q0 -235 -153.5 -385.5t-397.5 -150.5q-242 0 -395.5 150.5t-153.5 385.5q0 234 154 385.5t397 151.5q72 0 186 -31q76 -18 111 -18q72 0 107.5 32.5t35.5 108.5q0 72 -34 135l153 41q45 -80 45 -182z
M643 162q155 0 251.5 98.5t96.5 255.5q0 158 -97 256t-253 98q-155 0 -251.5 -98t-96.5 -256q0 -159 97 -256.5t253 -97.5zM561 1157q0 58 17 82.5t63 48.5q25 13 36.5 19.5t28 18.5t23 25.5t6.5 30.5q0 60 -94 60q-55 0 -121 -27l-26 113q86 35 174 35q89 0 151 -43.5
t62 -124.5q0 -59 -32.5 -96t-90.5 -70q-30 -19 -38 -30.5t-11 -41.5h-148z" />
    <glyph glyph-name="uni1EE0" unicode="&#x1ee0;" horiz-adv-x="1753" 
d="M1407 1274q110 -98 168.5 -238.5t58.5 -306.5q0 -161 -58 -300.5t-158.5 -238t-241.5 -154.5t-302 -56q-214 0 -386.5 94.5t-271.5 266.5t-99 388q0 215 98 385.5t273 265.5t397 95q133 0 266 -45q112 -35 156 -35q84 0 139 51.5t55 130.5q0 71 -35 139l154 41
q45 -86 45 -188q0 -109 -64 -187t-194 -108zM877 178q155 0 279 71t193.5 196.5t69.5 281.5q0 238 -153 393.5t-389 155.5t-390.5 -155.5t-154.5 -393.5q0 -156 70 -281.5t195 -196.5t280 -71zM532 1581q11 114 59.5 169.5t119.5 55.5q54 0 182 -51q8 -3 27.5 -10.5
t29 -10.5t23.5 -7.5t25 -6.5t20 -2q31 0 46 20t21 68h125q-12 -107 -58.5 -166t-119.5 -59q-65 0 -176 49q-95 39 -127 39q-30 0 -45.5 -20t-26.5 -68h-125z" />
    <glyph glyph-name="uni1EE1" unicode="&#x1ee1;" horiz-adv-x="1282" 
d="M1247 1139q0 -106 -50.5 -172.5t-135.5 -87.5q131 -147 131 -363q0 -235 -153.5 -385.5t-397.5 -150.5q-242 0 -395.5 150.5t-153.5 385.5q0 234 154 385.5t397 151.5q72 0 186 -31q76 -18 111 -18q72 0 107.5 32.5t35.5 108.5q0 72 -34 135l153 41q45 -80 45 -182z
M643 162q155 0 251.5 98.5t96.5 255.5q0 158 -97 256t-253 98q-155 0 -251.5 -98t-96.5 -256q0 -159 97 -256.5t253 -97.5zM299 1223q11 114 61 169.5t119 55.5q65 0 180 -49q86 -39 117 -39q64 0 76 88h125q-13 -112 -63 -168.5t-121 -56.5q-56 0 -170 49q-88 39 -125 39
q-26 0 -44.5 -19.5t-29.5 -68.5h-125z" />
    <glyph glyph-name="uni1EE2" unicode="&#x1ee2;" horiz-adv-x="1753" 
d="M1407 1274q110 -98 168.5 -238.5t58.5 -306.5q0 -161 -58 -300.5t-158.5 -238t-241.5 -154.5t-302 -56q-214 0 -386.5 94.5t-271.5 266.5t-99 388q0 215 98 385.5t273 265.5t397 95q133 0 266 -45q112 -35 156 -35q84 0 139 51.5t55 130.5q0 71 -35 139l154 41
q45 -86 45 -188q0 -109 -64 -187t-194 -108zM877 178q155 0 279 71t193.5 196.5t69.5 281.5q0 238 -153 393.5t-389 155.5t-390.5 -155.5t-154.5 -393.5q0 -156 70 -281.5t195 -196.5t280 -71zM877 -432q-56 0 -94 38t-38 93t38 93t94 38q55 0 92 -37.5t37 -93.5t-37 -93.5
t-92 -37.5z" />
    <glyph glyph-name="uni1EE3" unicode="&#x1ee3;" horiz-adv-x="1282" 
d="M1247 1139q0 -106 -50.5 -172.5t-135.5 -87.5q131 -147 131 -363q0 -235 -153.5 -385.5t-397.5 -150.5q-242 0 -395.5 150.5t-153.5 385.5q0 234 154 385.5t397 151.5q72 0 186 -31q76 -18 111 -18q72 0 107.5 32.5t35.5 108.5q0 72 -34 135l153 41q45 -80 45 -182z
M643 162q155 0 251.5 98.5t96.5 255.5q0 158 -97 256t-253 98q-155 0 -251.5 -98t-96.5 -256q0 -159 97 -256.5t253 -97.5zM653 -432q-55 0 -93 38t-38 93t38 93t93 38t92 -37.5t37 -93.5t-37 -93.5t-92 -37.5z" />
    <glyph glyph-name="uni1EE4" unicode="&#x1ee4;" horiz-adv-x="1515" 
d="M758 -20q-267 0 -420.5 151t-153.5 406v917h209v-887q0 -191 99.5 -290t265.5 -99t265 98.5t99 290.5v887h209v-917q0 -255 -153 -406t-420 -151zM758 -432q-56 0 -93.5 38t-37.5 93t37.5 93t93.5 38q55 0 92 -37.5t37 -93.5t-37 -93.5t-92 -37.5z" />
    <glyph glyph-name="uni1EE5" unicode="&#x1ee5;" horiz-adv-x="1263" 
d="M899 1032h195v-1032h-195v180q-53 -96 -149.5 -148t-223.5 -52q-174 0 -270 104t-96 305v643h194v-577q0 -301 244 -301q134 0 217.5 85.5t83.5 221.5v571zM633 -432q-55 0 -93 38t-38 93t38 93t93 38t92 -37.5t37 -93.5t-37 -93.5t-92 -37.5z" />
    <glyph glyph-name="uni1EE6" unicode="&#x1ee6;" horiz-adv-x="1515" 
d="M758 -20q-267 0 -420.5 151t-153.5 406v917h209v-887q0 -191 99.5 -290t265.5 -99t265 98.5t99 290.5v887h209v-917q0 -255 -153 -406t-420 -151zM680 1579q0 58 17 82.5t63 48.5q25 13 36.5 19.5t28 18.5t23 25.5t6.5 30.5q0 60 -94 60q-55 0 -121 -27l-27 113
q86 35 174 35q89 0 151 -43.5t62 -124.5q0 -59 -32.5 -96t-89.5 -70q-30 -20 -38.5 -31t-11.5 -41h-147z" />
    <glyph glyph-name="uni1EE7" unicode="&#x1ee7;" horiz-adv-x="1263" 
d="M899 1032h195v-1032h-195v180q-53 -96 -149.5 -148t-223.5 -52q-174 0 -270 104t-96 305v643h194v-577q0 -301 244 -301q134 0 217.5 85.5t83.5 221.5v571zM557 1157q0 58 17 82.5t63 48.5q25 13 36.5 19.5t28 18.5t23 25.5t6.5 30.5q0 60 -94 60q-55 0 -121 -27l-27 113
q86 35 175 35t151 -43.5t62 -124.5q0 -59 -32.5 -96t-90.5 -70q-30 -19 -38 -30.5t-11 -41.5h-148z" />
    <glyph glyph-name="uni1EE8" unicode="&#x1ee8;" horiz-adv-x="1515" 
d="M1534 1575q0 -87 -51 -150t-152 -90v-798q0 -255 -153 -406t-420 -151t-420.5 151t-153.5 406v917h209v-887q0 -191 99.5 -290t265.5 -99t265 98.5t99 290.5v887h49q102 0 151.5 28t49.5 99q0 77 -37 133l156 43q43 -85 43 -182zM625 1581l239 301h209l-276 -301h-172z
" />
    <glyph glyph-name="uni1EE9" unicode="&#x1ee9;" horiz-adv-x="1263" 
d="M1288 1153q0 -86 -48.5 -147.5t-145.5 -90.5v-915h-195v180q-53 -96 -149.5 -148t-223.5 -52q-174 0 -270 104t-96 305v643h194v-577q0 -301 244 -301q134 0 217.5 85.5t83.5 221.5v571h27q102 0 151 28t49 99q0 78 -36 133l155 43q43 -85 43 -182zM502 1178l231 321h195
l-254 -321h-172z" />
    <glyph glyph-name="uni1EEA" unicode="&#x1eea;" horiz-adv-x="1515" 
d="M1534 1575q0 -87 -51 -150t-152 -90v-798q0 -255 -153 -406t-420 -151t-420.5 151t-153.5 406v917h209v-887q0 -191 99.5 -290t265.5 -99t265 98.5t99 290.5v887h49q102 0 151.5 28t49.5 99q0 77 -37 133l156 43q43 -85 43 -182zM719 1581l-277 301h207l242 -301h-172z
" />
    <glyph glyph-name="uni1EEB" unicode="&#x1eeb;" horiz-adv-x="1263" 
d="M1288 1153q0 -86 -48.5 -147.5t-145.5 -90.5v-915h-195v180q-53 -96 -149.5 -148t-223.5 -52q-174 0 -270 104t-96 305v643h194v-577q0 -301 244 -301q134 0 217.5 85.5t83.5 221.5v571h27q102 0 151 28t49 99q0 78 -36 133l155 43q43 -85 43 -182zM621 1178l-256 321
h192l236 -321h-172z" />
    <glyph glyph-name="uni1EEC" unicode="&#x1eec;" horiz-adv-x="1515" 
d="M1534 1575q0 -87 -51 -150t-152 -90v-798q0 -255 -153 -406t-420 -151t-420.5 151t-153.5 406v917h209v-887q0 -191 99.5 -290t265.5 -99t265 98.5t99 290.5v887h49q102 0 151.5 28t49.5 99q0 77 -37 133l156 43q43 -85 43 -182zM680 1579q0 58 17 82.5t63 48.5
q25 13 36.5 19.5t28 18.5t23 25.5t6.5 30.5q0 60 -94 60q-55 0 -121 -27l-27 113q86 35 174 35q89 0 151 -43.5t62 -124.5q0 -59 -32.5 -96t-89.5 -70q-30 -20 -38.5 -31t-11.5 -41h-147z" />
    <glyph glyph-name="uni1EED" unicode="&#x1eed;" horiz-adv-x="1263" 
d="M1288 1153q0 -86 -48.5 -147.5t-145.5 -90.5v-915h-195v180q-53 -96 -149.5 -148t-223.5 -52q-174 0 -270 104t-96 305v643h194v-577q0 -301 244 -301q134 0 217.5 85.5t83.5 221.5v571h27q102 0 151 28t49 99q0 78 -36 133l155 43q43 -85 43 -182zM557 1157
q0 58 17 82.5t63 48.5q25 13 36.5 19.5t28 18.5t23 25.5t6.5 30.5q0 60 -94 60q-55 0 -121 -27l-27 113q86 35 175 35t151 -43.5t62 -124.5q0 -59 -32.5 -96t-90.5 -70q-30 -19 -38 -30.5t-11 -41.5h-148z" />
    <glyph glyph-name="uni1EEE" unicode="&#x1eee;" horiz-adv-x="1515" 
d="M1534 1575q0 -87 -51 -150t-152 -90v-798q0 -255 -153 -406t-420 -151t-420.5 151t-153.5 406v917h209v-887q0 -191 99.5 -290t265.5 -99t265 98.5t99 290.5v887h49q102 0 151.5 28t49.5 99q0 77 -37 133l156 43q43 -85 43 -182zM418 1581q12 114 59.5 169.5t118.5 55.5
q54 0 182 -51q8 -3 27.5 -10.5t29 -10.5t23.5 -7.5t25 -6.5t20 -2q31 0 46.5 20.5t21.5 67.5h125q-12 -107 -58.5 -166t-119.5 -59q-66 0 -177 49q-95 39 -127 39q-30 0 -45 -20t-26 -68h-125z" />
    <glyph glyph-name="uni1EEF" unicode="&#x1eef;" horiz-adv-x="1263" 
d="M1288 1153q0 -86 -48.5 -147.5t-145.5 -90.5v-915h-195v180q-53 -96 -149.5 -148t-223.5 -52q-174 0 -270 104t-96 305v643h194v-577q0 -301 244 -301q134 0 217.5 85.5t83.5 221.5v571h27q102 0 151 28t49 99q0 78 -36 133l155 43q43 -85 43 -182zM295 1223
q11 114 61 169.5t119 55.5q65 0 180 -49q86 -39 117 -39q64 0 76 88h125q-13 -112 -63.5 -168.5t-121.5 -56.5q-56 0 -170 49q-88 39 -124 39q-26 0 -44.5 -19.5t-29.5 -68.5h-125z" />
    <glyph glyph-name="uni1EF0" unicode="&#x1ef0;" horiz-adv-x="1515" 
d="M1534 1575q0 -87 -51 -150t-152 -90v-798q0 -255 -153 -406t-420 -151t-420.5 151t-153.5 406v917h209v-887q0 -191 99.5 -290t265.5 -99t265 98.5t99 290.5v887h49q102 0 151.5 28t49.5 99q0 77 -37 133l156 43q43 -85 43 -182zM758 -432q-56 0 -93.5 38t-37.5 93
t37.5 93t93.5 38q55 0 92 -37.5t37 -93.5t-37 -93.5t-92 -37.5z" />
    <glyph glyph-name="uni1EF1" unicode="&#x1ef1;" horiz-adv-x="1263" 
d="M1288 1153q0 -86 -48.5 -147.5t-145.5 -90.5v-915h-195v180q-53 -96 -149.5 -148t-223.5 -52q-174 0 -270 104t-96 305v643h194v-577q0 -301 244 -301q134 0 217.5 85.5t83.5 221.5v571h27q102 0 151 28t49 99q0 78 -36 133l155 43q43 -85 43 -182zM633 -432
q-55 0 -93 38t-38 93t38 93t93 38t92 -37.5t37 -93.5t-37 -93.5t-92 -37.5z" />
    </font>
</defs>
</svg>
